<svg width="56" height="25" viewBox="0 0 56 25" fill="none" xmlns="http://www.w3.org/2000/svg">
<path d="M3.25148 15.8506C2.98335 15.5929 2.78274 15.3348 2.8945 15.4208C2.32408 14.9201 2.35222 14.8689 2.21534 14.8671C1.83846 14.5564 1.5176 14.144 1.93608 14.5076L0.903604 13.5577L1.4858 14.1609C1.37705 14.1083 1.14452 13.8672 0.907529 13.6241C0.788971 13.5025 0.669365 13.3805 0.563631 13.2811C0.536805 13.2566 0.511156 13.2333 0.487078 13.2113L0.434865 13.1479L0.433556 13.1462L0.43107 13.1428L0.426098 13.1358L0.416545 13.1222L0.397963 13.0957C0.385793 13.0783 0.374016 13.0614 0.362762 13.0453C0.317354 12.9812 0.285555 12.9221 0.257812 12.8872C0.257812 12.8872 0.270899 12.917 0.293799 12.9691C0.3061 12.9958 0.322064 13.0277 0.343394 13.0628C0.354125 13.0804 0.365379 13.0989 0.377287 13.1187C0.383438 13.1284 0.389719 13.1383 0.396131 13.1487L0.406076 13.164L0.407385 13.1659L0.463785 13.2345L0.46614 13.2369L0.470852 13.2414C0.571875 13.3417 0.706791 13.475 0.841576 13.6085C1.11128 13.8753 1.38085 14.1421 1.38085 14.1421L1.30861 14.1071C1.57295 14.3314 2.03907 14.8141 2.19662 14.9876C2.16129 14.9706 2.16299 15.0023 1.97207 14.8148C3.26313 16.1145 2.41909 15.0656 3.51268 16.1218C3.44371 16.0557 3.36114 15.9714 3.25148 15.8506Z" fill="white"/>
<path d="M4.21465 17.0883L4.73691 17.4698L5.47679 18.246C5.50964 18.2303 6.08162 18.7628 5.72909 18.3676C5.65214 18.2984 5.50035 18.1611 5.38585 18.0423C5.52285 18.0743 6.42016 19.0241 6.25043 18.7483C5.63696 18.1625 5.55649 18.059 5.14493 17.7327C4.60017 17.1782 4.21204 16.7659 3.97453 16.49C3.80336 16.3348 3.74827 16.3442 3.53458 16.1434C3.58103 16.1887 3.62382 16.2301 3.67734 16.2822L3.62081 16.3834C3.8103 16.5396 3.96589 16.7109 4.1593 16.9012L3.17969 16.106C3.39194 16.4661 4.30717 17.2946 4.62477 17.6735C4.25941 17.1748 5.00203 17.9844 4.21465 17.0883Z" fill="white"/>
<path d="M3.53655 16.1453C3.5303 16.139 3.51994 16.1289 3.5127 16.1218C3.51979 16.1288 3.53016 16.139 3.53655 16.1453Z" fill="white"/>
<path d="M38.4531 12.1613C38.1863 12.1633 38.1075 12.1897 38.069 12.2029L41.0731 12.2008C40.9791 12.1715 40.1138 12.1353 40.6921 12.1177C40.4342 12.0853 39.6487 12.113 39.5348 12.1527L39.7525 12.1079C39.0604 12.1652 38.5876 12.0527 39.0389 12.0188L38.9806 12.0193L37.0635 12.2398C37.7674 12.2528 37.6056 12.1641 38.4531 12.1613Z" fill="white"/>
<path d="M3.55371 9.59761C3.82171 9.31509 3.84801 9.27374 3.80915 9.29742C3.71624 9.40172 3.62922 9.50222 3.55371 9.59761Z" fill="white"/>
<path d="M36.6152 12.2917L36.0146 12.3607C36.2553 12.3421 36.4665 12.3174 36.6152 12.2917Z" fill="white"/>
<path d="M40.7754 11.2425C40.7767 11.2388 40.7831 11.2356 40.7673 11.2307L40.4976 11.266C40.5015 11.266 40.5028 11.266 40.5045 11.266C40.6038 11.2574 40.6931 11.2497 40.7754 11.2425Z" fill="white"/>
<path d="M22.9842 12.551C22.9197 12.5526 22.8642 12.5539 22.7871 12.5559C22.8588 12.5553 22.9237 12.5534 22.9842 12.551Z" fill="white"/>
<path d="M48.9139 10.8479L47.5783 10.9142C47.7562 10.8828 47.112 10.8923 47.3934 10.8556C47.2917 10.8606 46.8143 10.873 46.9445 10.8893L47.217 10.8872C46.5127 10.9786 46.9393 11.0138 45.7715 11.0836C46.4964 11.1379 46.8143 11.0882 47.1982 11.0465C47.3285 11.0418 47.4375 11.0379 47.5478 11.0339L48.6584 10.9059L48.9139 10.8479Z" fill="white"/>
<path d="M8.39617 6.7644L8.39062 6.78023C8.39861 6.7686 8.39874 6.76522 8.39617 6.7644Z" fill="white"/>
<path d="M8.37039 6.84181L8.39094 6.77979C8.3505 6.8409 8.16612 7.04517 8.37039 6.84181Z" fill="white"/>
<path d="M36.8359 12.2324C36.8175 12.2494 36.7406 12.2702 36.6152 12.2917L37.0633 12.2399C36.9997 12.2379 36.9157 12.235 36.8359 12.2324Z" fill="white"/>
<path d="M37.8555 12.0325L38.9807 12.0194L39.3956 11.9719C38.9649 11.99 38.4612 12.0024 37.8555 12.0325Z" fill="white"/>
<path d="M24.7616 12.6049C22.431 12.6189 25.3341 12.4972 24.2633 12.4713C23.6162 12.484 23.388 12.535 22.9845 12.5511C24.833 12.5074 22.7339 12.7196 24.5983 12.6926C24.3332 12.7851 23.2537 12.7933 22.6212 12.7682C21.9052 12.6791 23.2469 12.703 23.4092 12.6156C22.661 12.6301 22.7928 12.6462 22.4753 12.6961C21.3007 12.6754 20.045 12.8055 19.3435 12.6821C18.4932 12.7017 18.5492 12.7444 18.0601 12.7912C17.9628 12.8868 19.3248 12.8413 19.6399 12.9165C19.5746 12.9085 19.4473 12.8924 19.4842 12.8789L20.2193 12.8991C19.5215 12.8658 20.3163 12.8037 20.6892 12.7962C20.9605 12.7942 21.4998 12.7899 21.4256 12.8162L21.0148 12.8369C21.5436 12.8669 22.1814 12.7671 22.7397 12.8188C22.7689 12.8402 22.5576 12.8504 22.5256 12.8637C23.1512 12.7986 23.7546 12.8023 24.6807 12.7562L24.1438 12.8509C24.8846 12.7462 26.5621 12.7759 27.7246 12.8313C27.5957 12.8153 27.3633 12.804 27.5028 12.7856C28.1857 12.7631 28.7014 12.828 28.3851 12.8779C29.0522 12.7993 30.9266 12.9438 31.8357 12.8419L36.0152 12.361C35.8587 12.373 35.6912 12.3828 35.5185 12.387C35.1386 12.3039 34.9338 12.314 35.5996 12.2357C34.946 12.2797 35.1958 12.3464 34.2137 12.3498C34.5988 12.3081 34.6963 12.2127 33.7554 12.2029C31.4037 12.2858 29.8451 12.522 27.6486 12.6428C27.5676 12.5787 25.8431 12.5966 25.005 12.5817C25.3249 12.5129 25.9469 12.4934 26.5924 12.4794C26.1873 12.477 25.4899 12.4731 24.9725 12.4702L24.7616 12.6049Z" fill="white"/>
<path d="M30.2222 12.3896C30.1634 12.3838 30.1026 12.3807 30.04 12.3777C30.0733 12.3831 30.1277 12.3871 30.2222 12.3896Z" fill="white"/>
<path d="M26.7888 12.4813C26.7969 12.4788 26.7941 12.477 26.797 12.4744C26.7293 12.4759 26.6615 12.4776 26.5923 12.4793C26.6615 12.4799 26.7398 12.4808 26.7888 12.4813Z" fill="white"/>
<path d="M36.2847 12.0881C36.4246 12.0728 36.5273 12.0616 36.6671 12.0464C36.5811 12.0512 36.4734 12.0572 36.3695 12.0631C36.2706 12.0716 36.2235 12.0803 36.2847 12.0881Z" fill="white"/>
<path d="M36.7553 12.2004L36.6807 12.2267C36.7407 12.229 36.7829 12.2304 36.836 12.2324C36.8521 12.2182 36.8347 12.2063 36.7553 12.2004Z" fill="white"/>
<path d="M15.8549 12.0259L15.6313 12.0397C15.7661 12.0387 15.8241 12.0331 15.8549 12.0259Z" fill="white"/>
<path d="M22.1652 12.4959C22.9758 12.4898 22.2622 12.4004 23.4088 12.4L23.0722 12.3943C23.8949 12.3533 25.3408 12.3722 26.3184 12.3689C26.2081 12.407 26.9112 12.4152 26.7969 12.4742C27.465 12.4604 28.1268 12.4471 28.4711 12.3863C28.8851 12.4062 29.514 12.3525 30.0402 12.3778C29.8181 12.3421 30.7896 12.2569 29.5087 12.3006C29.612 12.2957 29.5471 12.2875 29.6493 12.2825C28.8241 12.2327 28.4933 12.3172 27.7825 12.3184C27.3575 12.2832 28.4775 12.2614 28.0764 12.2473C27.1888 12.2802 25.2912 12.2048 25.3501 12.3376C24.7042 12.3469 24.6149 12.3177 24.4223 12.2934C23.4005 12.4348 20.6303 12.2327 20.6397 12.4135C21.0128 12.4063 21.6206 12.4102 22.168 12.3715L22.1652 12.4959Z" fill="white"/>
<path d="M34.9238 12.0973C34.8738 12.0968 34.8073 12.096 34.7661 12.0955C34.8126 12.096 34.8705 12.0968 34.9238 12.0973Z" fill="white"/>
<path d="M45.1521 12.6213L44.8131 12.7393C42.883 12.7677 42.1852 12.7345 40.4976 12.7391C40.3687 12.723 40.5734 12.7128 40.6771 12.7074C39.4908 12.7211 37.7155 12.6964 36.852 12.7506C36.4745 12.7498 35.4836 12.7122 35.8586 12.6774C35.6749 12.6878 35.4649 12.6979 35.2537 12.6941C35.1977 12.6517 35.7263 12.682 35.7385 12.6473C35.5711 12.6445 35.5058 12.6361 35.4674 12.6497C35.7491 12.6132 35.175 12.5055 36.4891 12.5081C36.998 12.6074 35.5777 12.5196 35.8781 12.6292C36.314 12.6299 36.2632 12.5875 36.3007 12.5741C36.8562 12.5766 36.8416 12.604 36.8119 12.6292C37.0248 12.5951 37.7235 12.6425 38.0174 12.5908C39.0977 12.5824 37.9587 12.6731 38.6641 12.6718L39.0707 12.5608L40.2437 12.5819C41.942 12.5429 40.001 12.3902 41.942 12.3274C41.687 12.3852 42.4655 12.4826 43.3688 12.5056C42.8283 12.5097 41.8292 12.582 41.1313 12.5491C42.115 12.6361 39.7775 12.5595 40.288 12.659C40.7742 12.612 41.5846 12.6056 42.2168 12.6309L42.0095 12.6411C42.6819 12.6528 43.1907 12.5369 44.1185 12.5813C44.5794 12.5777 44.4931 12.6089 44.412 12.6349C44.8021 12.6186 45.1508 12.5968 45.1521 12.6213ZM44.1477 12.6445L43.5309 12.6335C43.6773 12.6518 43.9073 12.6513 44.1477 12.6445Z" fill="white"/>
<path d="M10.3238 23.1773C10.2827 23.1319 10.2352 23.0797 10.1978 23.0383C10.223 23.0712 10.2716 23.1229 10.3238 23.1773Z" fill="white"/>
<path d="M41.7785 13.7036L41.4214 13.7C41.5608 13.7036 41.6751 13.7041 41.7785 13.7036Z" fill="white"/>
<path d="M33.761 14.0701L33.2393 14.096C33.4452 14.0943 33.6066 14.0841 33.761 14.0701Z" fill="white"/>
<path d="M11.4126 20.9708L11.4008 20.9579C11.3787 20.9387 11.3618 20.924 11.3384 20.9038L11.4126 20.9708Z" fill="white"/>
<path d="M17.6809 13.8105C17.6015 13.8011 17.5122 13.7926 17.3901 13.7859C17.4047 13.797 17.5134 13.8049 17.6809 13.8105Z" fill="white"/>
<path d="M33.8568 14.0651C33.8434 14.0643 33.8359 14.0638 33.8253 14.063C33.805 14.0653 33.7827 14.0676 33.7607 14.0699L33.8568 14.0651Z" fill="white"/>
<path d="M45.3101 14.0272C45.3867 14.0236 45.4564 14.0202 45.5388 14.0161C45.431 14.0183 45.3649 14.0225 45.3101 14.0272Z" fill="white"/>
<path d="M44.8066 13.7127C44.889 13.7099 44.9675 13.7065 45.0287 13.7017L44.8066 13.7127Z" fill="white"/>
<path d="M52.3203 11.0715L51.8394 11.0875C52.0758 11.0858 52.2169 11.0795 52.3203 11.0715Z" fill="white"/>
<path d="M46.079 13.7853C46.107 13.7802 46.135 13.7754 46.1536 13.7703C46.0871 13.7738 46.0555 13.7802 46.079 13.7853Z" fill="white"/>
<path d="M8.39697 20.7827C8.40489 20.7905 8.41334 20.7987 8.41809 20.8032L8.43604 20.8026L8.39697 20.7827Z" fill="white"/>
<path d="M7.45569 20.0698C7.3561 19.9744 7.25233 19.8752 7.15039 19.7776C7.26097 19.8891 7.37154 19.9947 7.45569 20.0698Z" fill="white"/>
<path d="M10.695 13.6323C10.5677 13.6162 10.2688 13.5969 10.4083 13.5786C10.1646 13.6019 10.1808 13.6579 10.695 13.6323Z" fill="white"/>
<path d="M10.5455 21.9496C10.4807 21.9061 10.4052 21.8468 10.3296 21.7871C10.4669 21.9015 10.5867 22.0024 10.5455 21.9496Z" fill="white"/>
<path d="M10.3295 21.7869C10.2613 21.7307 10.1884 21.6706 10.1274 21.6204C10.1973 21.68 10.2655 21.7363 10.3295 21.7869Z" fill="white"/>
<path d="M13.9341 12.7114C13.9658 12.7192 14.0148 12.7252 14.0813 12.7273C14.0618 12.7122 14.0087 12.709 13.9341 12.7114Z" fill="white"/>
<path d="M6.92138 19.5238C6.84915 19.4887 5.50928 18.2304 6.5924 19.3326C6.49203 19.3486 5.86443 18.6586 5.55875 18.3815C5.75674 18.6069 5.41624 18.3136 5.45955 18.3988C5.61109 18.5362 5.79966 18.6912 6.03429 18.9343C6.11752 19.0707 5.73711 18.7262 5.464 18.4334C5.78199 18.8127 4.97551 18.0371 5.44542 18.5541C6.52069 19.5883 7.2874 20.3126 8.11417 20.9694C7.49887 20.3823 6.80898 19.7269 6.33919 19.2104L6.59685 19.3673C7.10995 19.969 7.48709 20.2801 8.03055 20.8328L6.82586 19.5747C6.2909 18.9559 6.68649 19.3321 7.15026 19.7778C7.03903 19.6653 6.94088 19.5611 6.92138 19.5238Z" fill="white"/>
<path d="M8.19299 19.9116L8.17375 19.8896C8.15386 19.8733 8.13031 19.8522 8.1167 19.8428L8.19299 19.9116Z" fill="white"/>
<path d="M52.409 12.5122L52.2593 12.5392C52.3841 12.527 52.4227 12.5186 52.409 12.5122Z" fill="white"/>
<path d="M8.68405 20.8903L8.68311 20.8892C8.69361 20.8986 8.69612 20.9009 8.68405 20.8903Z" fill="white"/>
<path d="M53.3486 12.483C53.3545 12.4809 53.3606 12.4786 53.371 12.4761C53.3558 12.4784 53.3558 12.4808 53.3486 12.483Z" fill="white"/>
<path d="M52.3535 14.0171C52.3605 14.0204 52.3624 14.0235 52.3786 14.0268C52.4582 14.0227 52.4196 14.0194 52.3535 14.0171Z" fill="white"/>
<path d="M53.3461 12.4901C53.3461 12.4875 53.3432 12.485 53.3494 12.4822C53.3461 12.485 53.3383 12.4878 53.3461 12.4901Z" fill="white"/>
<path d="M35.2471 12.7502C35.2471 12.7502 35.3044 12.7625 35.3943 12.7743C35.4292 12.7677 35.3943 12.7599 35.2471 12.7502Z" fill="white"/>
<path d="M38.8198 12.8557C38.8427 12.8585 38.8562 12.8601 38.8855 12.8636L38.8198 12.8557Z" fill="white"/>
<path d="M11.54 13.9526C11.7168 13.9536 11.8494 13.9518 11.9614 13.9488C11.8324 13.9469 11.6929 13.9472 11.54 13.9526Z" fill="white"/>
<path d="M53.3687 12.476C53.4059 12.4684 53.4589 12.4607 53.5466 12.4512C53.45 12.4612 53.399 12.4691 53.3687 12.476Z" fill="white"/>
<path d="M29.7998 13.1096C29.838 13.1069 29.8736 13.1045 29.9097 13.1019C29.8879 13.1006 29.866 13.0994 29.8444 13.0984L29.7998 13.1096Z" fill="white"/>
<path d="M27.9354 13.0575C27.999 13.0495 28.0283 13.0412 28.0639 13.0337C27.3986 13.0634 26.176 13.0311 26.0312 13.107C26.2571 13.105 27.4277 13.1495 27.2282 13.194C27.6921 13.175 28.3777 13.2281 28.6274 13.2157C27.866 13.1744 28.5451 13.1519 29.0593 13.1262C29.5268 13.1482 28.9713 13.1871 29.3739 13.2011L30.4557 13.1927L29.5134 13.1827L29.7997 13.1099C29.7648 13.1125 29.741 13.1142 29.7037 13.1168C28.1093 13.1507 29.5684 13.0101 27.9354 13.0575Z" fill="white"/>
<path d="M28.064 13.0336C28.1638 13.029 28.2514 13.0235 28.3194 13.0156C28.169 13.0169 28.1106 13.0244 28.064 13.0336Z" fill="white"/>
<path d="M21.5508 12.9136C21.469 12.917 21.3802 12.9206 21.2686 12.9252C21.3217 12.923 21.445 12.9179 21.5508 12.9136Z" fill="white"/>
<path d="M40.1948 11.9842C40.2228 12.0056 41.1518 12.0499 41.1352 11.9939C40.8595 11.9881 40.5818 11.9822 40.3028 11.9763L40.1948 11.9842Z" fill="white"/>
<path d="M3.9375 13.2389C4.03329 13.2393 4.12947 13.2399 4.22565 13.2403C4.24227 13.2371 4.25837 13.234 4.2708 13.2316C4.20197 13.2234 4.02387 13.2336 3.9375 13.2389Z" fill="white"/>
<path d="M26.9414 13.2201C27.1117 13.2115 27.1876 13.2027 27.2285 13.1938C27.1182 13.1982 27.0164 13.2054 26.9414 13.2201Z" fill="white"/>
<path d="M3.67133 13.1058C3.50945 13.0898 3.25585 13.0654 3.18322 13.0439C2.96469 13.0437 2.82781 13.0591 2.66895 13.0717C2.72639 13.124 2.78685 13.179 2.85267 13.2389C2.80033 13.1879 2.74615 13.1354 2.6891 13.0801C2.96194 13.0785 3.2955 13.0861 3.67133 13.1058Z" fill="white"/>
<path d="M2.87452 13.2589C2.86701 13.252 2.85965 13.2452 2.85303 13.239C2.86039 13.2459 2.86701 13.2521 2.87452 13.2589Z" fill="white"/>
<path d="M39.6419 11.9603C39.5621 11.9641 39.4798 11.9681 39.395 11.9721L39.5234 11.9572C39.3097 11.9516 39.0973 11.9459 38.8844 11.9402C38.8073 11.9428 38.7237 11.9457 38.6212 11.9491C38.6624 11.9471 38.6946 11.9411 38.7144 11.9351C38.6452 11.9329 38.5774 11.9308 38.5097 11.9285C38.0008 11.9865 36.7346 12.0289 36.3693 12.0629C35.886 12.0877 35.2944 12.1018 34.9234 12.0974C35.2672 12.0985 35.7237 12.0869 35.5867 12.0548C34.8885 12.0215 34.549 11.9253 33.3439 12.008L34.0507 12.0067L32.4615 12.1311C31.9049 12.0796 33.2547 12.0691 33.4752 12.0242C32.2393 12.0856 31.2114 11.9217 30.6385 12.0294C30.5578 11.9656 30.4225 11.8589 29.6114 11.8653C30.1961 11.9382 29.1252 11.9122 29.6049 11.9902C29.3246 12.0267 28.7003 11.9671 28.6535 12.0149L28.7294 11.9885C27.3447 11.8873 26.8914 12.0458 26.299 12.098C24.641 12.124 23.8795 12.0827 22.5274 12.0934C22.4742 12.0506 22.106 11.9329 21.5636 11.9374C21.3114 11.9953 20.0876 12.0221 19.9628 12.0964C20.9327 12.1273 20.7563 12.0341 21.3369 12.0169C21.8203 12.0947 21.3808 12.0938 22.0408 12.1403C21.508 12.11 19.6335 12.1808 19.05 12.1078L19.256 12.0976C18.3245 12.0533 18.1466 11.8698 16.5948 11.9808L15.8544 12.0263C15.89 12.0188 15.8941 12.0102 15.9132 12.0035C14.7012 11.9958 15.0321 11.9114 13.6941 11.978C13.7975 11.9729 13.7326 11.9647 13.8376 11.9597C13.0749 11.9181 12.3057 12.0017 11.7291 12.0192C11.3772 11.9573 11.8127 11.9584 12.0303 11.9135C10.6886 11.8895 9.24068 11.9957 8.40737 12.0712L7.54252 12.0349C8.05536 12.0094 8.6823 11.9441 8.52579 11.9068C8.05025 11.9192 8.14225 11.9484 7.46963 11.9367C7.58426 11.897 7.86653 11.8602 8.18281 11.8104C6.79165 11.7442 7.87189 11.9507 6.8983 11.8293C6.46123 11.8286 6.20736 11.8864 6.15946 11.9342L5.36541 11.8716C5.27786 11.9325 4.20966 11.936 3.49543 11.9452C3.43013 11.9582 3.54463 11.9745 3.72182 11.9845C3.89808 11.9946 4.13533 11.9983 4.28399 11.9866C4.23465 12.0106 4.00578 12.0281 3.71645 12.0396C3.42791 12.051 3.08178 12.0565 2.82085 12.056C2.83485 12.0293 2.69758 12.0146 2.4797 12.0067C2.82569 11.682 3.28305 11.2118 3.64945 10.8482C4.01664 10.4839 4.26554 10.2535 4.17066 10.4324C4.86592 9.71597 5.70198 8.85478 6.47889 8.05432C7.24612 7.26576 7.95315 6.5353 8.39376 6.05701C8.72169 5.77894 9.34052 5.16259 9.01285 5.57506C10.1339 4.45464 10.6193 3.78398 11.7565 2.69615C11.8598 2.61541 11.2545 3.19996 11.3241 3.19041C11.4968 2.99961 11.6683 2.82387 11.8454 2.64969C11.8899 2.60625 11.9347 2.5628 11.9796 2.5191C12.0241 2.47735 12.0505 2.44726 12.0789 2.40355C12.1321 2.32071 12.1628 2.21877 12.1598 2.11186C12.1574 2.00573 12.1202 1.89346 12.0479 1.80343C11.973 1.70908 11.8648 1.63867 11.7346 1.61433C11.606 1.5896 11.4581 1.61447 11.3374 1.69874C11.3067 1.7202 11.2822 1.7414 11.2508 1.77333C11.2188 1.80591 11.1863 1.83902 11.1535 1.87265C11.088 1.9403 11.0208 2.00979 10.9514 2.0815C11.1396 1.89006 11.1762 1.81612 11.1932 1.78039C11.228 1.77555 10.7622 2.2736 10.4848 2.57995C10.3129 2.73619 10.6923 2.35068 10.5888 2.43116C8.36562 4.56665 6.82802 6.34974 4.65641 8.51324C5.27669 7.89545 5.45086 7.60168 5.43293 7.57053L4.82535 8.17576C4.62161 8.43931 4.16621 8.89457 3.80779 9.29761C3.74982 9.33308 3.55248 9.50633 3.72731 9.30324C3.09814 9.87195 2.65767 10.367 2.1871 10.8995C1.95181 11.1658 1.70894 11.4414 1.43139 11.7402C1.29254 11.8897 1.14507 12.0449 0.985286 12.2077L0.955188 12.2383L0.947598 12.246L0.946682 12.2469C0.941579 12.2561 0.908079 12.1182 0.966311 12.2061C0.984239 12.2181 0.971284 12.2095 0.97521 12.2122L0.975079 12.2124L0.973378 12.2151L0.963432 12.2312L0.922735 12.299L0.905592 12.3307L0.89905 12.3434L0.897872 12.3461L0.897348 12.3473C0.896956 12.3472 0.898264 12.3478 0.896301 12.3472L0.879159 12.3405C0.892376 12.335 0.825507 12.3435 0.904415 12.3266L0.903891 12.3283C0.895254 12.3562 0.886487 12.3843 0.877719 12.4127C0.862932 12.4674 0.856782 12.5635 0.89303 12.653C0.89303 12.653 0.888842 12.642 0.881122 12.6216C0.876672 12.611 0.870391 12.5955 0.862147 12.5758C0.859399 12.5643 0.856389 12.5516 0.852987 12.5377C0.85037 12.525 0.848145 12.5076 0.846706 12.4962C0.84592 12.4652 0.844612 12.4656 0.845528 12.4428C0.845528 12.4337 0.846837 12.4241 0.84736 12.4143C0.848407 12.4051 0.84736 12.4077 0.851155 12.3905C0.854295 12.3769 0.857567 12.3629 0.860839 12.3486L0.866465 12.3249L0.868297 12.3177L0.86869 12.3159C0.855997 12.3521 0.865288 12.3258 0.862409 12.3338V12.3336L0.862671 12.3326L0.863717 12.3286C0.869475 12.3117 0.883085 12.2813 0.895516 12.2569L0.918024 12.2133L0.929278 12.1918C0.928362 12.1866 0.939093 12.1891 0.927054 12.1799C0.901798 12.1536 0.913313 12.2515 0.910827 12.2112L0.911351 12.2105L0.912397 12.2094L0.914622 12.2069L0.919071 12.2018C0.942364 12.1749 0.966311 12.1477 0.99052 12.1199C1.08762 12.0086 1.19113 11.8901 1.29477 11.7714C1.70907 11.2969 2.12337 10.8223 2.12337 10.8223L1.64155 11.2202L2.36834 10.3837C1.86846 10.8174 1.53895 11.2999 1.4374 11.3108C1.52338 11.1994 1.76508 10.9657 1.74806 10.9339C1.28221 11.3643 1.28077 11.4334 0.952571 11.779C1.74807 10.7991 3.4898 9.06023 4.40399 8.10104C4.54414 7.94649 4.30008 8.24943 4.28333 8.28489C4.66243 7.89964 4.92062 7.6989 5.38569 7.2019C5.64545 6.86415 5.12908 7.4012 4.88791 7.63426C4.88673 7.56765 5.0079 7.4504 5.26687 7.18136C5.36947 7.16919 6.7325 5.74766 7.12795 5.46252C8.52462 4.03733 6.78536 5.57126 8.18242 4.21346L8.64553 3.85373C9.02542 3.43393 9.46497 2.95669 9.92416 2.47264C10.1537 2.23055 10.3882 1.98689 10.6224 1.74768L10.798 1.56932L10.8857 1.48099C10.9157 1.45168 10.937 1.42668 10.9952 1.37643C11.1928 1.2088 11.4459 1.12963 11.6905 1.14337C11.6905 1.14337 11.587 1.13801 11.4853 1.15606C11.3831 1.17164 11.2868 1.21037 11.2868 1.21037C11.1665 1.27907 11.2151 1.27031 11.3113 1.24283C11.4086 1.21521 11.5641 1.19899 11.6574 1.21142C11.8293 1.21744 11.9966 1.2703 12.1371 1.36021C12.2063 1.40313 12.274 1.46214 12.3229 1.51475C12.3847 1.58136 12.4272 1.64339 12.4668 1.71588C12.6201 2.00168 12.6077 2.34702 12.4634 2.60677C12.428 2.67194 12.3852 2.73201 12.3371 2.78513C12.2998 2.82387 12.2631 2.86195 12.2272 2.8995C12.159 2.96768 12.093 3.03364 12.0298 3.09697C11.9016 3.22181 11.7796 3.33213 11.6631 3.42268C10.9382 4.25743 9.67867 5.59835 8.81539 6.51842C8.50669 6.69076 9.92076 5.29737 10.2492 4.88386L9.43775 5.69584C9.93868 5.19321 10.1109 4.96918 10.3729 4.6296C9.64883 5.32826 9.47453 5.6219 8.81748 6.3135C8.8515 6.24257 8.74996 6.32122 8.43838 6.63175L8.39533 6.76535C8.38591 6.76745 8.34809 6.79833 8.24903 6.8915L7.07679 8.11896C7.35081 7.88381 7.4025 7.91076 7.7129 7.60141C7.57589 7.68569 7.83355 7.41756 8.14447 7.10794C7.90225 7.40931 8.47188 6.83039 8.48968 6.8614C7.86666 7.48207 7.10859 8.25218 6.71326 8.67237L6.53909 8.76318C6.23746 9.05421 5.93609 9.36199 5.65827 9.64583C5.51904 9.78742 5.38569 9.92286 5.26216 10.0484C5.19974 10.1104 5.13981 10.1699 5.08288 10.2266C5.0541 10.2545 5.02609 10.2818 4.99887 10.3082C4.98134 10.3245 4.96446 10.3402 4.9481 10.3552C4.9481 10.3552 4.96184 10.3305 4.97558 10.3056C4.99325 10.277 5.02557 10.2335 5.02374 10.2355C4.5427 10.6932 4.21712 11.0619 3.73778 11.4858C3.779 11.49 3.81944 11.4941 3.85948 11.4983C4.18833 11.4684 4.55932 11.4348 4.91539 11.4025C5.25104 11.3712 5.39315 11.3397 5.85064 11.3043C6.24269 11.2282 8.48261 11.3997 9.49376 11.2927C9.56194 11.3009 8.79916 11.35 8.45421 11.3787C9.12683 11.3904 9.66165 11.2958 9.87247 11.3759C8.36287 11.349 9.9536 11.4398 9.27353 11.4626C9.9803 11.4611 10.7255 11.4466 11.0722 11.4181C9.92834 11.4187 11.4785 11.3074 10.3204 11.3423C11.2177 11.2749 12.4423 11.2481 13.5115 11.2741C13.5009 11.3087 13.6327 11.3248 14.0313 11.339L14.3528 11.2889C14.8532 11.2979 13.3854 11.3482 14.3926 11.366C15.429 11.2803 17.5136 11.4147 17.9673 11.2562C18.7572 11.3187 16.4642 11.3195 17.6547 11.3962C16.9622 11.4535 16.0069 11.388 15.7785 11.467C16.4573 11.4445 16.0264 11.5339 16.4642 11.5347L17.2213 11.4858L17.0538 11.4828C18.3242 11.4081 20.3369 11.444 21.9592 11.4313C23.3333 11.3516 24.2792 11.2364 25.9275 11.2451C25.4409 11.2918 27.2964 11.2901 26.2588 11.3758C27.0215 11.417 27.7746 11.3682 27.7895 11.3337C27.1184 11.3217 27.5535 11.3225 26.9882 11.3055C27.3698 11.2636 28.2492 11.2655 28.6105 11.2928C28.4431 11.2898 28.5067 11.2978 28.4698 11.311C29.2711 11.3392 28.8539 11.2694 29.4328 11.2519C29.6164 11.3105 30.7113 11.2676 31.24 11.2979L32.0067 11.2143C31.5854 11.2693 32.7414 11.2343 32.8622 11.285C33.4121 11.2462 33.8731 11.1782 34.7104 11.193C34.3645 11.2216 35.4743 11.2343 35.4888 11.2901C36.9227 11.3435 37.8634 11.138 39.2212 11.2178C39.1791 11.2309 38.9049 11.2676 39.3018 11.2816C39.6146 11.266 40.1618 11.2725 40.4964 11.2665L40.4858 11.2681C40.4924 11.2676 40.4964 11.2672 40.5034 11.2665C40.6672 11.2635 40.7701 11.2566 40.7741 11.2431C41.3466 11.1885 41.6418 11.1327 42.7687 11.0865C42.6858 11.0226 41.7348 11.0473 41.3227 11.0679L40.9666 11.1308C40.6264 11.0345 39.9505 11.1476 39.6914 11.1151C40.3674 11.0022 42.3141 11.0299 43.4819 10.9604C42.7699 10.8715 41.221 10.8576 39.8695 10.8683L40.4648 10.9065L39.7577 10.9077L40.4421 10.9756C39.7723 10.9637 39.1932 10.9811 38.5879 10.9773C39.2966 10.976 39.5727 11.0641 39.1717 11.0502C38.3819 10.9875 38.3486 11.0912 37.7449 11.0872C38.081 11.093 38.5181 11.0942 38.2364 11.1307C37.0458 11.054 36.7243 11.104 35.6418 11.0221C35.7759 11.1285 34.2891 11.0327 34.127 11.12L34.6294 11.1289L33.5636 11.1932C32.5804 11.1065 34.4342 11.1049 32.9381 11.0435C31.5574 11.0328 31.5932 11.1446 30.5077 11.1529C30.8653 11.0899 31.7262 11.0357 32.602 11.0375L32.0716 11.0072C32.3523 10.9706 33.5636 10.9782 34.1682 10.982C33.1691 11.0544 34.6358 11.0043 35.0902 11.0609C35.1739 10.9998 34.5323 11.0094 35.2897 10.9604C34.5802 10.9616 34.4764 10.9667 33.5738 10.9437C35.525 10.9714 35.3283 10.732 37.0313 10.7831C36.2463 10.8107 37.305 10.8712 37.3994 10.9008C37.7688 10.8934 38.5181 10.8789 38.8263 10.8636L38.5473 10.7754C39.5395 10.7373 39.8841 10.9241 41.0292 10.8331C41.178 10.7804 40.0219 10.8152 40.2279 10.805C41.7947 10.7496 42.3591 10.8916 43.7503 10.958C43.829 10.9315 43.8128 10.8756 44.2992 10.8291C44.1464 10.8819 44.5065 10.909 43.959 10.9478C44.4242 10.9701 44.9752 10.9313 45.3855 10.9107C44.4172 10.8797 45.7816 10.8347 45.9601 10.803C46.4617 10.8119 45.8071 10.8558 45.4987 10.8712C45.9013 10.8853 46.3797 10.9633 46.6084 10.8842C46.6242 10.9399 45.4827 11.0307 44.7363 11.0451L45.2394 11.054C44.8929 11.0825 44.8279 11.0744 44.3284 11.0658C44.8173 11.109 44.7691 11.1566 44.6551 11.1964C44.5912 11.1883 44.6907 11.1832 44.6296 11.1752C44.2275 11.1611 43.9188 11.1762 44.0121 11.2058C43.6504 11.2807 44.5701 11.2525 44.8425 11.2899C45.0485 11.2848 45.2545 11.2799 45.4564 11.275L47.5462 11.0346C48.4391 11.0066 48.8406 11.0642 49.5112 11.1005L49.6952 11.0362C50.4722 11.0429 51.2052 11.0632 50.7073 11.1446C50.6793 11.1231 50.5767 11.1282 50.408 11.1252C50.3857 11.1338 50.3467 11.1401 50.2977 11.1451C50.2814 11.1489 50.2727 11.1527 50.2592 11.1563C51.0912 11.1345 51.6106 11.1209 51.6585 11.1197C50.2457 11.213 51.5879 11.2364 51.3515 11.3504L52.7782 11.3132C51.9134 11.2771 52.7625 11.2575 53.0694 11.2421C53.0906 11.2581 53.173 11.2661 53.2925 11.2693C53.3523 11.2697 53.4213 11.2701 53.4968 11.2706C53.5766 11.2698 53.6631 11.2689 53.7531 11.2678C53.8454 11.2704 53.9237 11.281 54.0045 11.2995C54.0853 11.3182 54.1651 11.3452 54.2414 11.3801C54.3941 11.4497 54.5315 11.5515 54.641 11.6719C54.8645 11.9123 54.9594 12.2286 54.9599 12.4651L54.9429 12.3962C54.9446 12.4235 54.9454 12.4513 54.9451 12.4797L54.9449 12.5156L54.9441 12.5271L54.9424 12.5525C54.9374 12.6316 54.9287 12.685 54.9152 12.749C54.8872 12.8733 54.8391 13.0022 54.766 13.1228C54.6224 13.3645 54.3777 13.5734 54.0775 13.667C54.0031 13.6907 53.9259 13.7072 53.848 13.7161C53.8092 13.7205 53.77 13.7234 53.731 13.7241L53.6584 13.725C53.5745 13.7262 53.4909 13.7273 53.4085 13.7282C53.2438 13.7319 53.0847 13.7357 52.9404 13.7389C52.9667 13.7603 52.2255 13.8651 51.8694 13.9282C52.8608 13.9523 52.2725 13.9781 52.352 14.0177C52.2494 14.0142 52.0651 14.0134 52.0435 14.0215C51.9016 14.0398 52.2362 14.0458 52.2641 14.067C52.5276 14.0604 52.793 14.0536 53.0495 14.0472C53.1778 14.0438 53.3038 14.0404 53.4264 14.0372C53.4878 14.0352 53.5481 14.0335 53.6075 14.0317C53.6372 14.0307 53.6665 14.0296 53.6957 14.0288L53.7766 14.0258C53.8099 14.0237 53.8432 14.0207 53.8762 14.0167C54.1406 13.9841 54.3836 13.8806 54.5744 13.74C54.7665 13.5996 54.9095 13.4237 55.0047 13.2435C55.1005 13.0632 55.1482 12.8791 55.1634 12.7163C55.1649 12.6959 55.1662 12.6757 55.1676 12.656C55.1684 12.6315 55.1692 12.6074 55.1698 12.5836C55.1698 12.5737 55.1702 12.5548 55.1696 12.5523L55.1681 12.5398L55.1666 12.5275L55.1658 12.5215L55.1659 12.4999L55.1658 12.4982L55.1655 12.4949L55.1649 12.4884C55.1592 12.4183 55.1484 12.354 55.1346 12.2963C55.1425 12.3817 55.1427 12.4778 55.1384 12.544L55.1342 12.6039C55.1321 12.6309 55.1295 12.6552 55.127 12.6731C55.1222 12.7132 55.1153 12.7524 55.1079 12.7914C55.0765 12.9469 55.0254 13.0942 54.9502 13.2324C54.8012 13.5043 54.5539 13.7604 54.1638 13.8785C54.4349 13.7737 54.6915 13.584 54.8721 13.3129C54.9622 13.1779 55.0331 13.0223 55.0746 12.8533C55.0846 12.8112 55.0933 12.7683 55.0997 12.7248C55.1058 12.6815 55.1109 12.6403 55.1138 12.5794L55.1151 12.5318L55.1154 12.4928L55.1143 12.4592C55.1128 12.4143 55.1091 12.3689 55.1028 12.3232C55.0565 11.9575 54.8514 11.5849 54.5083 11.3482C54.3381 11.2294 54.1328 11.1448 53.9132 11.1126C53.8836 11.1088 53.8632 11.1053 53.8246 11.1026L53.7719 11.0992L53.7467 11.0982C53.7143 11.098 53.6816 11.0976 53.6486 11.0973C53.5955 11.0972 53.5415 11.0971 53.4868 11.0969L53.1999 11.0431L52.3188 11.0722C52.6866 11.0438 52.4652 10.9877 53.3897 10.9769C53.2718 10.9263 52.4729 10.9884 51.907 10.9714L51.6174 11.0426C51.729 11.003 50.5174 10.9953 51.3782 10.9411L52.7786 10.8828L52.3893 10.8342L53.5733 10.8206L53.294 10.8575C53.4128 10.855 53.519 10.8529 53.6142 10.8509C53.638 10.8507 53.661 10.8504 53.6834 10.8501C53.7032 10.8501 53.7227 10.8503 53.7418 10.8503L53.7842 10.8513C53.8178 10.8529 53.8543 10.8554 53.8841 10.8585C53.9097 10.8618 53.935 10.8649 53.9598 10.8681C54.0094 10.8759 54.0573 10.8852 54.1032 10.8966C54.4726 10.9899 54.7034 11.171 54.8534 11.3204C55.0036 11.4743 55.0799 11.6078 55.132 11.7146C55.183 11.8225 55.2082 11.9073 55.2288 11.9923C55.2486 12.0775 55.2642 12.1636 55.2746 12.2802C55.2795 12.3384 55.2832 12.4043 55.2817 12.4808L55.2815 12.4952L55.2811 12.5246L55.2808 12.5277L55.2796 12.5404C55.2784 12.5557 55.2773 12.5716 55.2762 12.5881C55.2741 12.615 55.2712 12.6504 55.268 12.6733C55.2646 12.6971 55.2608 12.7217 55.257 12.7473C55.2209 12.9494 55.1416 13.2196 54.9157 13.5004C54.8024 13.6389 54.651 13.7782 54.4485 13.8897C54.2495 14.0008 53.9862 14.0822 53.7075 14.0862C53.1081 14.1724 52.4639 14.1817 51.2904 14.1606C52.1394 14.1415 51.3775 14.0998 51.6971 14.0499C50.8309 14.0139 50.5386 14.085 50.0893 14.1186C49.8687 14.0729 49.7118 14.0358 50.4855 14.0424C50.5823 13.9469 49.4678 14.0588 49.3972 13.9607C46.8342 13.9634 47.3435 14.2781 44.3474 14.1551L44.4596 14.1155C42.5572 14.1648 41.4596 14.1176 39.6978 14.1487L38.3106 14.0479C38.6207 14.0324 39.4548 13.9571 39.0656 13.9084C39.7403 14.0104 40.4564 13.9749 41.1834 14.0296C41.2576 14.0031 40.9618 13.9838 40.8327 13.9675C41.2715 13.9685 41.4916 14.0142 42.0711 13.9965C42.0431 13.9754 41.4109 13.9502 41.8873 13.9379L42.6756 14.0006C43.7302 13.9706 43.195 13.8505 44.4337 13.8791C44.2034 13.9351 43.7331 14.0161 43.2534 14.0296C43.8194 14.0417 42.4987 14.0634 43.0154 14.0969C43.8307 14.014 44.2245 14.0797 45.3087 14.0278C45.1813 14.0394 45.1478 14.0555 44.8809 14.0606L46.4541 14.0957C46.0648 14.0473 47.7536 14.0426 47.6073 13.9705C45.9306 13.9405 46.4233 13.9841 44.5128 13.9431C45.0537 13.9268 45.7511 13.8534 46.0779 13.786C46.0945 13.7887 46.1221 13.7911 46.1808 13.7924C46.4728 13.7211 46.1752 13.7019 46.1808 13.5771C45.3087 13.6658 44.7257 13.5929 43.697 13.644C43.5036 13.7123 44.294 13.731 44.8052 13.7133L43.8989 13.7586L44.0773 13.7272L41.777 13.7044C42.2129 13.7008 42.3609 13.6611 42.5884 13.6313C42.2916 13.6285 41.9975 13.6106 41.685 13.5906C41.7507 13.6558 41.7094 13.7018 41.4199 13.7006C39.9399 13.6852 39.1172 13.6267 38.571 13.5521C38.5142 13.5537 38.4502 13.5553 38.3988 13.5567C38.6469 13.6236 37.3478 13.6767 36.8892 13.7449C36.9119 13.6759 36.1265 13.7035 35.6999 13.6682C35.4729 13.7474 35.7757 13.8568 36.2952 13.9218C37.2957 13.8492 36.8559 13.8486 37.3286 13.7458L38.934 13.6772L38.5752 13.7406C39.3764 13.7684 40.146 13.6848 40.0872 13.7671C39.6639 13.8219 38.9649 13.7886 38.5448 13.8437L39.0748 13.8736C38.1397 13.9545 38.5956 13.7959 37.4635 13.8522C37.8799 13.9222 37.3609 13.8573 36.8759 13.904C37.2653 13.9528 38.8692 13.8841 38.5291 14.0029C37.9404 14.0547 36.5484 13.8637 35.7694 13.9819L35.8076 13.9684C34.6585 13.9531 34.2546 14.0207 33.8244 14.0635C33.3354 14.0252 32.6603 14.0793 32.1305 14.0835L32.1434 14.0489L31.3957 14.0634C31.7518 14.0003 32.2719 14.065 32.9142 14.0558L32.8344 13.9915C33.5746 14.0678 34.0686 13.9519 34.6427 13.8967C33.807 13.9522 32.2829 13.8808 32.0866 14.0063L31.5696 13.9417L31.3223 13.965C30.9372 13.9164 31.3304 13.84 32.0773 13.8255C32.207 13.8418 32.2719 13.8498 32.2327 13.8633C32.5793 13.8345 32.8977 13.7846 33.7365 13.7994L33.289 13.8335C34.3334 13.838 35.283 13.8133 35.6406 13.7501C34.1327 13.7234 32.65 13.7177 31.234 13.7207C30.8164 13.8657 30.3208 13.947 30.108 14.0821C29.158 14.1068 27.8682 14.1255 27.043 14.0762L27.1189 14.0496C26.7163 14.0359 26.3453 14.043 26.036 14.0583C25.6107 14.0229 26.3271 13.987 26.0307 13.9679L24.6699 14.0131C24.7539 13.952 25.8989 13.9518 26.4427 13.9474C26.3401 13.9527 26.1329 13.9627 26.1994 13.971C26.8318 13.9961 28.0101 13.8922 28.2867 13.9804C28.5949 13.9651 27.6607 14.0456 28.7039 14.0502C29.4026 14.0835 29.63 14.0041 29.703 13.9778C29.7144 13.943 28.6067 13.9303 28.9912 13.8886C28.4474 13.8929 28.2309 13.9376 27.5355 13.9041C28.0744 13.9001 28.8062 13.8298 29.0932 13.8836C30.1589 13.8191 30.0061 13.6568 29.5036 13.6478C29.6232 13.6987 27.5598 13.7105 28.957 13.7768C28.3294 13.8422 27.1827 13.8428 26.3617 13.8834L26.399 13.8702L25.3796 13.8866C25.5231 13.8684 25.8313 13.8531 25.8414 13.8185L24.4295 13.9113C25.2242 13.8489 23.9368 13.8681 23.5751 13.8405C23.4239 13.8934 22.8724 13.9323 23.4016 13.9625C23.9965 14.001 23.7479 13.9338 24.2889 13.9298L23.5229 14.0134L23.4572 14.0052L22.9962 14.0733C21.9529 14.0685 23.4519 13.9146 22.1151 13.9815L22.2892 14.0745C20.7415 14.0609 18.7538 13.9561 17.6603 13.999C17.9619 13.9461 18.0949 13.8609 17.6802 13.8107C18.1518 13.8267 19.0994 13.8234 19.7756 13.8145C19.9058 13.831 18.9306 13.9247 18.1959 13.9045C18.5518 14.0568 20.044 13.8125 20.1304 13.9669C22.0025 14.0209 21.5268 13.8182 23.116 13.909C23.1378 13.84 23.5677 13.8752 23.6512 13.8144C23.1809 13.7019 21.5269 13.8182 20.4958 13.7789C20.5967 13.7741 20.7999 13.7636 20.8395 13.7505C20.1024 13.7303 19.7979 13.7457 19.283 13.7712L19.3479 13.7794C18.4482 13.8469 18.7912 13.728 18.2616 13.6976C18.0564 13.7078 17.3201 13.6879 17.4385 13.7386L16.4796 13.6732L16.5258 13.7501C15.9849 13.7547 15.8665 13.7038 15.3763 13.7506L15.3535 13.8196L16.6969 13.8435C16.0161 13.8662 16.5072 13.9096 15.759 13.9239C16.5947 13.8485 15.1678 13.8858 15.0856 13.8218L14.5354 13.8605L14.6761 13.8422C14.2442 13.8068 14.1619 13.8679 13.658 13.8588C14.2523 13.8973 14.6416 13.9456 15.3991 13.8968C14.8476 13.9354 13.754 13.9783 13.4856 13.9807C12.9066 14.0096 12.5023 13.9571 11.9607 13.9493C13.0003 13.9217 11.5965 13.7404 13.68 13.7899C13.6415 13.8031 13.4728 13.8001 13.4074 13.7921C13.6852 13.88 14.6563 13.7865 15.108 13.7529C14.9917 13.7021 15.464 13.6896 14.6632 13.6615C14.926 13.694 13.9885 13.7746 13.2267 13.7331L13.3609 13.6245L12.2515 13.6117L12.3553 13.6066C11.9381 13.5368 11.1718 13.6202 10.4078 13.5789C9.85637 13.6178 7.74064 13.5869 8.6509 13.7005C7.96519 13.6326 7.3635 13.7191 6.61538 13.7336L7.54788 13.778C6.44539 13.8556 6.76286 13.8055 5.8806 13.9289C5.79136 13.8992 5.59468 13.8749 5.77395 13.8437C5.63092 13.8425 5.47873 13.8412 5.32144 13.84C5.23285 13.8386 5.14151 13.8373 5.04939 13.8358C4.86435 13.8335 4.67343 13.8328 4.51535 13.8374C4.69672 14.0099 4.87128 14.1614 4.99809 14.237C5.05331 14.294 5.08773 14.3408 5.11966 14.3896C5.13601 14.4154 5.15132 14.4397 5.1665 14.4638L5.17854 14.4832L5.18469 14.493L5.18783 14.498L5.1983 14.5103C5.22657 14.5431 5.25497 14.5764 5.28389 14.6101C5.51603 14.8794 5.79018 15.1811 6.32592 15.6813C6.55492 15.8887 6.22764 15.4395 6.89136 16.1476C6.9318 16.1994 6.17425 15.5441 6.9441 16.3019C7.54697 16.7867 8.18909 17.6122 8.94782 18.2684C9.30009 18.6633 9.95648 19.3035 9.77472 19.2152C9.19357 18.6127 8.34639 17.7849 8.19629 17.6798C8.30621 17.7333 7.80267 17.2316 8.26041 17.6461C7.40119 16.7163 7.65087 17.0943 6.87252 16.2677C6.79858 16.2312 7.23343 16.732 7.42213 16.8873C7.36219 16.9549 5.80889 15.3359 6.44579 16.1256C7.29781 16.9887 7.68542 17.1103 8.36144 17.9206C8.02473 17.6616 7.59172 17.1628 7.14628 16.8513L7.73135 17.4876L8.22063 17.8847L8.18491 17.8677C9.20509 19.0048 9.2484 18.7998 10.2454 19.733C9.73062 19.1296 10.4853 19.7517 10.0918 19.3039C10.7453 19.9412 11.2108 20.4237 11.1514 20.4917C9.89197 19.3365 11.0153 20.4907 9.83557 19.4382C9.99587 19.6441 9.47636 19.2657 10.1346 19.9379C10.9295 20.6418 9.96355 19.6605 10.732 20.387C10.7704 20.4369 10.8106 20.4884 10.7751 20.4717C11.152 20.7822 11.1643 20.8847 11.617 21.2642L11.5055 21.1783C11.7426 21.4541 11.8939 21.5835 12.0357 21.7044C12.1066 21.7647 12.1752 21.823 12.2511 21.8965C12.289 21.9331 12.3287 21.9737 12.3715 22.02C12.3949 22.0462 12.4194 22.0737 12.4453 22.1029L12.4721 22.1353C12.4832 22.1491 12.4958 22.1648 12.5037 22.1764C12.5218 22.2015 12.5389 22.2284 12.5555 22.2565C12.5099 22.1611 12.5097 22.1477 12.5534 22.1879C12.5945 22.229 12.6733 22.3315 12.731 22.4839C12.7896 22.6352 12.8211 22.8357 12.7948 23.036C12.771 23.2364 12.6884 23.432 12.5886 23.5771C12.7679 23.3509 12.8533 23.0923 12.8612 22.8324C12.8669 22.5716 12.7985 22.2997 12.6057 22.047L12.5649 21.9973L12.5552 21.9852L12.5504 21.9792L12.5479 21.9762L12.5347 21.9624C12.5211 21.9466 12.5075 21.9306 12.4935 21.9144C12.4652 21.8821 12.436 21.8486 12.4056 21.8137C12.3437 21.7452 12.2771 21.6713 12.2041 21.5904C12.0564 21.4304 11.8792 21.2461 11.6575 21.0263C11.5133 20.9572 11.5572 21.0424 11.1764 20.6978L11.7549 21.2673C11.6248 21.1497 11.5208 21.0649 11.3999 20.9589L10.8679 20.3882C11.5937 21.0604 11.3132 20.6999 11.6491 20.958C12.2724 21.6141 12.1872 21.4755 12.5773 21.89C12.5714 21.891 12.5707 21.8969 12.5746 21.9075C12.5756 21.9102 12.5769 21.9131 12.5784 21.9163L12.5796 21.9189L12.5802 21.9202L12.5803 21.9204L12.5921 21.9326L12.5922 21.9329L12.5925 21.9335L12.5954 21.939C12.6009 21.9482 12.6017 21.9521 12.6141 21.9689C12.6305 21.9905 12.6543 22.0207 12.6692 22.0437C12.6854 22.0677 12.7024 22.0942 12.7198 22.1237C12.7546 22.1824 12.791 22.2528 12.8227 22.3346C12.8863 22.4977 12.9297 22.7089 12.9058 22.9421C12.8837 23.1737 12.7889 23.4289 12.6107 23.6365C12.5885 23.6622 12.5656 23.6877 12.5411 23.7115L12.5228 23.7296L12.5059 23.7457L12.5006 23.7501L12.475 23.7724L12.4255 23.8134L12.383 23.8449C12.3542 23.865 12.3246 23.8848 12.2939 23.9024C12.1713 23.9748 12.0339 24.0266 11.8911 24.0523C11.6061 24.1047 11.2998 24.0512 11.0511 23.9005C10.989 23.8632 10.9306 23.8204 10.8771 23.7733C10.8502 23.7499 10.825 23.7251 10.8005 23.6997L10.7617 23.6575C10.7094 23.6005 10.658 23.5445 10.6076 23.4896C10.5071 23.3797 10.4112 23.2746 10.3233 23.1784C10.437 23.2935 10.5837 23.4421 10.6629 23.5223C10.734 23.5848 10.7825 23.6253 10.8126 23.648C10.8383 23.667 10.868 23.6885 10.8598 23.6745C10.8492 23.6586 10.8355 23.639 10.811 23.6093C10.7857 23.5801 10.7522 23.5417 10.7147 23.4985C10.5624 23.3281 10.3382 23.0908 10.3357 23.0734L9.9184 22.711C9.99561 22.7804 10.1098 22.8692 9.95138 22.6951C9.41328 22.1776 9.3896 22.2626 8.85229 21.746C8.843 21.6763 9.33451 22.0759 9.02267 21.7323C8.93604 21.593 8.64645 21.1628 7.91952 20.4895C7.85841 20.4514 7.67037 20.2765 7.45497 20.071C7.48586 20.0986 7.52367 20.1341 7.53911 20.1452L7.10702 19.647C7.55482 19.9917 7.88406 20.4729 8.33409 20.8191L8.41692 20.8039C8.72706 21.1137 9.16923 21.5135 9.38803 21.6815C8.92387 21.2007 8.81146 21.1141 8.27297 20.5959C8.22992 20.4908 8.62512 20.8399 8.68217 20.8902L8.57539 20.8393C9.16491 21.5102 9.56456 21.7345 10.3399 22.5279C10.4564 22.6484 10.3805 22.5797 10.3449 22.5627C10.5155 22.7095 10.6783 22.8628 10.8373 23.0185L11.0732 23.2538C11.149 23.3308 11.2292 23.42 11.3352 23.4705C11.5412 23.5783 11.8037 23.569 11.9978 23.4434C12.1939 23.3218 12.3108 23.0906 12.2906 22.873C12.2906 22.873 12.2989 22.9438 12.29 23.0166C12.2821 23.0893 12.2566 23.1603 12.2566 23.1603C12.3199 23.0203 12.343 22.8143 12.2544 22.6199C12.2114 22.522 12.1399 22.4372 12.0489 22.3624C11.9611 22.284 11.8691 22.2018 11.7739 22.1169C11.3927 21.7768 10.9585 21.3895 10.5244 21.0025L10.4986 21.015C10.5783 21.1176 10.2708 20.8088 10.1131 20.6357L10.1143 20.6362C9.68037 20.2466 9.26332 19.8722 8.9223 19.566C9.01403 19.6813 9.13651 19.8237 9.28583 19.9784C9.43697 20.0847 10.1733 20.8576 10.1206 20.7032C10.4386 21.0826 11.0443 21.6001 11.2809 21.8756C10.8472 21.3763 11.6539 22.1523 11.7636 22.2058C11.7948 22.2531 11.8538 22.3198 11.923 22.393C11.9572 22.4284 11.9934 22.4663 12.0297 22.5041C12.0564 22.533 12.0827 22.5705 12.1017 22.6059C12.182 22.7536 12.1585 22.8953 12.1314 22.8582C12.1196 22.9063 12.1422 22.8471 12.1286 22.7464C12.1214 22.6967 12.1026 22.6377 12.0688 22.586C12.0511 22.5589 12.0337 22.538 12.0114 22.5166C11.9886 22.4952 11.9551 22.4672 11.9285 22.4468C11.7964 22.3347 11.7839 22.3367 11.8296 22.394C11.8524 22.4227 11.8897 22.4651 11.9339 22.514C11.9793 22.5627 12.0019 22.5941 12.0255 22.6415C12.0709 22.7305 12.0713 22.8278 12.0623 22.8599C12.0488 22.8943 12.0578 22.8618 12.0133 22.7413C12.0764 22.8923 12.0221 23.106 11.853 23.2098C11.7724 23.2608 11.6694 23.2836 11.5697 23.267C11.52 23.259 11.4717 23.2421 11.4277 23.2166C11.3811 23.1903 11.3545 23.1639 11.2889 23.0992C10.8318 22.653 10.3704 22.2051 9.95125 21.8258L10.3806 22.2905C10.032 21.9292 9.18219 21.0988 9.14031 21.0152C9.40923 21.2739 9.71688 21.5826 10.063 21.9114C10.1282 21.879 9.25193 21.1009 9.24447 21.0332L8.18373 20.1341L8.6102 20.5659C8.31014 20.3253 7.44856 19.392 6.79021 18.7201C7.23853 19.0349 7.79547 19.7219 8.522 20.3949C9.05577 20.8779 8.27258 20.0164 8.76972 20.4816C8.66058 20.3414 8.34469 20.0293 8.17313 19.8912L7.99542 19.6893C8.48536 20.0577 9.43409 21.0333 10.1269 21.6218C10.0642 21.5721 10.0083 21.53 9.98344 21.5192C10.4531 22.0359 10.9549 22.5359 11.4518 23.0006C11.2167 22.7271 11.1029 22.6394 10.9506 22.5012C10.949 22.4847 11.0634 22.5882 11.2016 22.7154C11.2708 22.7787 11.3462 22.8481 11.4154 22.9116C11.4484 22.9414 11.4875 22.9774 11.5104 22.9961C11.5209 23.003 11.5308 23.0074 11.5396 23.0096C11.5316 23.0019 11.525 22.9949 11.5199 22.9872C11.501 22.966 11.4847 22.9476 11.4704 22.9313C11.4391 22.8959 11.4178 22.87 11.4034 22.8512C11.3745 22.8137 11.3734 22.8043 11.3772 22.7999C11.3849 22.7917 11.4122 22.8048 11.2757 22.6584C11.3521 22.7276 11.4239 22.7945 11.4941 22.8616L11.5464 22.912L11.5697 22.9345C11.5715 22.9355 11.5727 22.9373 11.5746 22.9383C11.581 22.9432 11.5871 22.9472 11.5938 22.9511C11.6185 22.9651 11.6599 22.9744 11.6991 22.9578C11.7264 22.9592 11.7284 22.9725 11.7178 22.993C11.7089 23.0131 11.684 23.0338 11.6961 23.0522C11.764 23.0193 11.8191 22.9873 11.8583 22.923C11.8763 22.8901 11.8881 22.8451 11.8772 22.7954C11.8723 22.7708 11.8609 22.7458 11.8429 22.7227C11.839 22.7176 11.8322 22.71 11.8292 22.7074C11.8272 22.7061 11.8308 22.7097 11.825 22.7039L11.8135 22.6928L11.8077 22.6871L11.8049 22.6844L11.8042 22.6836C11.8074 22.6869 11.7966 22.6759 11.8111 22.6908L11.8109 22.6905L11.8093 22.6891C11.7769 22.6601 11.7432 22.63 11.7079 22.5983C11.7298 22.6211 11.7499 22.6421 11.7686 22.6616C11.7779 22.6714 11.7869 22.6809 11.7956 22.69L11.802 22.6968L11.8036 22.6985C11.7886 22.6832 11.7996 22.6946 11.7965 22.6912L11.7969 22.6916L11.7977 22.6925L11.8007 22.6958L11.8123 22.709C11.8237 22.7212 11.8159 22.715 11.8178 22.7172C11.8169 22.7163 11.8198 22.7212 11.8211 22.7237C11.8246 22.729 11.8267 22.7345 11.8288 22.7391C11.8361 22.7583 11.8363 22.7692 11.8325 22.7738C11.8258 22.7831 11.8054 22.7641 11.7783 22.7502C11.7767 22.7552 11.7084 22.6964 11.6545 22.6509C11.5982 22.6027 11.5388 22.5518 11.4809 22.5021C11.3652 22.4025 11.2555 22.308 11.1896 22.2513L11.3068 22.3726C11.0459 22.1823 10.853 21.9922 10.7292 21.8038C11.0349 22.0807 11.3068 22.3726 11.2597 22.2537C11.0658 22.0629 10.8725 21.8727 10.6438 21.6655L10.8678 21.8377L9.90414 20.889C9.7212 20.7693 9.42362 20.5611 9.24447 20.4752C9.04374 20.2172 8.70049 19.9217 8.47188 19.7151L8.58625 19.8031C8.19158 19.3543 7.23055 18.4384 7.12337 18.3874C6.847 18.0611 9.43147 20.3393 7.27556 18.2353C6.46568 17.4258 6.68199 17.8202 6.18891 17.3889C6.18891 17.3889 6.22411 17.4059 6.18407 17.3541C5.83611 16.9932 5.76676 16.9915 5.46107 16.7146C5.65997 16.9407 5.96723 17.2492 6.07938 17.3355C5.93543 17.2662 5.3446 16.5942 5.04376 16.352C5.45361 16.6468 4.38082 15.6452 4.68389 15.8891C4.60041 15.7964 4.51482 15.7042 4.42833 15.6133C4.33594 15.5166 4.27705 15.4553 4.11492 15.2931C3.83684 15.0143 3.56007 14.7448 3.29129 14.488C2.75516 13.9761 2.24468 13.5096 1.87408 13.1814C1.68172 12.9423 1.47588 12.7218 1.23326 12.4788C1.58973 12.4792 1.9382 12.4687 2.36481 12.4622C2.78957 12.4556 3.29535 12.453 3.91928 12.469C3.63781 12.466 3.15677 12.4813 2.75542 12.4703C2.29767 12.5028 2.77714 12.5113 3.17077 12.519C3.57028 12.5268 3.88173 12.5339 3.16933 12.5635C3.47711 12.5533 3.14617 12.5291 2.82635 12.5393C2.25174 12.5466 1.77476 12.575 1.98283 12.6047L3.41168 12.662L2.98076 12.6776L4.96982 12.757C5.0168 12.7439 4.83491 12.7276 4.73833 12.7197C5.19961 12.724 5.67725 12.7285 6.1596 12.7332C6.57128 12.7319 6.98702 12.7306 7.39674 12.7295C8.21605 12.7242 9.01102 12.7158 9.70065 12.7212C9.95975 12.5382 13.0964 12.6426 14.2111 12.5304C13.9122 12.5828 13.7489 12.6754 13.9337 12.7134C13.6852 12.7212 13.1763 12.795 12.6127 12.7796C12.5226 12.7502 11.8265 12.717 12.2745 12.6836C10.7168 12.7043 12.4853 12.7637 12.0256 12.8319C13.7517 12.8139 14.7643 12.7069 15.8537 12.664L15.8811 12.6854L16.7038 12.6445C16.0316 12.6324 16.0649 12.5288 16.9313 12.565L16.8258 12.5701C17.3201 12.6137 18.3484 12.5626 19.1204 12.5694L19.6439 12.5093C20.4171 12.5161 20.4504 12.6276 20.7017 12.6946C21.9136 12.7024 22.6135 12.6108 23.4744 12.5565C23.8637 12.6052 25.679 12.6166 24.7172 12.6757C25.8104 12.633 25.5897 12.3722 27.4647 12.5166L26.978 12.5636C28.7707 12.5538 31.3271 12.4604 32.1531 12.5098C31.4917 12.6786 34.3921 12.6814 34.7109 12.8468C34.622 12.8091 35.2956 12.7964 35.3937 12.7762C35.5413 12.7956 35.7871 12.8146 36.0477 12.7803C35.3487 12.7471 36.5391 12.6087 35.2027 12.6755C35.8791 12.562 36.7505 12.4736 38.2319 12.4792L38.2097 12.5482L37.0374 12.5272C37.1557 12.5781 36.5525 12.5743 36.3051 12.5979C38.4858 12.6365 36.0196 12.7592 38.2489 12.7502C38.4642 12.7055 38.3247 12.724 38.9041 12.7062C38.6317 12.7086 38.5826 12.7561 39.0217 12.7571L39.4434 12.7019C40.2219 12.8169 38.1547 12.7768 38.8191 12.8576C37.9583 12.9118 36.4673 12.9409 36.745 13.0288C38.1508 13.0607 38.0097 12.8639 39.4794 12.904L39.6359 12.9414C40.1529 12.9159 40.2364 12.8553 40.5195 12.8185C40.545 12.84 40.6764 12.8558 41.0084 12.862C41.8815 12.7732 42.4609 12.7558 43.2661 12.6593C41.1227 12.7319 41.4338 12.5917 39.2215 12.6565C39.5681 12.6279 41.1256 12.6069 41.2213 12.5116L41.2006 12.5809C41.9199 12.5449 42.6389 12.5094 43.5423 12.5321L42.9909 12.5708C44.1881 12.5228 44.9814 12.6756 45.9261 12.5607C45.5924 12.5546 45.3216 12.5567 45.1156 12.5671C45.732 12.5364 46.5051 12.5433 47.175 12.555L48.5609 12.441C48.5487 12.4753 49.4269 12.4772 49.0033 12.5319C50.0011 12.5845 50.4716 12.4816 51.0481 12.4644C52.0699 12.5378 50.1629 12.4971 50.0628 12.5924C50.7668 12.6085 51.4918 12.6093 52.14 12.5983C52.4642 12.5927 52.7692 12.5843 53.0427 12.5734C53.1795 12.5669 53.3084 12.5609 53.428 12.5551C53.4878 12.5516 53.5452 12.548 53.6 12.5446C53.6275 12.5428 53.6542 12.541 53.6804 12.5391C53.6901 12.5381 53.714 12.5374 53.7115 12.5361C53.7124 12.5349 53.7134 12.5344 53.7139 12.5331C53.7104 12.5327 53.7174 12.5311 53.7049 12.5308C53.6881 12.53 53.6719 12.5291 53.6563 12.5283C53.625 12.5264 53.5961 12.5247 53.5694 12.5232C53.5163 12.5191 53.4725 12.5157 53.4379 12.5131C53.3689 12.5063 53.3377 12.4992 53.345 12.4908C53.3663 12.5017 53.5188 12.5058 53.7054 12.5072C53.7194 12.5079 53.7102 12.5073 53.7134 12.5075L53.7156 12.5054C53.7028 12.4948 53.7176 12.5058 53.7155 12.5035C53.7176 12.5043 53.7155 12.5033 53.7098 12.5028C53.7071 12.4941 53.7025 12.5385 53.6996 12.5013L53.697 12.4872L53.6967 12.4855L53.6966 12.4853C53.6965 12.4816 53.6981 12.5173 53.6974 12.5021H53.6975H53.6977H53.6983H53.6995L53.7043 12.502C53.7149 12.5012 53.7117 12.5013 53.7157 12.5007C53.7292 12.4963 53.7483 12.5004 53.7592 12.5209C53.7618 12.52 53.7631 12.5062 53.7611 12.5134C53.7607 12.5131 53.7609 12.5268 53.7609 12.5152V12.4905V12.4873V12.4869C53.7609 12.4834 53.7605 12.5158 53.7606 12.5021V12.502L53.7605 12.5018L53.7602 12.5013L53.7598 12.5001C53.7597 12.4995 53.7594 12.4987 53.7588 12.498C53.7577 12.4954 53.7559 12.4935 53.7539 12.4918C53.7465 12.4853 53.7355 12.483 53.7266 12.4838C53.7204 12.4846 53.709 12.4888 53.7198 12.4882H53.7257L53.7285 12.488L53.7223 12.4877L53.6966 12.4867H53.695C53.7272 12.487 53.7037 12.4867 53.7109 12.4868H53.7104H53.7096H53.7064L53.7 12.4867L53.6872 12.4864L53.6618 12.4856L53.5606 12.4812C53.4937 12.4774 53.4274 12.4716 53.3627 12.4635C53.4701 12.4567 53.5813 12.4516 53.6944 12.4475L53.705 12.4473L53.7102 12.4471H53.7109C53.7144 12.4471 53.6826 12.4467 53.6965 12.4469H53.6978H53.7005L53.7217 12.4467C53.733 12.4467 53.7275 12.4467 53.7249 12.4466C53.7225 12.4465 53.7191 12.4458 53.7178 12.4454C53.7204 12.4454 53.723 12.4443 53.7255 12.4445C53.7306 12.4439 53.7355 12.4453 53.7408 12.4466C53.7635 12.4551 53.7783 12.4779 53.7774 12.4999C53.7776 12.5246 53.767 12.5398 53.7525 12.5539C53.738 12.5666 53.727 12.5725 53.7114 12.5814C53.7398 12.5755 53.7545 12.5618 53.7687 12.5459C53.7751 12.5381 53.7797 12.5306 53.7834 12.5228C53.7851 12.5199 53.787 12.5126 53.7881 12.5126C53.788 12.5154 53.7882 12.5186 53.789 12.5213L53.7906 12.4935L53.7907 12.4901L53.7908 12.4884C53.791 12.4751 53.7906 12.5054 53.7907 12.5022V12.5013L53.7911 12.4995C53.7916 12.4982 53.7916 12.497 53.7919 12.4958C53.8006 12.4624 53.7877 12.4138 53.7473 12.3841C53.7424 12.3803 53.7368 12.3774 53.7308 12.3741C53.727 12.3727 53.7237 12.3714 53.7293 12.3707C53.7482 12.3693 53.6919 12.3676 53.7077 12.3667C53.6409 12.3631 53.572 12.3593 53.5003 12.3555C53.3569 12.3485 53.2018 12.3424 53.0271 12.3384C52.6776 12.3301 52.25 12.3295 51.6806 12.3438C51.6526 12.3223 52.0381 12.2806 51.5995 12.28C50.5829 12.2965 51.334 12.3724 51.0164 12.4223C51.7989 12.3944 52.1631 12.4218 52.6172 12.4784L52.4083 12.5148C52.3768 12.4958 51.8853 12.4949 51.7404 12.4766L51.6139 12.5508C51.6722 12.4687 50.886 12.4062 50.2681 12.4368C50.8926 12.4963 50.7239 12.4932 50.8937 12.5866C50.0248 12.6754 49.9133 12.4996 48.9394 12.5936C49.0124 12.5671 49.8627 12.5475 49.1278 12.5274C48.5197 12.5238 48.6007 12.5877 48.1927 12.6082C48.6521 12.5398 48.5341 12.489 49.032 12.4079C50.1126 12.3992 49.4679 12.4088 50.5242 12.379L49.63 12.3211C50.5457 12.31 50.2958 12.2429 50.3713 12.2167C48.8078 12.1471 49.193 12.3206 48.187 12.3027C47.7021 12.3495 49.1294 12.3126 48.3706 12.3617C47.43 12.3517 48.1562 12.4063 47.1004 12.436L47.2772 12.4046C46.9543 12.3639 46.6353 12.414 46.2618 12.421C45.8511 12.4416 46.7269 12.6587 45.038 12.6633C45.1209 12.6442 45.1512 12.6322 45.1512 12.6242L46.7986 12.0496C45.0875 12.051 43.1157 12.0351 41.1342 11.9966C40.6676 11.8843 42.5486 11.9039 42.4273 11.8533L43.331 11.8763C43.2803 11.924 41.4374 11.891 42.2537 11.9751C43.8497 11.941 44.5738 11.9957 46.0879 11.8975C45.6175 11.785 44.0939 11.9175 43.1089 11.8305C43.5224 11.8379 43.8716 11.8254 44.2105 11.8093C43.2857 11.7945 42.2959 11.7788 41.2436 11.7621L41.0072 11.7893C41.7164 11.802 42.207 11.8116 42.2702 11.8156C41.3299 11.8058 40.5369 11.8681 40.4743 11.9504L40.6413 11.9533L40.3016 11.9789C40.0819 11.9709 39.8612 11.9656 39.6419 11.9603ZM4.8425 8.15508C4.87731 8.10902 4.90269 8.07068 4.918 8.03914C4.90217 8.07185 4.93488 8.05013 4.8425 8.15508ZM51.422 13.3158C52.0491 13.3234 52.6788 13.3311 53.3023 13.3387L53.5358 13.3418L53.6524 13.3434L53.7105 13.3442C53.7348 13.344 53.7602 13.3437 53.7849 13.3414C53.9849 13.3273 54.1783 13.2371 54.3189 13.0954C54.4606 12.9536 54.5498 12.7645 54.5651 12.5598C54.5819 12.368 54.5261 12.159 54.4108 11.9995C54.6087 12.3054 54.5679 12.6926 54.3877 12.9295C54.2113 13.1743 53.9257 13.2693 53.7062 13.2468C53.3136 13.2124 53.0321 13.1819 52.9319 13.1567C52.8316 13.1313 52.9128 13.111 53.2459 13.0975C53.3292 13.0949 53.4282 13.092 53.544 13.0885C53.6013 13.0873 53.6627 13.0859 53.7285 13.0846C53.7881 13.0821 53.8508 13.0698 53.9133 13.0461C54.0376 12.9988 54.1634 12.8986 54.2343 12.7475C54.3048 12.5991 54.3148 12.3957 54.216 12.2196C54.216 12.2196 54.188 12.1748 54.1525 12.1367C54.1171 12.0984 54.0756 12.0676 54.0756 12.0676C54.1508 12.1369 54.2216 12.2405 54.2498 12.3697C54.2787 12.4976 54.2615 12.6508 54.183 12.7803C54.1061 12.91 53.9672 13.0125 53.8078 13.0406C53.7662 13.0483 53.7321 13.0503 53.6821 13.0503L53.5368 13.0516C53.44 13.0529 53.343 13.0542 53.2467 13.0554C52.9353 13.0842 52.2773 13.1516 51.6998 13.2141C51.4112 13.2467 51.1426 13.2768 50.9474 13.2988C50.7524 13.3223 50.6308 13.3391 50.6363 13.3437C50.857 13.3892 51.1785 13.3396 51.5794 13.3533L51.422 13.3158ZM50.5303 13.0431C49.8194 13.0249 49.9813 13.061 49.8709 13.0935C50.1211 13.0894 50.371 13.0852 50.6179 13.0812C50.5235 13.073 50.4768 13.0615 50.5303 13.0431ZM49.9136 13.1259C49.9934 13.1267 50.0616 13.1283 50.0972 13.1326L49.9136 13.1259ZM45.7408 11.8328C45.7723 11.832 45.7837 11.8316 45.8138 11.8308C45.6459 11.8283 45.4776 11.8258 45.302 11.8232C45.3702 11.8284 45.4998 11.8325 45.7408 11.8328ZM47.1833 11.9123L47.352 11.8529C47.1955 11.8507 47.0357 11.8483 46.8723 11.8461C46.9262 11.8729 46.9826 11.8963 47.1833 11.9123ZM51.8204 12.1078C52.1127 12.0365 53.0919 12.0332 53.152 11.9509C53.2145 11.9297 53.0084 11.9217 52.7773 11.9149C52.5194 11.9127 52.2442 11.9105 51.9521 11.908C51.9421 11.92 51.8839 11.9312 51.7871 11.9419C52.0754 11.9522 52.268 11.9726 52.1512 12.0233C51.41 11.913 51.4871 12.1018 50.6858 12.0735C50.4309 12.1315 51.5775 12.131 51.8204 12.1078ZM7.64092 17.9947C7.65192 18.0159 7.69418 18.0843 7.75556 18.1781L7.32765 17.8078C6.62833 17.0832 6.1418 16.4293 5.42901 15.8605C5.14714 15.5424 5.02491 15.3437 4.90282 15.1588C5.04729 15.308 5.18168 15.4484 5.29121 15.5676C7.19325 17.2588 6.11694 16.6154 7.64092 17.9947ZM7.6455 13.2517C7.54173 13.2568 7.50444 13.2704 7.50444 13.2704C9.75391 13.1194 11.6062 13.0754 12.8189 13.0813C12.5837 13.0215 11.4959 12.9749 10.9793 12.9502L11.4372 12.882L11.7231 12.9356L12.5178 12.8736C12.2956 12.8277 11.6537 12.8372 11.2248 12.8019C11.1875 12.815 9.81371 12.8947 9.42977 12.9366L10.5274 12.9838C10.231 12.9647 8.77495 12.9805 8.1976 12.9978C8.18621 13.0321 9.18127 13.0848 9.30663 13.0106C9.42506 13.0613 8.27795 13.0618 9.0033 13.1162C8.14369 13.1704 6.77594 13.1251 6.14141 13.1001L6.03397 13.0148C5.33649 12.9816 5.57649 13.1175 4.67853 13.0682C5.22173 13.06 5.17619 13.0365 5.09047 13.0145C5.00659 12.9923 4.88359 12.9716 5.35861 12.9682C5.04768 12.936 5.34434 12.8781 4.33097 12.8843C3.96247 12.9409 3.70232 12.9232 3.41011 12.9037C3.12654 12.8845 2.813 12.8633 2.52812 12.9131C2.25554 12.8973 2.30932 12.8819 2.35695 12.8682C2.40328 12.8546 2.44097 12.8432 2.09733 12.8349C2.13031 12.8693 2.1854 12.9267 2.25384 12.9981C2.76366 13.4659 3.00719 13.6734 3.15611 13.7824C3.30372 13.8899 3.35541 13.8976 3.44806 13.9321C3.22651 13.6999 3.0454 13.5313 2.87267 13.379C2.6862 13.2189 2.53571 13.0899 2.3703 12.9479C2.52341 12.9314 2.72153 12.9203 3.04436 12.9273C2.84925 12.9464 2.65427 12.9656 2.41296 12.9656L3.32113 13.729C3.15258 13.5322 3.01125 13.3881 2.87188 13.2566C3.11201 13.4854 3.34088 13.6847 3.54411 13.8473C3.65442 13.9363 3.7561 14.0184 3.85006 14.0941C3.49347 13.737 3.16122 13.4035 2.96584 13.1949C3.16279 13.2004 3.30725 13.2087 3.37949 13.2218C3.37831 13.2218 3.35777 13.2617 3.35908 13.2617C3.69826 13.2984 4.0525 13.2697 4.22576 13.2404C4.56285 13.2383 4.89497 13.2233 5.1758 13.2154C5.45086 13.2073 5.68431 13.2065 5.76427 13.2323L5.4824 13.2688C6.3954 13.2573 6.49721 13.2522 7.6455 13.2517ZM37.5694 13.3423C37.0162 13.1963 36.4064 13.067 33.8252 13.0927L34.0285 13.0827C32.7277 12.991 31.4921 13.2039 29.9095 13.1021C30.6775 13.0469 30.6362 13.052 31.484 12.926L30.66 12.9672C30.8883 12.8876 30.0664 12.9287 29.4619 12.925L29.9955 12.8303C30.3584 12.8576 31.2991 12.8673 31.2715 12.8459C31.0655 12.8563 32.5135 12.9652 33.3001 12.9377C33.219 12.8737 31.5581 12.8995 32.2997 12.7948C31.6462 12.8387 31.565 12.7748 30.8818 12.7973C31.537 12.7533 31.0439 12.7099 31.5318 12.6633L30.4114 12.6852C30.3822 12.6637 32.0431 12.6377 31.1251 12.5589C30.6761 12.5924 29.4776 12.5504 29.4561 12.6192L29.4285 12.598C28.5888 12.5832 29.0592 12.6958 28.028 12.6564C28.0159 12.6911 28.2125 12.715 28.5818 12.7079C28.8941 12.6926 28.9419 12.6451 29.585 12.6354C29.8733 12.6895 28.8093 12.6286 29.2556 12.72C29.4774 12.7654 30.9534 12.6807 30.4831 12.7832L29.6449 12.7684C29.6235 12.8376 29.0164 12.8336 29.0336 12.8893C28.521 12.9148 28.0373 12.837 27.5137 12.8972C27.2964 12.9418 27.676 13.0249 26.8099 12.9888C26.1332 12.8866 24.139 12.9065 23.3921 12.921L22.7384 12.9649C22.7939 13.0073 23.9872 12.9593 23.5676 13.0143L22.5482 13.0309L22.6269 13.0043C22.2892 12.9984 21.9437 13.0271 21.6355 13.0422C21.953 12.9924 22.6878 13.0124 22.5417 12.9405C22.0633 12.9265 21.9903 12.8995 21.55 12.9134C21.646 12.9083 21.7288 12.9014 21.7165 12.8911C20.7479 12.86 20.7812 12.9716 20.5383 12.9952C19.5644 13.0887 21.52 13.0821 21.3954 13.1561L18.5518 13.1958C18.7947 13.1722 19.0393 13.1491 18.9476 13.1196C18.2501 13.0864 18.9317 13.0636 17.9525 13.0673C18.0223 13.1657 16.7194 13.1287 16.0277 13.1853C15.7046 13.145 15.638 13.137 16.3448 13.1357C16.2636 13.0719 15.3149 13.0963 14.9776 13.0907C14.7821 13.1065 14.4487 13.1157 14.2375 13.1301C14.5206 13.1618 14.3997 13.2019 13.787 13.229L13.7514 13.2426C14.7557 13.26 16.3168 13.3298 16.9466 13.2644L16.7686 13.296C17.9312 13.3512 19.2984 13.1813 19.8344 13.3019C19.7849 13.3497 20.068 13.3129 20.0477 13.3819L20.9037 13.328L20.7257 13.3594L22.1818 13.3438L22.1433 13.3566C22.8353 13.2924 23.3774 13.2418 23.8106 13.2014C23.8121 13.1714 23.7671 13.162 23.998 13.1399C24.2294 13.125 24.4051 13.1226 24.5616 13.1267C24.5627 13.1264 24.5627 13.1264 24.5627 13.1262V13.1267C24.92 13.1353 25.158 13.1785 25.598 13.1962L24.2441 13.2036C24.1338 13.2548 24.2489 13.3079 24.9123 13.3437C24.641 13.3455 24.5274 13.3853 24.8632 13.3912C24.9001 13.3778 25.7503 13.3586 25.4264 13.3177C26.7126 13.299 28.7947 13.4333 30.7475 13.3362C29.3445 13.3947 31.8719 13.4046 30.3144 13.4257C31.4014 13.5075 31.2498 13.3452 32.3579 13.3579C32.4525 13.3874 31.7546 13.3541 31.5 13.4121C33.3424 13.4448 34.6087 13.2799 36.3911 13.3048L36.4674 13.3686C36.8052 13.3608 37.1797 13.3519 37.5694 13.3423ZM41.0954 13.2629C41.4384 13.2557 41.7863 13.2485 42.1399 13.2409C42.1054 13.2403 42.0733 13.2398 42.0373 13.2391L43.068 13.1877C42.4346 13.1628 42.0174 13.0925 42.9037 13.0599C42.8293 13.0864 43.0882 13.1186 42.7802 13.134C43.3742 13.1722 44.6774 13.2093 44.3376 13.1129C43.1961 13.204 44.0715 12.9902 43.1746 13.0579C43.6559 12.9952 44.1326 13.0233 44.5872 12.9953C44.114 13.0477 44.6975 13.1143 45.4082 13.1394C45.7176 13.1239 46.555 13.1387 47.0691 13.1132C46.8858 13.0545 47.3334 13.0207 46.4957 13.0059C46.8031 12.9903 47.2786 12.978 47.8115 13.0085C47.6003 13.0185 47.2309 13.0259 47.2565 13.0471C47.6003 13.1013 48.0029 13.0989 48.2251 13.1221C48.4023 13.119 48.5811 13.1157 48.7551 13.1127C48.7032 13.1075 48.6581 13.1008 48.6262 13.0924L49.2149 13.0406C48.4307 13.0682 48.8523 13.0132 48.8625 12.9787C48.8415 13.0476 49.3674 12.9876 49.6358 12.9854L49.0527 12.9125C49.3345 12.876 50.0477 12.9651 49.9005 12.8931C48.6635 12.8642 48.1878 12.8765 47.0691 12.8982L47.5232 12.955C46.2609 12.995 46.7447 12.8579 45.3284 12.8605C44.7397 12.9123 43.1986 12.8641 43.1694 12.9677C43.3468 12.936 42.2875 12.8754 41.8022 12.9224C41.2656 13.017 39.6434 13.0297 40.1349 13.0729C40.5731 13.0742 41.163 13.022 41.5154 13.0836L40.6652 13.1034L41.2232 13.155C40.9348 13.1366 40.9628 13.187 41.0954 13.2629ZM49.3506 11.1561C49.3414 11.1557 49.3292 11.1552 49.3178 11.1548C49.3304 11.1549 49.3425 11.1549 49.3543 11.155L49.3506 11.1561Z" fill="white"/>
<path d="M8.05019 20.4232C7.8607 20.2669 7.43593 19.8367 7.4837 19.9563C7.51288 19.9064 8.25354 20.7139 8.05019 20.4232Z" fill="white"/>
<path d="M7.5775 19.8731C7.53798 19.8525 7.54387 19.8884 7.35059 19.698L7.88881 20.2161L7.5775 19.8731Z" fill="white"/>
<path d="M7.31114 19.0679C7.00925 18.8249 6.82016 18.6688 6.39526 18.2386C6.33088 17.9819 7.12205 18.9118 7.40562 19.0157C6.63107 18.2231 6.3064 18.0665 5.65381 17.4302C5.93306 17.7898 7.21444 19.1175 7.31114 19.0679Z" fill="white"/>
<path d="M7.78073 19.2944L7.32324 18.8804L7.36054 18.9289L7.81828 19.3434L7.78073 19.2944Z" fill="white"/>
<path d="M8.35973 17.5972C8.35057 17.5279 8.04946 17.2859 7.89648 17.1475C8.01295 17.2679 8.17077 17.4415 8.35973 17.5972Z" fill="white"/>
<path d="M10.7246 5.10012C10.7246 5.10012 11.5484 4.26183 12.3721 3.42355L12.5264 3.26652L12.6031 3.18839L12.6413 3.14953C12.6582 3.13212 12.6927 3.09679 12.7155 3.06918C12.9206 2.83246 13.0377 2.52742 13.0535 2.23233C13.0718 1.93633 12.9924 1.647 12.8494 1.41446C12.7048 1.17865 12.5106 1.01142 12.2975 0.89927C12.0858 0.789479 11.8681 0.744854 11.6774 0.741714C11.4859 0.73805 11.3202 0.773775 11.1901 0.818791C11.0597 0.86433 10.9643 0.918375 10.9021 0.957633C10.8396 0.997414 10.8089 1.02188 10.8089 1.02188C11.0993 0.802303 11.4725 0.706513 11.8274 0.753099C12.1834 0.796021 12.5258 0.988908 12.7489 1.2734C12.9784 1.55959 13.0905 1.94405 13.0433 2.31962C13.0205 2.5074 12.9589 2.69427 12.8596 2.86308C12.81 2.94748 12.7512 3.02704 12.685 3.09954C12.6458 3.13997 12.6061 3.18067 12.5663 3.22163C12.0458 3.75279 11.4596 4.35042 10.7246 5.10012Z" fill="white"/>
<path d="M11.4432 13.6179C10.1809 13.658 9.6202 13.7311 8.33398 13.7498C10.0252 13.8354 10.5678 13.6162 11.9877 13.7038L11.4432 13.6179Z" fill="white"/>
<path d="M10.9976 13.9569C10.7884 13.8768 11.9716 13.8631 11.7883 13.8044C10.9377 13.8238 11.3922 13.8806 10.6201 13.8737L10.9976 13.9569Z" fill="white"/>
<path d="M5.18994 12.6334C5.18994 12.6334 5.32957 12.6231 5.46919 12.6127C5.56485 12.6023 5.66051 12.5918 5.66051 12.5918C5.66051 12.5918 5.58344 12.5956 5.50649 12.5995C5.40233 12.6033 5.29816 12.6072 5.29816 12.6072L5.18994 12.6334Z" fill="white"/>
<path d="M16.7503 13.8857L16.6108 13.9038L17.2438 13.9292L16.7503 13.8857Z" fill="white"/>
<path d="M16.4717 13.9223L16.6112 13.9038L16.4717 13.9223Z" fill="white"/>
<path d="M5.76952 12.4616C5.76952 12.4616 5.62727 12.4573 5.48503 12.4531C5.2576 12.4488 5.03003 12.4446 5.03003 12.4446L4.58105 12.4814L5.76952 12.4616Z" fill="white"/>
<path d="M10.7907 12.8911L10.2817 12.9166C10.3828 12.9118 11.0789 12.9448 10.7907 12.8911Z" fill="white"/>
<path d="M20.6159 13.9198L21.235 13.8891L21.1718 13.8811L20.5547 13.9119L20.6159 13.9198Z" fill="white"/>
<path d="M14.7739 12.6704C14.4223 12.6089 15.7891 12.6538 15.0657 12.5994C14.4224 12.609 14.6835 12.6411 14.7739 12.6704Z" fill="white"/>
<path d="M22.2446 13.0878C22.3281 13.0878 22.4162 13.0857 22.5009 13.0789C22.4 13.0824 22.3152 13.0853 22.2446 13.0878Z" fill="white"/>
<path d="M22.2447 13.0878C21.975 13.0878 21.7054 13.0642 21.5205 13.0822C21.8566 13.11 21.979 13.0996 22.2447 13.0878Z" fill="white"/>
<path d="M25.3344 13.0734L25.0898 13.0691C25.3396 13.0388 25.2212 13.0433 24.9982 13.0675C24.7391 13.0698 24.7537 13.0893 24.7229 13.1026C24.671 13.1103 24.6195 13.1181 24.5635 13.1264C24.6433 13.1182 24.7151 13.1106 24.776 13.1042C25.1773 13.1046 25.4223 13.1016 25.3344 13.0734Z" fill="white"/>
<path d="M36.8101 14.1105C35.9072 14.0876 35.6734 14.0764 35.7225 14.0287C34.8653 14.0136 34.9983 14.0958 34.4814 14.1148C35.4512 14.1056 35.6496 14.1276 36.8101 14.1105Z" fill="white"/>
<path d="M34.4817 14.115C34.373 14.1163 34.2692 14.1175 34.1431 14.1188C34.2843 14.1204 34.3888 14.1183 34.4817 14.115Z" fill="white"/>
<path d="M21.7231 12.551L22.2843 12.478L22.0783 12.4881L21.7231 12.551Z" fill="white"/>
<path d="M38.1504 14.1346C37.983 14.1317 37.7145 14.1338 37.5827 14.1174C37.5345 14.1652 38.3173 14.1376 38.1504 14.1346Z" fill="white"/>
<path d="M34.6678 13.1978C34.5762 13.1687 33.9985 13.1861 33.7632 13.1748C34.1005 13.181 34.3753 13.2692 34.6678 13.1978Z" fill="white"/>
<path d="M40.7409 13.9376C40.5734 13.9346 40.316 13.9024 40.4274 13.863C40.1841 13.8863 39.8549 13.9706 40.7409 13.9376Z" fill="white"/>
<path d="M36.3177 13.2065L36.1888 13.1902L35.5708 13.2209L36.3177 13.2065Z" fill="white"/>
<path d="M34.1136 12.501C33.4186 12.558 35.2161 12.6384 34.0191 12.6867C35.5631 12.7465 33.9007 12.6059 35.0397 12.6152C34.3727 12.596 34.0459 12.5239 34.1136 12.501Z" fill="white"/>
<path d="M35.04 12.6155C35.1369 12.6184 35.242 12.6202 35.3559 12.6205C35.2299 12.6184 35.128 12.6168 35.04 12.6155Z" fill="white"/>
<path d="M44.821 12.9761C44.7201 12.9822 44.651 12.9886 44.5874 12.9954C44.6668 12.9907 44.7426 12.9848 44.821 12.9761Z" fill="white"/>
<path d="M38.6774 12.5681L37.6357 12.6536C38.3314 12.5966 40.0819 12.6003 39.9728 12.5149C39.406 12.4977 38.724 12.5203 38.4437 12.5571L38.6774 12.5681Z" fill="white"/>
<path d="M50.6341 14.1138L50.1841 14.1476L50.746 14.1575C50.585 14.1447 50.8762 14.0822 50.6341 14.1138Z" fill="white"/>
<path d="M50.8543 14.1591L50.7456 14.1572C50.7697 14.1595 50.804 14.1604 50.8543 14.1591Z" fill="white"/>
<path d="M42.8509 13.0176C42.5143 13.0114 42.245 13.0138 41.938 13.0291C42.0654 13.0452 42.9039 13.0601 42.8509 13.0176Z" fill="white"/>
<path d="M53.9178 13.9754C53.9178 13.9754 53.8917 13.9786 53.8457 13.9842C53.8228 13.9861 53.7947 13.9892 53.7629 13.9901C53.7403 13.9906 53.7147 13.9914 53.6869 13.992C53.6173 13.9935 53.5243 13.9952 53.4316 13.9971C53.2457 14.0007 53.0601 14.0045 53.0601 14.0045C53.0601 14.0045 53.2628 14.0029 53.4655 14.0013C53.5161 14.0009 53.5666 14.0005 53.6142 14.0001C53.6381 14 53.661 13.9998 53.6827 13.9996C53.7189 13.9988 53.7533 13.998 53.785 13.9973C53.9583 13.9876 54.0713 13.9543 54.0713 13.9543C54.0713 13.9543 54.0331 13.9618 53.9947 13.9669C53.9563 13.9723 53.9178 13.9754 53.9178 13.9754Z" fill="white"/>
<path d="M52.2098 10.8652L52.0818 10.8491L51.4658 10.8797L51.5959 10.8957L52.2098 10.8652Z" fill="white"/>
<path d="M52.7361 12.4575C52.2325 12.4485 51.8392 12.525 51.971 12.5411L52.9473 12.5377C52.6992 12.4707 52.6766 12.5397 52.1104 12.5228L52.7361 12.4575Z" fill="white"/>
<path d="M26.4817 10.9904C26.6999 10.9457 27.7678 10.9716 27.8238 11.0141C27.6803 11.0326 27.1013 11.0502 27.465 11.0773L28.3101 10.9674C29.434 11.0358 27.4557 11.1119 26.9006 11.1506C28.0456 11.1647 28.385 11.0925 29.6031 11.093C29.2439 11.0832 29.0169 11.0557 28.827 11.0322C28.7856 10.9548 29.9205 10.9891 30.7319 10.983C30.2154 10.9493 30.5142 10.9211 30.8905 10.8907C30.9583 10.8882 31.0032 10.8839 31.0352 10.8787C31.079 10.875 31.1203 10.8715 31.163 10.8678L31.0657 10.8679C31.0725 10.8593 31.0511 10.8488 30.9809 10.8344C30.3002 10.857 29.7795 10.7923 29.3413 10.7913C29.7744 10.917 27.8488 10.8203 27.2978 10.859L26.6615 10.8715L26.4235 10.8717C26.3756 10.858 26.4434 10.8406 26.8063 10.8157C26.5035 10.8405 25.4934 10.8318 25.5867 10.8723L23.2816 10.8741C23.2099 10.869 23.138 10.8626 23.0849 10.8535C23.0051 10.8615 22.9917 10.8679 23.0022 10.8744L12.959 10.8825C13.4545 10.8924 13.8831 10.9211 14.394 10.9349C13.6273 11.0184 15.2317 10.95 15.0067 11.029C14.662 11.0577 14.1577 11.0487 13.8571 11.0294C13.7452 11.0693 14.1734 11.1047 14.1239 11.1523C15.3906 11.2024 15.5844 11.0116 16.8227 11.0405C16.7737 11.0883 16.3909 11.1302 17.2014 11.1236L16.9955 11.134C18.2933 11.0805 18.0068 11.2421 18.8237 11.1109L18.8022 11.1799C19.391 11.128 20.5364 11.1276 21.1821 11.118L21.1436 11.1314C22.9544 11.0523 22.1601 11.1146 24.1935 11.0815L23.2577 11.162C23.9592 11.1952 24.1174 11.1077 24.6209 11.1167C24.5849 11.1301 24.7016 11.1804 24.226 11.193L26.6932 11.0703C27.2817 11.0184 26.5733 11.0199 26.4817 10.9904Z" fill="white"/>
<path d="M29.603 11.093C29.7336 11.0967 29.882 11.0983 30.0572 11.0956C29.8879 11.0946 29.7424 11.0938 29.603 11.093Z" fill="white"/>
<path d="M12.2534 10.8831L12.9589 10.8825C12.7403 10.8783 12.5125 10.877 12.2534 10.8831Z" fill="white"/>
<path d="M33.1397 10.9424C32.7119 10.9068 33.46 10.8925 33.5346 10.866L32.0024 10.8673C32.0093 10.8938 31.8576 10.9237 31.8884 10.9479L33.1397 10.9424Z" fill="white"/>
<path d="M31.5588 10.8171C31.507 10.8357 31.3447 10.8522 31.1631 10.8679L32.0024 10.8673C31.9972 10.8472 31.9031 10.8292 31.5588 10.8171Z" fill="white"/>
<path d="M31.7207 12.2358L31.4494 12.2382L31.0391 12.2587L31.7207 12.2358Z" fill="white"/>
<path d="M27.4785 12.1189C27.8025 12.1592 28.4172 12.1285 28.6228 12.1183C27.9144 12.1196 28.2214 12.1043 27.4785 12.1189Z" fill="white"/>
<path d="M28.3537 12.5505L27.6709 12.5734L27.7345 12.5814L28.3537 12.5505Z" fill="white"/>
<path d="M7.03828 11.1545C6.9264 11.156 6.81765 11.1574 6.70459 11.159C6.85756 11.1593 6.95728 11.1573 7.03828 11.1545Z" fill="white"/>
<path d="M12.8973 11.0888C11.2685 11.0113 13.9644 11.0244 13.4528 10.9252L12.5665 10.9581L12.6418 10.9315L11.5608 10.9401C11.7826 10.9857 11.9493 10.9886 11.9011 11.0363C10.4579 11.0176 11.4461 10.9795 10.3874 10.9192L8.77443 10.9278L8.90503 10.9136C8.7692 10.9146 8.70913 10.9206 8.66255 10.9284C8.66255 10.9284 7.30357 10.9358 5.9446 10.9433C5.7805 10.9442 5.6164 10.9451 5.45492 10.946C5.42744 10.9469 5.40035 10.9479 5.37418 10.9488C5.31961 10.9505 5.26871 10.952 5.225 10.9535C5.13327 10.9562 5.07203 10.9582 5.07203 10.9582C4.94509 10.9772 4.90623 10.9986 4.89039 11.0242C4.86828 11.0497 4.87927 11.0794 4.68848 11.1146C4.86815 11.1144 5.08145 11.1271 5.27695 11.1279C5.32498 11.1281 5.37078 11.1275 5.41213 11.1258C5.50164 11.1226 5.58211 11.1195 5.65082 11.1171C5.84213 11.1084 5.96684 11.0938 5.99118 11.07C5.95271 11.0832 5.87681 11.1095 6.10922 11.1207L6.77215 11.0422L6.13997 11.0172C6.80657 10.939 8.9592 10.9564 9.34851 11.0049C8.12445 11.0316 8.73871 11.1258 7.03321 11.0747C7.10977 11.0989 7.42213 11.1414 7.03806 11.1546C9.03641 11.1269 10.8275 11.1703 12.8973 11.0888Z" fill="white"/>
<path d="M10.452 5.26763L10.4468 5.28542C10.4697 5.25577 10.4758 5.24472 10.452 5.26763Z" fill="white"/>
<path d="M9.96931 5.73301L9.34668 6.48781L10.4151 5.40874L10.4468 5.28442C10.3637 5.39107 10.0107 5.79111 9.84669 5.91883L9.96931 5.73301Z" fill="white"/>
<path d="M8.5868 7.32752C9.12162 6.7533 9.03696 6.72883 8.70955 7.00639C9.19346 6.47183 9.03683 6.79649 9.32995 6.38808C9.27905 6.3602 8.67461 7.01084 8.5376 7.16237L8.5868 7.32752Z" fill="white"/>
<path d="M5.07314 10.7839C5.07183 10.7852 5.0683 10.7435 5.06961 10.7422L4.94922 10.8505C4.95171 10.8482 5.0755 10.7814 5.07314 10.7839Z" fill="white"/>
<path d="M5.06982 10.7421L5.18341 10.6407C5.15344 10.637 5.12308 10.6347 5.0854 10.6493C5.0854 10.6493 5.07794 10.6762 5.07414 10.6991C5.07022 10.7225 5.06982 10.7421 5.06982 10.7421Z" fill="white"/>
<path d="M6.00391 9.85143C6.16944 9.69413 6.35108 9.51852 6.56987 9.30273L6.00391 9.85143Z" fill="white"/>
<path d="M5.55371 10.2737L5.57373 10.268L6.00374 9.85156C5.84291 10.0024 5.69844 10.1379 5.55371 10.2737Z" fill="white"/>
<path d="M5.18311 10.6407C5.21713 10.6449 5.25115 10.6501 5.28557 10.6428C5.29407 10.6409 5.30271 10.6383 5.31135 10.6347C5.3137 10.6336 5.31514 10.6332 5.31828 10.6313C5.32744 10.623 5.337 10.6146 5.34681 10.6059C5.36618 10.5881 5.38698 10.569 5.40923 10.5486C5.49743 10.4661 5.60578 10.3588 5.74109 10.2183L5.57385 10.2677C5.57385 10.2677 5.42729 10.4098 5.2806 10.552C5.23192 10.5963 5.18311 10.6407 5.18311 10.6407Z" fill="white"/>
<path d="M23.3877 12.4692L22.771 12.4999L22.8363 12.5082L23.4526 12.4775L23.3877 12.4692Z" fill="white"/>
<path d="M19.8291 12.4197C19.6767 12.4292 19.5611 12.4392 19.4561 12.4494C19.6168 12.4435 19.7445 12.4345 19.8291 12.4197Z" fill="white"/>
<path d="M17.1837 12.7892C16.4583 12.7347 18.1844 12.7171 16.8411 12.6931C16.7227 12.6425 17.3524 12.577 17.9849 12.6024C17.9347 12.6499 17.3687 12.6328 17.7575 12.6815C18.1776 12.6264 18.3373 12.6639 18.191 12.5921C18.8978 12.5472 18.9765 12.4962 19.4561 12.4495C18.6017 12.4811 16.8079 12.4073 15.7237 12.4996C15.1261 12.5861 15.4885 12.7039 15.486 12.8286C15.5761 12.8577 17.1253 12.8717 17.1837 12.7892Z" fill="white"/>
<path d="M18.3252 12.9137C18.661 12.9198 18.7636 12.9147 18.9695 12.9045C18.9139 12.8617 18.5966 12.9116 18.3252 12.9137Z" fill="white"/>
<path d="M10.61 11.9746C10.546 11.9924 9.93852 12.0144 10.0691 12.045L10.99 12.0226C10.7738 12.0196 10.6976 11.9979 10.61 11.9746Z" fill="white"/>
<path d="M11.3936 12.0129L10.9897 12.0225C11.0906 12.0241 11.2156 12.0216 11.3936 12.0129Z" fill="white"/>
<path d="M10.5659 11.9636C10.5806 11.9673 10.5938 11.9706 10.61 11.9747C10.6232 11.9709 10.6207 11.9671 10.5659 11.9636Z" fill="white"/>
<path d="M7.60596 8.29312C7.62101 8.32649 7.89673 8.02198 8.03518 7.86914C7.91465 7.98547 7.74048 8.14381 7.60596 8.29312Z" fill="white"/>
<path d="M6.30879 5.55884L6.0332 5.79596C6.1354 5.71679 6.18749 5.67609 6.30879 5.55884Z" fill="white"/>
<path d="M3.01984 10.1704C3.01707 10.1827 3.00202 10.2058 2.97998 10.2352C3.00255 10.2064 3.01654 10.1844 3.01984 10.1704Z" fill="white"/>
<path d="M2.97996 10.2346C2.82489 10.4299 2.25277 10.9393 2.08907 11.1642L2.10438 11.1302L1.76074 11.5102C2.09731 11.1684 2.81285 10.4604 2.97996 10.2346Z" fill="white"/>
</svg>
