<svg width="56" height="25" viewBox="0 0 56 25" fill="none" xmlns="http://www.w3.org/2000/svg">
<path d="M52.7485 15.8506C53.0166 15.5929 53.2173 15.3348 53.1055 15.4208C53.6759 14.9201 53.6478 14.8689 53.7847 14.8671C54.1615 14.5564 54.4824 14.144 54.0639 14.5076L55.0964 13.5577L54.5142 14.1609C54.6229 14.1083 54.8555 13.8672 55.0925 13.6241C55.211 13.5025 55.3306 13.3805 55.4364 13.2811C55.4632 13.2566 55.4888 13.2333 55.5129 13.2113L55.5651 13.1479L55.5664 13.1462L55.5689 13.1428L55.5739 13.1358L55.5835 13.1222L55.602 13.0957C55.6142 13.0783 55.626 13.0614 55.6372 13.0453C55.6826 12.9812 55.7144 12.9221 55.7422 12.8872C55.7422 12.8872 55.7291 12.917 55.7062 12.9691C55.6939 12.9958 55.6779 13.0277 55.6566 13.0628C55.6459 13.0804 55.6346 13.0989 55.6227 13.1187C55.6166 13.1284 55.6103 13.1383 55.6039 13.1487L55.5939 13.164L55.5926 13.1659L55.5362 13.2345L55.5339 13.2369L55.5291 13.2414C55.4281 13.3417 55.2932 13.475 55.1584 13.6085C54.8887 13.8753 54.6192 14.1421 54.6192 14.1421L54.6914 14.1071C54.4271 14.3314 53.9609 14.8141 53.8034 14.9876C53.8387 14.9706 53.837 15.0023 54.0279 14.8148C52.7369 16.1145 53.5809 15.0656 52.4873 16.1218C52.5563 16.0557 52.6389 15.9714 52.7485 15.8506Z" fill="white"/>
<path d="M51.7853 17.0883L51.2631 17.4698L50.5232 18.246C50.4904 18.2303 49.9184 18.7628 50.2709 18.3676C50.3479 18.2984 50.4997 18.1611 50.6142 18.0423C50.4771 18.0743 49.5798 19.0241 49.7496 18.7483C50.363 18.1625 50.4435 18.059 50.8551 17.7327C51.3998 17.1782 51.788 16.7659 52.0255 16.49C52.1966 16.3348 52.2517 16.3442 52.4654 16.1434C52.419 16.1887 52.3762 16.2301 52.3227 16.2822L52.3792 16.3834C52.1897 16.5396 52.0341 16.7109 51.8407 16.9012L52.8203 16.106C52.6081 16.4661 51.6928 17.2946 51.3752 17.6735C51.7406 17.1748 50.998 17.9844 51.7853 17.0883Z" fill="white"/>
<path d="M52.4635 16.1453C52.4697 16.139 52.4801 16.1289 52.4873 16.1218C52.4802 16.1288 52.4698 16.139 52.4635 16.1453Z" fill="white"/>
<path d="M17.5469 12.1613C17.8137 12.1633 17.8925 12.1897 17.931 12.2029L14.9269 12.2008C15.0209 12.1715 15.8862 12.1353 15.3079 12.1177C15.5658 12.0853 16.3513 12.113 16.4652 12.1527L16.2475 12.1079C16.9396 12.1652 17.4124 12.0527 16.9611 12.0188L17.0194 12.0193L18.9365 12.2398C18.2326 12.2528 18.3944 12.1641 17.5469 12.1613Z" fill="white"/>
<path d="M52.4463 9.59761C52.1783 9.31509 52.152 9.27374 52.1909 9.29742C52.2838 9.40172 52.3708 9.50222 52.4463 9.59761Z" fill="white"/>
<path d="M19.3848 12.2917L19.9854 12.3607C19.7447 12.3421 19.5335 12.3174 19.3848 12.2917Z" fill="white"/>
<path d="M15.2246 11.2425C15.2233 11.2388 15.2169 11.2356 15.2327 11.2307L15.5024 11.266C15.4985 11.266 15.4972 11.266 15.4955 11.266C15.3962 11.2574 15.3069 11.2497 15.2246 11.2425Z" fill="white"/>
<path d="M33.0158 12.551C33.0803 12.5526 33.1358 12.5539 33.2129 12.5559C33.1412 12.5553 33.0763 12.5534 33.0158 12.551Z" fill="white"/>
<path d="M7.08606 10.8479L8.42174 10.9142C8.24377 10.8828 8.88799 10.8923 8.60664 10.8556C8.70832 10.8606 9.1857 10.873 9.05549 10.8893L8.78304 10.8872C9.48733 10.9786 9.06073 11.0138 10.2285 11.0836C9.50355 11.1379 9.1857 11.0882 8.80175 11.0465C8.67155 11.0418 8.56254 11.0379 8.45223 11.0339L7.34163 10.9059L7.08606 10.8479Z" fill="white"/>
<path d="M47.6038 6.7644L47.6094 6.78023C47.6014 6.7686 47.6013 6.76522 47.6038 6.7644Z" fill="white"/>
<path d="M47.6296 6.84181L47.6091 6.77979C47.6495 6.8409 47.8339 7.04517 47.6296 6.84181Z" fill="white"/>
<path d="M19.1641 12.2324C19.1825 12.2494 19.2594 12.2702 19.3848 12.2917L18.9367 12.2399C19.0003 12.2379 19.0843 12.235 19.1641 12.2324Z" fill="white"/>
<path d="M18.1445 12.0325L17.0193 12.0194L16.6044 11.9719C17.0351 11.99 17.5388 12.0024 18.1445 12.0325Z" fill="white"/>
<path d="M31.2384 12.6049C33.569 12.6189 30.6659 12.4972 31.7367 12.4713C32.3838 12.484 32.612 12.535 33.0155 12.5511C31.167 12.5074 33.2661 12.7196 31.4017 12.6926C31.6668 12.7851 32.7463 12.7933 33.3788 12.7682C34.0948 12.6791 32.7531 12.703 32.5908 12.6156C33.339 12.6301 33.2072 12.6462 33.5247 12.6961C34.6993 12.6754 35.955 12.8055 36.6565 12.6821C37.5068 12.7017 37.4508 12.7444 37.9399 12.7912C38.0372 12.8868 36.6752 12.8413 36.3601 12.9165C36.4254 12.9085 36.5527 12.8924 36.5158 12.8789L35.7807 12.8991C36.4785 12.8658 35.6837 12.8037 35.3108 12.7962C35.0395 12.7942 34.5002 12.7899 34.5744 12.8162L34.9852 12.8369C34.4564 12.8669 33.8186 12.7671 33.2603 12.8188C33.2311 12.8402 33.4424 12.8504 33.4744 12.8637C32.8488 12.7986 32.2454 12.8023 31.3193 12.7562L31.8562 12.8509C31.1154 12.7462 29.4379 12.7759 28.2754 12.8313C28.4043 12.8153 28.6367 12.804 28.4972 12.7856C27.8143 12.7631 27.2986 12.828 27.6149 12.8779C26.9478 12.7993 25.0734 12.9438 24.1643 12.8419L19.9848 12.361C20.1413 12.373 20.3088 12.3828 20.4815 12.387C20.8614 12.3039 21.0662 12.314 20.4004 12.2357C21.054 12.2797 20.8042 12.3464 21.7863 12.3498C21.4012 12.3081 21.3037 12.2127 22.2446 12.2029C24.5963 12.2858 26.1549 12.522 28.3514 12.6428C28.4324 12.5787 30.1569 12.5966 30.995 12.5817C30.6751 12.5129 30.0531 12.4934 29.4076 12.4794C29.8127 12.477 30.5101 12.4731 31.0275 12.4702L31.2384 12.6049Z" fill="white"/>
<path d="M25.7778 12.3896C25.8366 12.3838 25.8974 12.3807 25.96 12.3777C25.9267 12.3831 25.8723 12.3871 25.7778 12.3896Z" fill="white"/>
<path d="M29.2112 12.4813C29.2031 12.4788 29.2059 12.477 29.203 12.4744C29.2707 12.4759 29.3385 12.4776 29.4077 12.4793C29.3385 12.4799 29.2602 12.4808 29.2112 12.4813Z" fill="white"/>
<path d="M19.7153 12.0881C19.5754 12.0728 19.4727 12.0616 19.3329 12.0464C19.4189 12.0512 19.5266 12.0572 19.6305 12.0631C19.7294 12.0716 19.7765 12.0803 19.7153 12.0881Z" fill="white"/>
<path d="M19.2447 12.2004L19.3193 12.2267C19.2593 12.229 19.2171 12.2304 19.164 12.2324C19.1479 12.2182 19.1653 12.2063 19.2447 12.2004Z" fill="white"/>
<path d="M40.1451 12.0259L40.3687 12.0397C40.2339 12.0387 40.1759 12.0331 40.1451 12.0259Z" fill="white"/>
<path d="M33.8348 12.4959C33.0242 12.4898 33.7378 12.4004 32.5912 12.4L32.9278 12.3943C32.1051 12.3533 30.6592 12.3722 29.6816 12.3689C29.7919 12.407 29.0888 12.4152 29.2031 12.4742C28.535 12.4604 27.8732 12.4471 27.5289 12.3863C27.1149 12.4062 26.486 12.3525 25.9598 12.3778C26.1819 12.3421 25.2104 12.2569 26.4913 12.3006C26.388 12.2957 26.4529 12.2875 26.3507 12.2825C27.1759 12.2327 27.5067 12.3172 28.2175 12.3184C28.6425 12.2832 27.5225 12.2614 27.9236 12.2473C28.8112 12.2802 30.7088 12.2048 30.6499 12.3376C31.2958 12.3469 31.3851 12.3177 31.5777 12.2934C32.5995 12.4348 35.3697 12.2327 35.3603 12.4135C34.9872 12.4063 34.3794 12.4102 33.832 12.3715L33.8348 12.4959Z" fill="white"/>
<path d="M21.0762 12.0973C21.1262 12.0968 21.1927 12.096 21.2339 12.0955C21.1874 12.096 21.1295 12.0968 21.0762 12.0973Z" fill="white"/>
<path d="M10.8479 12.6213L11.1869 12.7393C13.117 12.7677 13.8148 12.7345 15.5024 12.7391C15.6313 12.723 15.4266 12.7128 15.3229 12.7074C16.5092 12.7211 18.2845 12.6964 19.148 12.7506C19.5255 12.7498 20.5164 12.7122 20.1414 12.6774C20.3251 12.6878 20.5351 12.6979 20.7463 12.6941C20.8023 12.6517 20.2737 12.682 20.2615 12.6473C20.4289 12.6445 20.4942 12.6361 20.5326 12.6497C20.2509 12.6132 20.825 12.5055 19.5109 12.5081C19.002 12.6074 20.4223 12.5196 20.1219 12.6292C19.686 12.6299 19.7368 12.5875 19.6993 12.5741C19.1438 12.5766 19.1584 12.604 19.1881 12.6292C18.9752 12.5951 18.2765 12.6425 17.9826 12.5908C16.9023 12.5824 18.0413 12.6731 17.3359 12.6718L16.9293 12.5608L15.7563 12.5819C14.058 12.5429 15.999 12.3902 14.058 12.3274C14.313 12.3852 13.5345 12.4826 12.6312 12.5056C13.1717 12.5097 14.1708 12.582 14.8687 12.5491C13.885 12.6361 16.2225 12.5595 15.712 12.659C15.2258 12.612 14.4154 12.6056 13.7832 12.6309L13.9905 12.6411C13.3181 12.6528 12.8093 12.5369 11.8815 12.5813C11.4206 12.5777 11.5069 12.6089 11.588 12.6349C11.1979 12.6186 10.8492 12.5968 10.8479 12.6213ZM11.8523 12.6445L12.4691 12.6335C12.3227 12.6518 12.0927 12.6513 11.8523 12.6445Z" fill="white"/>
<path d="M45.6762 23.1773C45.7173 23.1319 45.7648 23.0797 45.8022 23.0383C45.777 23.0712 45.7284 23.1229 45.6762 23.1773Z" fill="white"/>
<path d="M14.2215 13.7036L14.5786 13.7C14.4392 13.7036 14.3249 13.7041 14.2215 13.7036Z" fill="white"/>
<path d="M22.239 14.0701L22.7607 14.096C22.5548 14.0943 22.3934 14.0841 22.239 14.0701Z" fill="white"/>
<path d="M44.5874 20.9708L44.5992 20.9579C44.6213 20.9387 44.6382 20.924 44.6616 20.9038L44.5874 20.9708Z" fill="white"/>
<path d="M38.3191 13.8105C38.3985 13.8011 38.4878 13.7926 38.6099 13.7859C38.5953 13.797 38.4866 13.8049 38.3191 13.8105Z" fill="white"/>
<path d="M22.1432 14.0651C22.1566 14.0643 22.1641 14.0638 22.1747 14.063C22.195 14.0653 22.2173 14.0676 22.2393 14.0699L22.1432 14.0651Z" fill="white"/>
<path d="M10.6899 14.0272C10.6133 14.0236 10.5436 14.0202 10.4612 14.0161C10.569 14.0183 10.6351 14.0225 10.6899 14.0272Z" fill="white"/>
<path d="M11.1934 13.7127C11.111 13.7099 11.0325 13.7065 10.9713 13.7017L11.1934 13.7127Z" fill="white"/>
<path d="M3.67973 11.0715L4.16064 11.0875C3.92418 11.0858 3.78311 11.0795 3.67973 11.0715Z" fill="white"/>
<path d="M9.92097 13.7853C9.89296 13.7802 9.86496 13.7754 9.84637 13.7703C9.91285 13.7738 9.94452 13.7802 9.92097 13.7853Z" fill="white"/>
<path d="M47.603 20.7827C47.5951 20.7905 47.5867 20.7987 47.5819 20.8032L47.564 20.8026L47.603 20.7827Z" fill="white"/>
<path d="M48.5443 20.0698C48.6439 19.9744 48.7477 19.8752 48.8496 19.7776C48.739 19.8891 48.6285 19.9947 48.5443 20.0698Z" fill="white"/>
<path d="M45.305 13.6323C45.4323 13.6162 45.7312 13.5969 45.5917 13.5786C45.8354 13.6019 45.8192 13.6579 45.305 13.6323Z" fill="white"/>
<path d="M45.4545 21.9496C45.5193 21.9061 45.5948 21.8468 45.6704 21.7871C45.5331 21.9015 45.4133 22.0024 45.4545 21.9496Z" fill="white"/>
<path d="M45.6705 21.7869C45.7387 21.7307 45.8116 21.6706 45.8726 21.6204C45.8027 21.68 45.7345 21.7363 45.6705 21.7869Z" fill="white"/>
<path d="M42.0659 12.7114C42.0342 12.7192 41.9852 12.7252 41.9187 12.7273C41.9382 12.7122 41.9913 12.709 42.0659 12.7114Z" fill="white"/>
<path d="M49.0786 19.5238C49.1508 19.4887 50.4907 18.2304 49.4076 19.3326C49.508 19.3486 50.1356 18.6586 50.4413 18.3815C50.2433 18.6069 50.5838 18.3136 50.5404 18.3988C50.3889 18.5362 50.2003 18.6912 49.9657 18.9343C49.8825 19.0707 50.2629 18.7262 50.536 18.4334C50.218 18.8127 51.0245 18.0371 50.5546 18.5541C49.4793 19.5883 48.7126 20.3126 47.8858 20.9694C48.5011 20.3823 49.191 19.7269 49.6608 19.2104L49.4031 19.3673C48.89 19.969 48.5129 20.2801 47.9695 20.8328L49.1741 19.5747C49.7091 18.9559 49.3135 19.3321 48.8497 19.7778C48.961 19.6653 49.0591 19.5611 49.0786 19.5238Z" fill="white"/>
<path d="M47.807 19.9116L47.8262 19.8896C47.8461 19.8733 47.8697 19.8522 47.8833 19.8428L47.807 19.9116Z" fill="white"/>
<path d="M3.59102 12.5122L3.74072 12.5392C3.61588 12.527 3.57728 12.5186 3.59102 12.5122Z" fill="white"/>
<path d="M47.316 20.8903L47.3169 20.8892C47.3064 20.8986 47.3039 20.9009 47.316 20.8903Z" fill="white"/>
<path d="M2.65137 12.483C2.64548 12.4809 2.63944 12.4786 2.62899 12.4761C2.64415 12.4784 2.64415 12.4808 2.65137 12.483Z" fill="white"/>
<path d="M3.64648 14.0171C3.63955 14.0204 3.63758 14.0235 3.62136 14.0268C3.54179 14.0227 3.5804 14.0194 3.64648 14.0171Z" fill="white"/>
<path d="M2.65386 12.4901C2.65386 12.4875 2.65683 12.485 2.65058 12.4822C2.65386 12.485 2.66168 12.4878 2.65386 12.4901Z" fill="white"/>
<path d="M20.7529 12.7502C20.7529 12.7502 20.6956 12.7625 20.6057 12.7743C20.5708 12.7677 20.6057 12.7599 20.7529 12.7502Z" fill="white"/>
<path d="M17.1802 12.8557C17.1573 12.8585 17.1438 12.8601 17.1145 12.8636L17.1802 12.8557Z" fill="white"/>
<path d="M44.46 13.9526C44.2832 13.9536 44.1506 13.9518 44.0386 13.9488C44.1676 13.9469 44.3071 13.9472 44.46 13.9526Z" fill="white"/>
<path d="M2.63135 12.476C2.59405 12.4684 2.54106 12.4607 2.45338 12.4512C2.54996 12.4612 2.60099 12.4691 2.63135 12.476Z" fill="white"/>
<path d="M26.2002 13.1096C26.162 13.1069 26.1264 13.1045 26.0903 13.1019C26.1121 13.1006 26.134 13.0994 26.1556 13.0984L26.2002 13.1096Z" fill="white"/>
<path d="M28.0646 13.0575C28.001 13.0495 27.9717 13.0412 27.9361 13.0337C28.6014 13.0634 29.824 13.0311 29.9688 13.107C29.7429 13.105 28.5723 13.1495 28.7718 13.194C28.3079 13.175 27.6223 13.2281 27.3726 13.2157C28.134 13.1744 27.4549 13.1519 26.9407 13.1262C26.4732 13.1482 27.0287 13.1871 26.6261 13.2011L25.5443 13.1927L26.4866 13.1827L26.2003 13.1099C26.2352 13.1125 26.259 13.1142 26.2963 13.1168C27.8907 13.1507 26.4316 13.0101 28.0646 13.0575Z" fill="white"/>
<path d="M27.936 13.0336C27.8362 13.029 27.7486 13.0235 27.6806 13.0156C27.831 13.0169 27.8894 13.0244 27.936 13.0336Z" fill="white"/>
<path d="M34.4492 12.9136C34.531 12.917 34.6198 12.9206 34.7314 12.9252C34.6783 12.923 34.555 12.9179 34.4492 12.9136Z" fill="white"/>
<path d="M15.8052 11.9842C15.7772 12.0056 14.8482 12.0499 14.8648 11.9939C15.1405 11.9881 15.4182 11.9822 15.6972 11.9763L15.8052 11.9842Z" fill="white"/>
<path d="M52.0625 13.2389C51.9667 13.2393 51.8705 13.2399 51.7743 13.2403C51.7577 13.2371 51.7416 13.234 51.7292 13.2316C51.798 13.2234 51.9761 13.2336 52.0625 13.2389Z" fill="white"/>
<path d="M29.0586 13.2201C28.8883 13.2115 28.8124 13.2027 28.7715 13.1938C28.8818 13.1982 28.9836 13.2054 29.0586 13.2201Z" fill="white"/>
<path d="M52.3287 13.1058C52.4905 13.0898 52.7442 13.0654 52.8168 13.0439C53.0353 13.0437 53.1722 13.0591 53.3311 13.0717C53.2736 13.124 53.2132 13.179 53.1473 13.2389C53.1997 13.1879 53.2538 13.1354 53.3109 13.0801C53.0381 13.0785 52.7045 13.0861 52.3287 13.1058Z" fill="white"/>
<path d="M53.1255 13.2589C53.133 13.252 53.1403 13.2452 53.147 13.239C53.1396 13.2459 53.133 13.2521 53.1255 13.2589Z" fill="white"/>
<path d="M16.3581 11.9603C16.4379 11.9641 16.5202 11.9681 16.605 11.9721L16.4766 11.9572C16.6903 11.9516 16.9027 11.9459 17.1156 11.9402C17.1927 11.9428 17.2763 11.9457 17.3788 11.9491C17.3376 11.9471 17.3054 11.9411 17.2856 11.9351C17.3548 11.9329 17.4226 11.9308 17.4903 11.9285C17.9992 11.9865 19.2654 12.0289 19.6307 12.0629C20.114 12.0877 20.7056 12.1018 21.0766 12.0974C20.7328 12.0985 20.2763 12.0869 20.4133 12.0548C21.1115 12.0215 21.451 11.9253 22.6561 12.008L21.9493 12.0067L23.5385 12.1311C24.0951 12.0796 22.7453 12.0691 22.5248 12.0242C23.7607 12.0856 24.7886 11.9217 25.3615 12.0294C25.4422 11.9656 25.5775 11.8589 26.3886 11.8653C25.8039 11.9382 26.8748 11.9122 26.3951 11.9902C26.6754 12.0267 27.2997 11.9671 27.3465 12.0149L27.2706 11.9885C28.6553 11.8873 29.1086 12.0458 29.701 12.098C31.359 12.124 32.1205 12.0827 33.4726 12.0934C33.5258 12.0506 33.894 11.9329 34.4364 11.9374C34.6886 11.9953 35.9124 12.0221 36.0372 12.0964C35.0673 12.1273 35.2437 12.0341 34.6631 12.0169C34.1797 12.0947 34.6192 12.0938 33.9592 12.1403C34.492 12.11 36.3665 12.1808 36.95 12.1078L36.744 12.0976C37.6755 12.0533 37.8534 11.8698 39.4052 11.9808L40.1456 12.0263C40.11 12.0188 40.1059 12.0102 40.0868 12.0035C41.2988 11.9958 40.9679 11.9114 42.3059 11.978C42.2025 11.9729 42.2674 11.9647 42.1624 11.9597C42.9251 11.9181 43.6943 12.0017 44.2709 12.0192C44.6228 11.9573 44.1873 11.9584 43.9697 11.9135C45.3114 11.8895 46.7593 11.9957 47.5926 12.0712L48.4575 12.0349C47.9446 12.0094 47.3177 11.9441 47.4742 11.9068C47.9497 11.9192 47.8578 11.9484 48.5304 11.9367C48.4157 11.897 48.1335 11.8602 47.8172 11.8104C49.2084 11.7442 48.1281 11.9507 49.1017 11.8293C49.5388 11.8286 49.7926 11.8864 49.8405 11.9342L50.6346 11.8716C50.7221 11.9325 51.7903 11.936 52.5046 11.9452C52.5699 11.9582 52.4554 11.9745 52.2782 11.9845C52.1019 11.9946 51.8647 11.9983 51.716 11.9866C51.7653 12.0106 51.9942 12.0281 52.2835 12.0396C52.5721 12.051 52.9182 12.0565 53.1792 12.056C53.1651 12.0293 53.3024 12.0146 53.5203 12.0067C53.1743 11.682 52.717 11.2118 52.3505 10.8482C51.9834 10.4839 51.7345 10.2535 51.8293 10.4324C51.1341 9.71597 50.298 8.85478 49.5211 8.05432C48.7539 7.26576 48.0468 6.5353 47.6062 6.05701C47.2783 5.77894 46.6595 5.16259 46.9871 5.57506C45.8661 4.45464 45.3807 3.78398 44.2435 2.69615C44.1402 2.61541 44.7455 3.19996 44.6759 3.19041C44.5032 2.99961 44.3317 2.82387 44.1546 2.64969C44.1101 2.60625 44.0653 2.5628 44.0204 2.5191C43.9759 2.47735 43.9495 2.44726 43.9211 2.40355C43.8679 2.32071 43.8372 2.21877 43.8402 2.11186C43.8426 2.00573 43.8798 1.89346 43.9521 1.80343C44.027 1.70908 44.1352 1.63867 44.2654 1.61433C44.394 1.5896 44.5419 1.61447 44.6626 1.69874C44.6933 1.7202 44.7178 1.7414 44.7492 1.77333C44.7812 1.80591 44.8137 1.83902 44.8465 1.87265C44.912 1.9403 44.9792 2.00979 45.0486 2.0815C44.8604 1.89006 44.8238 1.81612 44.8068 1.78039C44.772 1.77555 45.2378 2.2736 45.5152 2.57995C45.6871 2.73619 45.3077 2.35068 45.4112 2.43116C47.6344 4.56665 49.172 6.34974 51.3436 8.51324C50.7233 7.89545 50.5491 7.60168 50.5671 7.57053L51.1746 8.17576C51.3784 8.43931 51.8338 8.89457 52.1922 9.29761C52.2502 9.33308 52.4475 9.50633 52.2727 9.30324C52.9019 9.87195 53.3423 10.367 53.8129 10.8995C54.0482 11.1658 54.2911 11.4414 54.5686 11.7402C54.7075 11.8897 54.8549 12.0449 55.0147 12.2077L55.0448 12.2383L55.0524 12.246L55.0533 12.2469C55.0584 12.2561 55.0919 12.1182 55.0337 12.2061C55.0158 12.2181 55.0287 12.2095 55.0248 12.2122L55.0249 12.2124L55.0266 12.2151L55.0366 12.2312L55.0773 12.299L55.0944 12.3307L55.101 12.3434L55.1021 12.3461L55.1027 12.3473C55.103 12.3472 55.1017 12.3478 55.1037 12.3472L55.1208 12.3405C55.1076 12.335 55.1745 12.3435 55.0956 12.3266L55.0961 12.3283C55.1047 12.3562 55.1135 12.3843 55.1223 12.4127C55.1371 12.4674 55.1432 12.5635 55.107 12.653C55.107 12.653 55.1112 12.642 55.1189 12.6216C55.1233 12.611 55.1296 12.5955 55.1379 12.5758C55.1406 12.5643 55.1436 12.5516 55.147 12.5377C55.1496 12.525 55.1519 12.5076 55.1533 12.4962C55.1541 12.4652 55.1554 12.4656 55.1545 12.4428C55.1545 12.4337 55.1532 12.4241 55.1526 12.4143C55.1516 12.4051 55.1526 12.4077 55.1488 12.3905C55.1457 12.3769 55.1424 12.3629 55.1392 12.3486L55.1335 12.3249L55.1317 12.3177L55.1313 12.3159C55.144 12.3521 55.1347 12.3258 55.1376 12.3338V12.3336L55.1373 12.3326L55.1363 12.3286C55.1305 12.3117 55.1169 12.2813 55.1045 12.2569L55.082 12.2133L55.0707 12.1918C55.0716 12.1866 55.0609 12.1891 55.0729 12.1799C55.0982 12.1536 55.0867 12.2515 55.0892 12.2112L55.0886 12.2105L55.0876 12.2094L55.0854 12.2069L55.0809 12.2018C55.0576 12.1749 55.0337 12.1477 55.0095 12.1199C54.9124 12.0086 54.8089 11.8901 54.7052 11.7714C54.2909 11.2969 53.8766 10.8223 53.8766 10.8223L54.3585 11.2202L53.6317 10.3837C54.1315 10.8174 54.461 11.2999 54.5626 11.3108C54.4766 11.1994 54.2349 10.9657 54.2519 10.9339C54.7178 11.3643 54.7192 11.4334 55.0474 11.779C54.2519 10.7991 52.5102 9.06023 51.596 8.10104C51.4559 7.94649 51.6999 8.24943 51.7167 8.28489C51.3376 7.89964 51.0794 7.6989 50.6143 7.2019C50.3546 6.86415 50.8709 7.4012 51.1121 7.63426C51.1133 7.56765 50.9921 7.4504 50.7331 7.18136C50.6305 7.16919 49.2675 5.74766 48.872 5.46252C47.4754 4.03733 49.2146 5.57126 47.8176 4.21346L47.3545 3.85373C46.9746 3.43393 46.535 2.95669 46.0758 2.47264C45.8463 2.23055 45.6118 1.98689 45.3776 1.74768L45.202 1.56932L45.1143 1.48099C45.0843 1.45168 45.063 1.42668 45.0048 1.37643C44.8072 1.2088 44.5541 1.12963 44.3095 1.14337C44.3095 1.14337 44.413 1.13801 44.5147 1.15606C44.6169 1.17164 44.7132 1.21037 44.7132 1.21037C44.8335 1.27907 44.7849 1.27031 44.6887 1.24283C44.5914 1.21521 44.4359 1.19899 44.3426 1.21142C44.1707 1.21744 44.0034 1.2703 43.8629 1.36021C43.7937 1.40313 43.726 1.46214 43.6771 1.51475C43.6153 1.58136 43.5728 1.64339 43.5332 1.71588C43.3799 2.00168 43.3923 2.34702 43.5366 2.60677C43.572 2.67194 43.6148 2.73201 43.6629 2.78513C43.7002 2.82387 43.7369 2.86195 43.7728 2.8995C43.841 2.96768 43.907 3.03364 43.9702 3.09697C44.0984 3.22181 44.2204 3.33213 44.3369 3.42268C45.0618 4.25743 46.3213 5.59835 47.1846 6.51842C47.4933 6.69076 46.0792 5.29737 45.7508 4.88386L46.5622 5.69584C46.0613 5.19321 45.8891 4.96918 45.6271 4.6296C46.3512 5.32826 46.5255 5.6219 47.1825 6.3135C47.1485 6.24257 47.25 6.32122 47.5616 6.63175L47.6047 6.76535C47.6141 6.76745 47.6519 6.79833 47.751 6.8915L48.9232 8.11896C48.6492 7.88381 48.5975 7.91076 48.2871 7.60141C48.4241 7.68569 48.1665 7.41756 47.8555 7.10794C48.0978 7.40931 47.5281 6.83039 47.5103 6.8614C48.1333 7.48207 48.8914 8.25218 49.2867 8.67237L49.4609 8.76318C49.7625 9.05421 50.0639 9.36199 50.3417 9.64583C50.481 9.78742 50.6143 9.92286 50.7378 10.0484C50.8003 10.1104 50.8602 10.1699 50.9171 10.2266C50.9459 10.2545 50.9739 10.2818 51.0011 10.3082C51.0187 10.3245 51.0355 10.3402 51.0519 10.3552C51.0519 10.3552 51.0382 10.3305 51.0244 10.3056C51.0068 10.277 50.9744 10.2335 50.9763 10.2355C51.4573 10.6932 51.7829 11.0619 52.2622 11.4858C52.221 11.49 52.1806 11.4941 52.1405 11.4983C51.8117 11.4684 51.4407 11.4348 51.0846 11.4025C50.749 11.3712 50.6068 11.3397 50.1494 11.3043C49.7573 11.2282 47.5174 11.3997 46.5062 11.2927C46.4381 11.3009 47.2008 11.35 47.5458 11.3787C46.8732 11.3904 46.3383 11.2958 46.1275 11.3759C47.6371 11.349 46.0464 11.4398 46.7265 11.4626C46.0197 11.4611 45.2745 11.4466 44.9278 11.4181C46.0717 11.4187 44.5215 11.3074 45.6796 11.3423C44.7823 11.2749 43.5577 11.2481 42.4885 11.2741C42.4991 11.3087 42.3673 11.3248 41.9687 11.339L41.6472 11.2889C41.1468 11.2979 42.6146 11.3482 41.6074 11.366C40.571 11.2803 38.4864 11.4147 38.0327 11.2562C37.2428 11.3187 39.5358 11.3195 38.3453 11.3962C39.0378 11.4535 39.9931 11.388 40.2215 11.467C39.5427 11.4445 39.9736 11.5339 39.5358 11.5347L38.7787 11.4858L38.9462 11.4828C37.6758 11.4081 35.6631 11.444 34.0408 11.4313C32.6667 11.3516 31.7208 11.2364 30.0725 11.2451C30.5591 11.2918 28.7036 11.2901 29.7412 11.3758C28.9785 11.417 28.2254 11.3682 28.2105 11.3337C28.8816 11.3217 28.4465 11.3225 29.0118 11.3055C28.6302 11.2636 27.7508 11.2655 27.3895 11.2928C27.5569 11.2898 27.4933 11.2978 27.5302 11.311C26.7289 11.3392 27.1461 11.2694 26.5672 11.2519C26.3836 11.3105 25.2887 11.2676 24.76 11.2979L23.9933 11.2143C24.4146 11.2693 23.2586 11.2343 23.1378 11.285C22.5879 11.2462 22.1269 11.1782 21.2896 11.193C21.6355 11.2216 20.5257 11.2343 20.5112 11.2901C19.0773 11.3435 18.1366 11.138 16.7788 11.2178C16.8209 11.2309 17.0951 11.2676 16.6982 11.2816C16.3854 11.266 15.8382 11.2725 15.5036 11.2665L15.5142 11.2681C15.5076 11.2676 15.5036 11.2672 15.4966 11.2665C15.3328 11.2635 15.2299 11.2566 15.2259 11.2431C14.6534 11.1885 14.3582 11.1327 13.2313 11.0865C13.3142 11.0226 14.2652 11.0473 14.6773 11.0679L15.0334 11.1308C15.3736 11.0345 16.0495 11.1476 16.3086 11.1151C15.6326 11.0022 13.6859 11.0299 12.5181 10.9604C13.2301 10.8715 14.779 10.8576 16.1305 10.8683L15.5352 10.9065L16.2423 10.9077L15.5579 10.9756C16.2277 10.9637 16.8068 10.9811 17.4121 10.9773C16.7034 10.976 16.4273 11.0641 16.8283 11.0502C17.6181 10.9875 17.6514 11.0912 18.2551 11.0872C17.919 11.093 17.4819 11.0942 17.7636 11.1307C18.9542 11.054 19.2757 11.104 20.3582 11.0221C20.2241 11.1285 21.7109 11.0327 21.873 11.12L21.3706 11.1289L22.4364 11.1932C23.4196 11.1065 21.5658 11.1049 23.0619 11.0435C24.4426 11.0328 24.4068 11.1446 25.4923 11.1529C25.1347 11.0899 24.2738 11.0357 23.398 11.0375L23.9284 11.0072C23.6477 10.9706 22.4364 10.9782 21.8318 10.982C22.8309 11.0544 21.3642 11.0043 20.9098 11.0609C20.8261 10.9998 21.4677 11.0094 20.7103 10.9604C21.4198 10.9616 21.5236 10.9667 22.4262 10.9437C20.475 10.9714 20.6717 10.732 18.9687 10.7831C19.7537 10.8107 18.695 10.8712 18.6006 10.9008C18.2312 10.8934 17.4819 10.8789 17.1737 10.8636L17.4527 10.7754C16.4605 10.7373 16.1159 10.9241 14.9708 10.8331C14.822 10.7804 15.9781 10.8152 15.7721 10.805C14.2053 10.7496 13.6409 10.8916 12.2497 10.958C12.171 10.9315 12.1872 10.8756 11.7008 10.8291C11.8536 10.8819 11.4935 10.909 12.041 10.9478C11.5758 10.9701 11.0248 10.9313 10.6145 10.9107C11.5828 10.8797 10.2184 10.8347 10.0399 10.803C9.53834 10.8119 10.1929 10.8558 10.5013 10.8712C10.0987 10.8853 9.62025 10.9633 9.39164 10.8842C9.37581 10.9399 10.5173 11.0307 11.2637 11.0451L10.7606 11.054C11.1071 11.0825 11.1721 11.0744 11.6716 11.0658C11.1827 11.109 11.2309 11.1566 11.3449 11.1964C11.4088 11.1883 11.3093 11.1832 11.3704 11.1752C11.7725 11.1611 12.0812 11.1762 11.9879 11.2058C12.3496 11.2807 11.4299 11.2525 11.1575 11.2899C10.9515 11.2848 10.7455 11.2799 10.5436 11.275L8.45378 11.0346C7.56092 11.0066 7.15945 11.0642 6.48879 11.1005L6.30481 11.0362C5.52776 11.0429 4.79482 11.0632 5.29274 11.1446C5.32074 11.1231 5.42334 11.1282 5.59201 11.1252C5.61426 11.1338 5.65326 11.1401 5.70233 11.1451C5.71855 11.1489 5.72732 11.1527 5.7408 11.1563C4.9088 11.1345 4.38942 11.1209 4.34152 11.1197C5.75428 11.213 4.41205 11.2364 4.64851 11.3504L3.22176 11.3132C4.08661 11.2771 3.23746 11.2575 2.9306 11.2421C2.9094 11.2581 2.82696 11.2661 2.70748 11.2693C2.64768 11.2697 2.57872 11.2701 2.50321 11.2706C2.42339 11.2698 2.33688 11.2689 2.24685 11.2678C2.1546 11.2704 2.07635 11.281 1.99548 11.2995C1.91473 11.3182 1.83491 11.3452 1.75862 11.3801C1.60591 11.4497 1.4685 11.5515 1.35897 11.6719C1.13546 11.9123 1.0406 12.2286 1.04007 12.4651L1.05708 12.3962C1.05538 12.4235 1.0546 12.4513 1.05486 12.4797L1.05512 12.5156L1.0559 12.5271L1.05761 12.5525C1.06258 12.6316 1.07134 12.685 1.08482 12.749C1.11283 12.8733 1.16085 13.0022 1.234 13.1228C1.37756 13.3645 1.62226 13.5734 1.92245 13.667C1.99691 13.6907 2.07412 13.7072 2.15199 13.7161C2.19085 13.7205 2.22997 13.7234 2.26897 13.7241L2.34159 13.725C2.42548 13.7262 2.5091 13.7273 2.59154 13.7282C2.75616 13.7319 2.91528 13.7357 3.05962 13.7389C3.03332 13.7603 3.77451 13.8651 4.13058 13.9282C3.13919 13.9523 3.72753 13.9781 3.64796 14.0177C3.75056 14.0142 3.93494 14.0134 3.95653 14.0215C4.09838 14.0398 3.76377 14.0458 3.7359 14.067C3.47235 14.0604 3.20697 14.0536 2.95049 14.0472C2.82224 14.0438 2.69623 14.0404 2.57361 14.0372C2.51224 14.0352 2.45191 14.0335 2.3925 14.0317C2.3628 14.0307 2.33348 14.0296 2.3043 14.0288L2.22343 14.0258C2.19006 14.0237 2.15682 14.0207 2.12384 14.0167C1.85938 13.9841 1.61637 13.8806 1.42558 13.74C1.23348 13.5996 1.09045 13.4237 0.995316 13.2435C0.899525 13.0632 0.851765 12.8791 0.836586 12.7163C0.835148 12.6959 0.833836 12.6757 0.832397 12.656C0.831612 12.6315 0.830826 12.6074 0.830173 12.5836C0.830173 12.5737 0.829777 12.5548 0.830433 12.5523L0.831875 12.5398L0.833443 12.5275L0.834229 12.5215L0.834099 12.4999L0.834229 12.4982L0.834488 12.4949L0.835144 12.4884C0.840771 12.4183 0.851635 12.354 0.865376 12.2963C0.857525 12.3817 0.857258 12.4778 0.861576 12.544L0.865765 12.6039C0.867859 12.6309 0.870476 12.6552 0.872963 12.6731C0.877804 12.7132 0.884739 12.7524 0.892067 12.7914C0.923473 12.9469 0.974644 13.0942 1.04976 13.2324C1.1988 13.5043 1.44613 13.7604 1.83622 13.8785C1.56507 13.7737 1.30846 13.584 1.12788 13.3129C1.03785 13.1779 0.966919 13.0223 0.925438 12.8533C0.915359 12.8112 0.906727 12.7683 0.900314 12.7248C0.894165 12.6815 0.889061 12.6403 0.886181 12.5794L0.884872 12.5318L0.884609 12.4928L0.885658 12.4592C0.88723 12.4143 0.890888 12.3689 0.897171 12.3232C0.943497 11.9575 1.14855 11.5849 1.49166 11.3482C1.66191 11.2294 1.86723 11.1448 2.08681 11.1126C2.11639 11.1088 2.1368 11.1053 2.17541 11.1026L2.22814 11.0992L2.25327 11.0982C2.28572 11.098 2.31844 11.0976 2.35141 11.0973C2.40454 11.0972 2.45845 11.0971 2.51315 11.0969L2.80013 11.0431L3.6812 11.0722C3.31336 11.0438 3.53477 10.9877 2.61025 10.9769C2.72816 10.9263 3.52705 10.9884 4.09302 10.9714L4.38261 11.0426C4.27099 11.003 5.48262 10.9953 4.62182 10.9411L3.22137 10.8828L3.61067 10.8342L2.42666 10.8206L2.70604 10.8575C2.58722 10.855 2.48096 10.8529 2.38583 10.8509C2.36201 10.8507 2.33898 10.8504 2.3166 10.8501C2.29684 10.8501 2.27734 10.8503 2.25824 10.8503L2.21584 10.8513C2.18221 10.8529 2.1457 10.8554 2.11587 10.8585C2.09035 10.8618 2.06496 10.8649 2.04023 10.8681C1.99063 10.8759 1.94274 10.8852 1.8968 10.8966C1.52739 10.9899 1.29655 11.171 1.14659 11.3204C0.996365 11.4743 0.920071 11.6078 0.867989 11.7146C0.816956 11.8225 0.791832 11.9073 0.771156 11.9923C0.751396 12.0775 0.735825 12.1636 0.725353 12.2802C0.720512 12.3384 0.716846 12.4043 0.718285 12.4808L0.718548 12.4952L0.718941 12.5246L0.719204 12.5277L0.720383 12.5404C0.721561 12.5557 0.722736 12.5716 0.723785 12.5881C0.72588 12.615 0.728756 12.6504 0.732029 12.6733C0.735428 12.6971 0.739223 12.7217 0.743019 12.7473C0.779133 12.9494 0.858437 13.2196 1.0843 13.5004C1.19762 13.6389 1.34903 13.7782 1.55147 13.8897C1.7505 14.0008 2.01379 14.0822 2.29252 14.0862C2.89186 14.1724 3.53608 14.1817 4.70963 14.1606C3.86061 14.1415 4.62247 14.0998 4.30292 14.0499C5.16908 14.0139 5.46141 14.085 5.91066 14.1186C6.13129 14.0729 6.28819 14.0358 5.51455 14.0424C5.41771 13.9469 6.53224 14.0588 6.60277 13.9607C9.16578 13.9634 8.65648 14.2781 11.6526 14.1551L11.5404 14.1155C13.4428 14.1648 14.5404 14.1176 16.3022 14.1487L17.6894 14.0479C17.3793 14.0324 16.5452 13.9571 16.9344 13.9084C16.2597 14.0104 15.5436 13.9749 14.8166 14.0296C14.7424 14.0031 15.0382 13.9838 15.1673 13.9675C14.7285 13.9685 14.5084 14.0142 13.9289 13.9965C13.9569 13.9754 14.5891 13.9502 14.1127 13.9379L13.3244 14.0006C12.2698 13.9706 12.805 13.8505 11.5663 13.8791C11.7966 13.9351 12.2669 14.0161 12.7466 14.0296C12.1806 14.0417 13.5013 14.0634 12.9846 14.0969C12.1693 14.014 11.7755 14.0797 10.6913 14.0278C10.8187 14.0394 10.8522 14.0555 11.1191 14.0606L9.54593 14.0957C9.93523 14.0473 8.24636 14.0426 8.39266 13.9705C10.0694 13.9405 9.57668 13.9841 11.4872 13.9431C10.9463 13.9268 10.2489 13.8534 9.92215 13.786C9.90553 13.7887 9.87792 13.7911 9.81916 13.7924C9.52721 13.7211 9.82479 13.7019 9.81916 13.5771C10.6913 13.6658 11.2743 13.5929 12.303 13.644C12.4964 13.7123 11.706 13.731 11.1948 13.7133L12.1011 13.7586L11.9227 13.7272L14.223 13.7044C13.7871 13.7008 13.6391 13.6611 13.4116 13.6313C13.7084 13.6285 14.0025 13.6106 14.315 13.5906C14.2493 13.6558 14.2906 13.7018 14.5801 13.7006C16.0601 13.6852 16.8828 13.6267 17.429 13.5521C17.4858 13.5537 17.5498 13.5553 17.6012 13.5567C17.3531 13.6236 18.6522 13.6767 19.1108 13.7449C19.0881 13.6759 19.8735 13.7035 20.3001 13.6682C20.5271 13.7474 20.2243 13.8568 19.7048 13.9218C18.7043 13.8492 19.1441 13.8486 18.6714 13.7458L17.066 13.6772L17.4248 13.7406C16.6236 13.7684 15.854 13.6848 15.9128 13.7671C16.3361 13.8219 17.0351 13.7886 17.4552 13.8437L16.9252 13.8736C17.8603 13.9545 17.4044 13.7959 18.5365 13.8522C18.1201 13.9222 18.6391 13.8573 19.1241 13.904C18.7347 13.9528 17.1308 13.8841 17.4709 14.0029C18.0596 14.0547 19.4516 13.8637 20.2306 13.9819L20.1924 13.9684C21.3415 13.9531 21.7454 14.0207 22.1756 14.0635C22.6646 14.0252 23.3397 14.0793 23.8695 14.0835L23.8566 14.0489L24.6043 14.0634C24.2482 14.0003 23.7281 14.065 23.0858 14.0558L23.1656 13.9915C22.4254 14.0678 21.9314 13.9519 21.3573 13.8967C22.193 13.9522 23.7171 13.8808 23.9134 14.0063L24.4304 13.9417L24.6777 13.965C25.0628 13.9164 24.6696 13.84 23.9227 13.8255C23.793 13.8418 23.7281 13.8498 23.7673 13.8633C23.4207 13.8345 23.1023 13.7846 22.2635 13.7994L22.711 13.8335C21.6666 13.838 20.717 13.8133 20.3594 13.7501C21.8673 13.7234 23.35 13.7177 24.766 13.7207C25.1836 13.8657 25.6792 13.947 25.892 14.0821C26.842 14.1068 28.1318 14.1255 28.957 14.0762L28.8811 14.0496C29.2837 14.0359 29.6547 14.043 29.964 14.0583C30.3893 14.0229 29.6729 13.987 29.9693 13.9679L31.3301 14.0131C31.2461 13.952 30.1011 13.9518 29.5573 13.9474C29.6599 13.9527 29.8671 13.9627 29.8006 13.971C29.1682 13.9961 27.9899 13.8922 27.7133 13.9804C27.4051 13.9651 28.3393 14.0456 27.2961 14.0502C26.5974 14.0835 26.37 14.0041 26.297 13.9778C26.2856 13.943 27.3933 13.9303 27.0088 13.8886C27.5526 13.8929 27.7691 13.9376 28.4645 13.9041C27.9256 13.9001 27.1938 13.8298 26.9068 13.8836C25.8411 13.8191 25.9939 13.6568 26.4964 13.6478C26.3768 13.6987 28.4402 13.7105 27.043 13.7768C27.6706 13.8422 28.8173 13.8428 29.6383 13.8834L29.601 13.8702L30.6204 13.8866C30.4769 13.8684 30.1687 13.8531 30.1586 13.8185L31.5705 13.9113C30.7758 13.8489 32.0632 13.8681 32.4249 13.8405C32.5761 13.8934 33.1276 13.9323 32.5984 13.9625C32.0035 14.001 32.2521 13.9338 31.7111 13.9298L32.4771 14.0134L32.5428 14.0052L33.0038 14.0733C34.0471 14.0685 32.5481 13.9146 33.8849 13.9815L33.7108 14.0745C35.2585 14.0609 37.2462 13.9561 38.3397 13.999C38.0381 13.9461 37.9051 13.8609 38.3198 13.8107C37.8482 13.8267 36.9006 13.8234 36.2244 13.8145C36.0942 13.831 37.0694 13.9247 37.8041 13.9045C37.4482 14.0568 35.956 13.8125 35.8696 13.9669C33.9975 14.0209 34.4732 13.8182 32.884 13.909C32.8622 13.84 32.4323 13.8752 32.3488 13.8144C32.8191 13.7019 34.4731 13.8182 35.5042 13.7789C35.4033 13.7741 35.2001 13.7636 35.1605 13.7505C35.8976 13.7303 36.2021 13.7457 36.717 13.7712L36.6521 13.7794C37.5518 13.8469 37.2088 13.728 37.7384 13.6976C37.9436 13.7078 38.6799 13.6879 38.5615 13.7386L39.5204 13.6732L39.4742 13.7501C40.0151 13.7547 40.1335 13.7038 40.6237 13.7506L40.6465 13.8196L39.3031 13.8435C39.9839 13.8662 39.4928 13.9096 40.241 13.9239C39.4053 13.8485 40.8322 13.8858 40.9144 13.8218L41.4646 13.8605L41.3239 13.8422C41.7558 13.8068 41.8381 13.8679 42.342 13.8588C41.7477 13.8973 41.3584 13.9456 40.6009 13.8968C41.1524 13.9354 42.246 13.9783 42.5144 13.9807C43.0934 14.0096 43.4977 13.9571 44.0393 13.9493C42.9997 13.9217 44.4035 13.7404 42.32 13.7899C42.3585 13.8031 42.5272 13.8001 42.5926 13.7921C42.3148 13.88 41.3437 13.7865 40.892 13.7529C41.0083 13.7021 40.536 13.6896 41.3368 13.6615C41.074 13.694 42.0115 13.7746 42.7733 13.7331L42.6391 13.6245L43.7485 13.6117L43.6447 13.6066C44.0619 13.5368 44.8282 13.6202 45.5922 13.5789C46.1436 13.6178 48.2594 13.5869 47.3491 13.7005C48.0348 13.6326 48.6365 13.7191 49.3846 13.7336L48.4521 13.778C49.5546 13.8556 49.2371 13.8055 50.1194 13.9289C50.2086 13.8992 50.4053 13.8749 50.226 13.8437C50.3691 13.8425 50.5213 13.8412 50.6786 13.84C50.7672 13.8386 50.8585 13.8373 50.9506 13.8358C51.1356 13.8335 51.3266 13.8328 51.4847 13.8374C51.3033 14.0099 51.1287 14.1614 51.0019 14.237C50.9467 14.294 50.9123 14.3408 50.8803 14.3896C50.864 14.4154 50.8487 14.4397 50.8335 14.4638L50.8215 14.4832L50.8153 14.493L50.8122 14.498L50.8017 14.5103C50.7734 14.5431 50.745 14.5764 50.7161 14.6101C50.484 14.8794 50.2098 15.1811 49.6741 15.6813C49.4451 15.8887 49.7724 15.4395 49.1086 16.1476C49.0682 16.1994 49.8257 15.5441 49.0559 16.3019C48.453 16.7867 47.8109 17.6122 47.0522 18.2684C46.6999 18.6633 46.0435 19.3035 46.2253 19.2152C46.8064 18.6127 47.6536 17.7849 47.8037 17.6798C47.6938 17.7333 48.1973 17.2316 47.7396 17.6461C48.5988 16.7163 48.3491 17.0943 49.1275 16.2677C49.2014 16.2312 48.7666 16.732 48.5779 16.8873C48.6378 16.9549 50.1911 15.3359 49.5542 16.1256C48.7022 16.9887 48.3146 17.1103 47.6386 17.9206C47.9753 17.6616 48.4083 17.1628 48.8537 16.8513L48.2687 17.4876L47.7794 17.8847L47.8151 17.8677C46.7949 19.0048 46.7516 18.7998 45.7546 19.733C46.2694 19.1296 45.5147 19.7517 45.9082 19.3039C45.2547 19.9412 44.7892 20.4237 44.8486 20.4917C46.108 19.3365 44.9847 20.4907 46.1644 19.4382C46.0041 19.6441 46.5236 19.2657 45.8654 19.9379C45.0705 20.6418 46.0365 19.6605 45.268 20.387C45.2296 20.4369 45.1894 20.4884 45.2249 20.4717C44.848 20.7822 44.8357 20.8847 44.383 21.2642L44.4945 21.1783C44.2574 21.4541 44.1061 21.5835 43.9643 21.7044C43.8934 21.7647 43.8248 21.823 43.7489 21.8965C43.711 21.9331 43.6713 21.9737 43.6285 22.02C43.6051 22.0462 43.5806 22.0737 43.5547 22.1029L43.5279 22.1353C43.5168 22.1491 43.5042 22.1648 43.4963 22.1764C43.4782 22.2015 43.4611 22.2284 43.4445 22.2565C43.4901 22.1611 43.4903 22.1477 43.4466 22.1879C43.4055 22.229 43.3267 22.3315 43.269 22.4839C43.2104 22.6352 43.1789 22.8357 43.2052 23.036C43.229 23.2364 43.3116 23.432 43.4114 23.5771C43.2321 23.3509 43.1467 23.0923 43.1388 22.8324C43.1331 22.5716 43.2015 22.2997 43.3943 22.047L43.4351 21.9973L43.4448 21.9852L43.4496 21.9792L43.4521 21.9762L43.4653 21.9624C43.4789 21.9466 43.4925 21.9306 43.5065 21.9144C43.5348 21.8821 43.564 21.8486 43.5944 21.8137C43.6563 21.7452 43.7229 21.6713 43.7959 21.5904C43.9436 21.4304 44.1208 21.2461 44.3425 21.0263C44.4867 20.9572 44.4428 21.0424 44.8236 20.6978L44.2451 21.2673C44.3752 21.1497 44.4792 21.0649 44.6001 20.9589L45.1321 20.3882C44.4063 21.0604 44.6868 20.6999 44.3509 20.958C43.7276 21.6141 43.8128 21.4755 43.4227 21.89C43.4286 21.891 43.4293 21.8969 43.4254 21.9075C43.4244 21.9102 43.4231 21.9131 43.4216 21.9163L43.4204 21.9189L43.4198 21.9202L43.4197 21.9204L43.4079 21.9326L43.4078 21.9329L43.4075 21.9335L43.4046 21.939C43.3991 21.9482 43.3983 21.9521 43.3859 21.9689C43.3695 21.9905 43.3457 22.0207 43.3308 22.0437C43.3146 22.0677 43.2976 22.0942 43.2802 22.1237C43.2454 22.1824 43.209 22.2528 43.1773 22.3346C43.1137 22.4977 43.0703 22.7089 43.0942 22.9421C43.1163 23.1737 43.2111 23.4289 43.3893 23.6365C43.4115 23.6622 43.4344 23.6877 43.4589 23.7115L43.4772 23.7296L43.4941 23.7457L43.4994 23.7501L43.525 23.7724L43.5745 23.8134L43.617 23.8449C43.6458 23.865 43.6754 23.8848 43.7061 23.9024C43.8287 23.9748 43.9661 24.0266 44.1089 24.0523C44.3939 24.1047 44.7002 24.0512 44.9489 23.9005C45.011 23.8632 45.0694 23.8204 45.1229 23.7733C45.1498 23.7499 45.175 23.7251 45.1995 23.6997L45.2383 23.6575C45.2906 23.6005 45.342 23.5445 45.3924 23.4896C45.4929 23.3797 45.5888 23.2746 45.6767 23.1784C45.563 23.2935 45.4163 23.4421 45.3371 23.5223C45.266 23.5848 45.2175 23.6253 45.1874 23.648C45.1617 23.667 45.132 23.6885 45.1402 23.6745C45.1508 23.6586 45.1645 23.639 45.189 23.6093C45.2143 23.5801 45.2478 23.5417 45.2853 23.4985C45.4376 23.3281 45.6618 23.0908 45.6643 23.0734L46.0816 22.711C46.0044 22.7804 45.8902 22.8692 46.0486 22.6951C46.5867 22.1776 46.6104 22.2626 47.1477 21.746C47.157 21.6763 46.6655 22.0759 46.9773 21.7323C47.064 21.593 47.3536 21.1628 48.0805 20.4895C48.1416 20.4514 48.3296 20.2765 48.545 20.071C48.5141 20.0986 48.4763 20.1341 48.4609 20.1452L48.893 19.647C48.4452 19.9917 48.1159 20.4729 47.6659 20.8191L47.5831 20.8039C47.2729 21.1137 46.8308 21.5135 46.612 21.6815C47.0761 21.2007 47.1885 21.1141 47.727 20.5959C47.7701 20.4908 47.3749 20.8399 47.3178 20.8902L47.4246 20.8393C46.8351 21.5102 46.4354 21.7345 45.6601 22.5279C45.5436 22.6484 45.6195 22.5797 45.6551 22.5627C45.4845 22.7095 45.3217 22.8628 45.1627 23.0185L44.9268 23.2538C44.851 23.3308 44.7708 23.42 44.6648 23.4705C44.4588 23.5783 44.1963 23.569 44.0022 23.4434C43.8061 23.3218 43.6892 23.0906 43.7094 22.873C43.7094 22.873 43.7011 22.9438 43.71 23.0166C43.7179 23.0893 43.7434 23.1603 43.7434 23.1603C43.6801 23.0203 43.657 22.8143 43.7456 22.6199C43.7886 22.522 43.8601 22.4372 43.9511 22.3624C44.0389 22.284 44.1309 22.2018 44.2261 22.1169C44.6073 21.7768 45.0415 21.3895 45.4756 21.0025L45.5014 21.015C45.4217 21.1176 45.7292 20.8088 45.8869 20.6357L45.8857 20.6362C46.3196 20.2466 46.7367 19.8722 47.0777 19.566C46.986 19.6813 46.8635 19.8237 46.7142 19.9784C46.563 20.0847 45.8267 20.8576 45.8794 20.7032C45.5614 21.0826 44.9557 21.6001 44.7191 21.8756C45.1528 21.3763 44.3461 22.1523 44.2364 22.2058C44.2052 22.2531 44.1462 22.3198 44.077 22.393C44.0428 22.4284 44.0066 22.4663 43.9703 22.5041C43.9436 22.533 43.9173 22.5705 43.8983 22.6059C43.818 22.7536 43.8415 22.8953 43.8686 22.8582C43.8804 22.9063 43.8578 22.8471 43.8714 22.7464C43.8786 22.6967 43.8974 22.6377 43.9312 22.586C43.9489 22.5589 43.9663 22.538 43.9886 22.5166C44.0114 22.4952 44.0449 22.4672 44.0715 22.4468C44.2036 22.3347 44.2161 22.3367 44.1704 22.394C44.1476 22.4227 44.1103 22.4651 44.0661 22.514C44.0207 22.5627 43.9981 22.5941 43.9745 22.6415C43.9291 22.7305 43.9287 22.8278 43.9377 22.8599C43.9512 22.8943 43.9422 22.8618 43.9867 22.7413C43.9236 22.8923 43.9779 23.106 44.147 23.2098C44.2276 23.2608 44.3306 23.2836 44.4303 23.267C44.48 23.259 44.5283 23.2421 44.5723 23.2166C44.6189 23.1903 44.6455 23.1639 44.7111 23.0992C45.1682 22.653 45.6296 22.2051 46.0488 21.8258L45.6194 22.2905C45.968 21.9292 46.8178 21.0988 46.8597 21.0152C46.5908 21.2739 46.2831 21.5826 45.937 21.9114C45.8718 21.879 46.7481 21.1009 46.7555 21.0332L47.8163 20.1341L47.3898 20.5659C47.6899 20.3253 48.5514 19.392 49.2098 18.7201C48.7615 19.0349 48.2045 19.7219 47.478 20.3949C46.9442 20.8779 47.7274 20.0164 47.2303 20.4816C47.3394 20.3414 47.6553 20.0293 47.8269 19.8912L48.0046 19.6893C47.5146 20.0577 46.5659 21.0333 45.8731 21.6218C45.9358 21.5721 45.9917 21.53 46.0166 21.5192C45.5469 22.0359 45.0451 22.5359 44.5482 23.0006C44.7833 22.7271 44.8971 22.6394 45.0494 22.5012C45.051 22.4847 44.9366 22.5882 44.7984 22.7154C44.7292 22.7787 44.6538 22.8481 44.5846 22.9116C44.5516 22.9414 44.5125 22.9774 44.4896 22.9961C44.4791 23.003 44.4692 23.0074 44.4604 23.0096C44.4684 23.0019 44.475 22.9949 44.4801 22.9872C44.499 22.966 44.5153 22.9476 44.5296 22.9313C44.5609 22.8959 44.5822 22.87 44.5966 22.8512C44.6255 22.8137 44.6266 22.8043 44.6228 22.7999C44.6151 22.7917 44.5878 22.8048 44.7243 22.6584C44.6479 22.7276 44.5761 22.7945 44.5059 22.8616L44.4536 22.912L44.4303 22.9345C44.4285 22.9355 44.4273 22.9373 44.4254 22.9383C44.419 22.9432 44.4129 22.9472 44.4062 22.9511C44.3815 22.9651 44.3401 22.9744 44.3009 22.9578C44.2736 22.9592 44.2716 22.9725 44.2822 22.993C44.2911 23.0131 44.316 23.0338 44.3039 23.0522C44.236 23.0193 44.1809 22.9873 44.1417 22.923C44.1237 22.8901 44.1119 22.8451 44.1228 22.7954C44.1277 22.7708 44.1391 22.7458 44.1571 22.7227C44.161 22.7176 44.1678 22.71 44.1708 22.7074C44.1728 22.7061 44.1692 22.7097 44.175 22.7039L44.1865 22.6928L44.1923 22.6871L44.1951 22.6844L44.1958 22.6836C44.1926 22.6869 44.2034 22.6759 44.1889 22.6908L44.1891 22.6905L44.1907 22.6891C44.2231 22.6601 44.2568 22.63 44.2921 22.5983C44.2702 22.6211 44.2501 22.6421 44.2314 22.6616C44.2221 22.6714 44.2131 22.6809 44.2044 22.69L44.198 22.6968L44.1964 22.6985C44.2114 22.6832 44.2004 22.6946 44.2035 22.6912L44.2031 22.6916L44.2023 22.6925L44.1993 22.6958L44.1877 22.709C44.1763 22.7212 44.1841 22.715 44.1822 22.7172C44.1831 22.7163 44.1802 22.7212 44.1789 22.7237C44.1754 22.729 44.1733 22.7345 44.1712 22.7391C44.1639 22.7583 44.1637 22.7692 44.1675 22.7738C44.1742 22.7831 44.1946 22.7641 44.2217 22.7502C44.2233 22.7552 44.2916 22.6964 44.3455 22.6509C44.4018 22.6027 44.4612 22.5518 44.5191 22.5021C44.6348 22.4025 44.7445 22.308 44.8104 22.2513L44.6932 22.3726C44.9541 22.1823 45.147 21.9922 45.2708 21.8038C44.9651 22.0807 44.6932 22.3726 44.7403 22.2537C44.9342 22.0629 45.1275 21.8727 45.3562 21.6655L45.1322 21.8377L46.0959 20.889C46.2788 20.7693 46.5764 20.5611 46.7555 20.4752C46.9563 20.2172 47.2995 19.9217 47.5281 19.7151L47.4137 19.8031C47.8084 19.3543 48.7695 18.4384 48.8766 18.3874C49.153 18.0611 46.5685 20.3393 48.7244 18.2353C49.5343 17.4258 49.318 17.8202 49.8111 17.3889C49.8111 17.3889 49.7759 17.4059 49.8159 17.3541C50.1639 16.9932 50.2332 16.9915 50.5389 16.7146C50.34 16.9407 50.0328 17.2492 49.9206 17.3355C50.0646 17.2662 50.6554 16.5942 50.9562 16.352C50.5464 16.6468 51.6192 15.6452 51.3161 15.8891C51.3996 15.7964 51.4852 15.7042 51.5717 15.6133C51.6641 15.5166 51.7229 15.4553 51.8851 15.2931C52.1632 15.0143 52.4399 14.7448 52.7087 14.488C53.2448 13.9761 53.7553 13.5096 54.1259 13.1814C54.3183 12.9423 54.5241 12.7218 54.7667 12.4788C54.4103 12.4792 54.0618 12.4687 53.6352 12.4622C53.2104 12.4556 52.7047 12.453 52.0807 12.469C52.3622 12.466 52.8432 12.4813 53.2446 12.4703C53.7023 12.5028 53.2229 12.5113 52.8292 12.519C52.4297 12.5268 52.1183 12.5339 52.8307 12.5635C52.5229 12.5533 52.8538 12.5291 53.1737 12.5393C53.7483 12.5466 54.2252 12.575 54.0172 12.6047L52.5883 12.662L53.0192 12.6776L51.0302 12.757C50.9832 12.7439 51.1651 12.7276 51.2617 12.7197C50.8004 12.724 50.3228 12.7285 49.8404 12.7332C49.4287 12.7319 49.013 12.7306 48.6033 12.7295C47.7839 12.7242 46.989 12.7158 46.2993 12.7212C46.0402 12.5382 42.9036 12.6426 41.7889 12.5304C42.0878 12.5828 42.2511 12.6754 42.0663 12.7134C42.3148 12.7212 42.8237 12.795 43.3873 12.7796C43.4774 12.7502 44.1735 12.717 43.7255 12.6836C45.2832 12.7043 43.5147 12.7637 43.9744 12.8319C42.2483 12.8139 41.2357 12.7069 40.1463 12.664L40.1189 12.6854L39.2962 12.6445C39.9684 12.6324 39.9351 12.5288 39.0687 12.565L39.1742 12.5701C38.6799 12.6137 37.6516 12.5626 36.8796 12.5694L36.3561 12.5093C35.5829 12.5161 35.5496 12.6276 35.2983 12.6946C34.0864 12.7024 33.3865 12.6108 32.5256 12.5565C32.1363 12.6052 30.321 12.6166 31.2828 12.6757C30.1896 12.633 30.4103 12.3722 28.5353 12.5166L29.022 12.5636C27.2293 12.5538 24.6729 12.4604 23.8469 12.5098C24.5083 12.6786 21.6079 12.6814 21.2891 12.8468C21.378 12.8091 20.7044 12.7964 20.6063 12.7762C20.4587 12.7956 20.2129 12.8146 19.9523 12.7803C20.6513 12.7471 19.4609 12.6087 20.7973 12.6755C20.1209 12.562 19.2495 12.4736 17.7681 12.4792L17.7903 12.5482L18.9626 12.5272C18.8443 12.5781 19.4475 12.5743 19.6949 12.5979C17.5142 12.6365 19.9804 12.7592 17.7511 12.7502C17.5358 12.7055 17.6753 12.724 17.0959 12.7062C17.3683 12.7086 17.4174 12.7561 16.9783 12.7571L16.5566 12.7019C15.7781 12.8169 17.8453 12.7768 17.1809 12.8576C18.0417 12.9118 19.5327 12.9409 19.255 13.0288C17.8492 13.0607 17.9903 12.8639 16.5206 12.904L16.3641 12.9414C15.8471 12.9159 15.7636 12.8553 15.4805 12.8185C15.455 12.84 15.3236 12.8558 14.9916 12.862C14.1185 12.7732 13.5391 12.7558 12.7339 12.6593C14.8773 12.7319 14.5662 12.5917 16.7785 12.6565C16.4319 12.6279 14.8744 12.6069 14.7787 12.5116L14.7994 12.5809C14.0801 12.5449 13.3611 12.5094 12.4577 12.5321L13.0091 12.5708C11.8119 12.5228 11.0186 12.6756 10.0739 12.5607C10.4076 12.5546 10.6784 12.5567 10.8844 12.5671C10.268 12.5364 9.49489 12.5433 8.82502 12.555L7.43909 12.441C7.45126 12.4753 6.57306 12.4772 6.99665 12.5319C5.99885 12.5845 5.52842 12.4816 4.95185 12.4644C3.9301 12.5378 5.83711 12.4971 5.93722 12.5924C5.2332 12.6085 4.50823 12.6093 3.85995 12.5983C3.53582 12.5927 3.23079 12.5843 2.95729 12.5734C2.82055 12.5669 2.69165 12.5609 2.57204 12.5551C2.51224 12.5516 2.45479 12.548 2.39996 12.5446C2.37248 12.5428 2.34578 12.541 2.31961 12.5391C2.30993 12.5381 2.28598 12.5374 2.28847 12.5361C2.28756 12.5349 2.28664 12.5344 2.28611 12.5331C2.28965 12.5327 2.28258 12.5311 2.29514 12.5308C2.31189 12.53 2.32812 12.5291 2.34369 12.5283C2.37497 12.5264 2.40389 12.5247 2.43058 12.5232C2.48371 12.5191 2.52755 12.5157 2.56209 12.5131C2.63106 12.5063 2.66233 12.4992 2.65501 12.4908C2.63368 12.5017 2.48122 12.5058 2.29462 12.5072C2.28062 12.5079 2.28978 12.5073 2.28664 12.5075L2.28441 12.5054C2.29724 12.4948 2.28245 12.5058 2.28454 12.5035C2.28245 12.5043 2.28455 12.5033 2.29017 12.5028C2.29292 12.4941 2.2975 12.5385 2.30037 12.5013L2.30299 12.4872L2.30325 12.4855L2.30339 12.4853C2.30352 12.4816 2.30194 12.5173 2.3026 12.5021H2.30247H2.30234H2.30169H2.30051L2.29567 12.502C2.28507 12.5012 2.28834 12.5013 2.28428 12.5007C2.2708 12.4963 2.2517 12.5004 2.24084 12.5209C2.23822 12.52 2.23691 12.5062 2.23887 12.5134C2.23926 12.5131 2.23914 12.5268 2.23914 12.5152V12.4905V12.4873V12.4869C2.23914 12.4834 2.23953 12.5158 2.2394 12.5021V12.502L2.23952 12.5018L2.23979 12.5013L2.24018 12.5001C2.24031 12.4995 2.24057 12.4987 2.24123 12.498C2.24228 12.4954 2.24411 12.4935 2.24607 12.4918C2.25353 12.4853 2.26452 12.483 2.27342 12.4838C2.27957 12.4846 2.29095 12.4888 2.28022 12.4882H2.27434L2.27146 12.488L2.27774 12.4877L2.30339 12.4867H2.30495C2.27276 12.487 2.29632 12.4867 2.28912 12.4868H2.28965H2.29043H2.29357L2.29998 12.4867L2.31281 12.4864L2.33819 12.4856L2.43935 12.4812C2.50635 12.4774 2.57256 12.4716 2.63734 12.4635C2.5299 12.4567 2.41867 12.4516 2.30561 12.4475L2.29501 12.4473L2.28978 12.4471H2.28912C2.28559 12.4471 2.31739 12.4467 2.30352 12.4469H2.30221H2.29946L2.27826 12.4467C2.26701 12.4467 2.2725 12.4467 2.27512 12.4466C2.27748 12.4465 2.28088 12.4458 2.28219 12.4454C2.27957 12.4454 2.27695 12.4443 2.27446 12.4445C2.26936 12.4439 2.26452 12.4453 2.25916 12.4466C2.23652 12.4551 2.22173 12.4779 2.22264 12.4999C2.22239 12.5246 2.23298 12.5398 2.24751 12.5539C2.26204 12.5666 2.27303 12.5725 2.2886 12.5814C2.2602 12.5755 2.24555 12.5618 2.23129 12.5459C2.22487 12.5381 2.22029 12.5306 2.21663 12.5228C2.21493 12.5199 2.21296 12.5126 2.21191 12.5126C2.21204 12.5154 2.21178 12.5186 2.211 12.5213L2.20943 12.4935L2.2093 12.4901L2.20917 12.4884C2.20904 12.4751 2.20943 12.5054 2.2093 12.5022V12.5013L2.20891 12.4995C2.20839 12.4982 2.20838 12.497 2.20812 12.4958C2.19935 12.4624 2.21231 12.4138 2.25274 12.3841C2.25759 12.3803 2.26321 12.3774 2.26923 12.3741C2.27303 12.3727 2.2763 12.3714 2.27067 12.3707C2.25183 12.3693 2.3081 12.3676 2.29226 12.3667C2.35913 12.3631 2.42796 12.3593 2.49968 12.3555C2.6431 12.3485 2.79816 12.3424 2.97286 12.3384C3.32239 12.3301 3.75004 12.3295 4.3194 12.3438C4.34741 12.3223 3.9619 12.2806 4.40054 12.28C5.41705 12.2965 4.66605 12.3724 4.98365 12.4223C4.20111 12.3944 3.83693 12.4218 3.38284 12.4784L3.5917 12.5148C3.62323 12.4958 4.11474 12.4949 4.2596 12.4766L4.38615 12.5508C4.32778 12.4687 5.11398 12.4062 5.7319 12.4368C5.10744 12.4963 5.27612 12.4932 5.10626 12.5866C5.97517 12.6754 6.08666 12.4996 7.06065 12.5936C6.98763 12.5671 6.1373 12.5475 6.87221 12.5274C7.48031 12.5238 7.39931 12.5877 7.80733 12.6082C7.34788 12.5398 7.46592 12.489 6.968 12.4079C5.88736 12.3992 6.53211 12.4088 5.47581 12.379L6.36997 12.3211C5.45435 12.31 5.70416 12.2429 5.62865 12.2167C7.19216 12.1471 6.80704 12.3206 7.81296 12.3027C8.29792 12.3495 6.87064 12.3126 7.62936 12.3617C8.56998 12.3517 7.84384 12.4063 8.89962 12.436L8.72282 12.4046C9.04565 12.3639 9.36469 12.414 9.73816 12.421C10.1489 12.4416 9.27309 12.6587 10.962 12.6633C10.8791 12.6442 10.8488 12.6322 10.8488 12.6242L9.20138 12.0496C10.9125 12.051 12.8843 12.0351 14.8658 11.9966C15.3324 11.8843 13.4514 11.9039 13.5727 11.8533L12.669 11.8763C12.7197 11.924 14.5626 11.891 13.7463 11.9751C12.1503 11.941 11.4262 11.9957 9.91208 11.8975C10.3825 11.785 11.9061 11.9175 12.8911 11.8305C12.4776 11.8379 12.1284 11.8254 11.7895 11.8093C12.7143 11.7945 13.7041 11.7788 14.7564 11.7621L14.9928 11.7893C14.2836 11.802 13.793 11.8116 13.7298 11.8156C14.6701 11.8058 15.4631 11.8681 15.5257 11.9504L15.3587 11.9533L15.6984 11.9789C15.9181 11.9709 16.1388 11.9656 16.3581 11.9603ZM51.1575 8.15508C51.1227 8.10902 51.0973 8.07068 51.082 8.03914C51.0978 8.07185 51.0651 8.05013 51.1575 8.15508ZM4.57798 13.3158C3.9509 13.3234 3.32121 13.3311 2.69767 13.3387L2.46421 13.3418L2.34762 13.3434L2.28952 13.3442C2.26517 13.344 2.23979 13.3437 2.21506 13.3414C2.01511 13.3273 1.82169 13.2371 1.68115 13.0954C1.53943 12.9536 1.45018 12.7645 1.43487 12.5598C1.41813 12.368 1.47387 12.159 1.58915 11.9995C1.3913 12.3054 1.43213 12.6926 1.61232 12.9295C1.78872 13.1743 2.07425 13.2693 2.29383 13.2468C2.68641 13.2124 2.96789 13.1819 3.06813 13.1567C3.16837 13.1313 3.08723 13.111 2.75407 13.0975C2.67084 13.0949 2.57178 13.092 2.45597 13.0885C2.39865 13.0873 2.33728 13.0859 2.27146 13.0846C2.21192 13.0821 2.14923 13.0698 2.08668 13.0461C1.96236 12.9988 1.83661 12.8986 1.76568 12.7475C1.69515 12.5991 1.68521 12.3957 1.784 12.2196C1.784 12.2196 1.81201 12.1748 1.84747 12.1367C1.88293 12.0984 1.92442 12.0676 1.92442 12.0676C1.84917 12.1369 1.77838 12.2405 1.75024 12.3697C1.72132 12.4976 1.73846 12.6508 1.81698 12.7803C1.89392 12.91 2.03277 13.0125 2.19215 13.0406C2.23377 13.0483 2.26792 13.0503 2.31791 13.0503L2.46317 13.0516C2.56 13.0529 2.65697 13.0542 2.75328 13.0554C3.06472 13.0842 3.72269 13.1516 4.30017 13.2141C4.58884 13.2467 4.85737 13.2768 5.05261 13.2988C5.24759 13.3223 5.36916 13.3391 5.36367 13.3437C5.14304 13.3892 4.82151 13.3396 4.42056 13.3533L4.57798 13.3158ZM5.46966 13.0431C6.18062 13.0249 6.01875 13.061 6.12906 13.0935C5.87886 13.0894 5.62905 13.0852 5.38211 13.0812C5.47646 13.073 5.52318 13.0615 5.46966 13.0431ZM6.0864 13.1259C6.00657 13.1267 5.9384 13.1283 5.90281 13.1326L6.0864 13.1259ZM10.2592 11.8328C10.2277 11.832 10.2163 11.8316 10.1862 11.8308C10.3541 11.8283 10.5224 11.8258 10.698 11.8232C10.6298 11.8284 10.5002 11.8325 10.2592 11.8328ZM8.81665 11.9123L8.64797 11.8529C8.80448 11.8507 8.96426 11.8483 9.1277 11.8461C9.07379 11.8729 9.01739 11.8963 8.81665 11.9123ZM4.17965 12.1078C3.88731 12.0365 2.90808 12.0332 2.84802 11.9509C2.78547 11.9297 2.99157 11.9217 3.22267 11.9149C3.48059 11.9127 3.75579 11.9105 4.04787 11.908C4.05795 11.92 4.11605 11.9312 4.21289 11.9419C3.9246 11.9522 3.73198 11.9726 3.84883 12.0233C4.59002 11.913 4.51295 12.1018 5.3142 12.0735C5.56911 12.1315 4.42252 12.131 4.17965 12.1078ZM48.3591 17.9947C48.3481 18.0159 48.3058 18.0843 48.2444 18.1781L48.6724 17.8078C49.3717 17.0832 49.8582 16.4293 50.571 15.8605C50.8529 15.5424 50.9751 15.3437 51.0972 15.1588C50.9527 15.308 50.8183 15.4484 50.7088 15.5676C48.8067 17.2588 49.8831 16.6154 48.3591 17.9947ZM48.3545 13.2517C48.4583 13.2568 48.4956 13.2704 48.4956 13.2704C46.2461 13.1194 44.3938 13.0754 43.1811 13.0813C43.4163 13.0215 44.5041 12.9749 45.0207 12.9502L44.5628 12.882L44.2769 12.9356L43.4822 12.8736C43.7044 12.8277 44.3463 12.8372 44.7752 12.8019C44.8125 12.815 46.1863 12.8947 46.5702 12.9366L45.4726 12.9838C45.769 12.9647 47.225 12.9805 47.8024 12.9978C47.8138 13.0321 46.8187 13.0848 46.6934 13.0106C46.5749 13.0613 47.7221 13.0618 46.9967 13.1162C47.8563 13.1704 49.2241 13.1251 49.8586 13.1001L49.966 13.0148C50.6635 12.9816 50.4235 13.1175 51.3215 13.0682C50.7783 13.06 50.8238 13.0365 50.9095 13.0145C50.9934 12.9923 51.1164 12.9716 50.6414 12.9682C50.9523 12.936 50.6557 12.8781 51.669 12.8843C52.0375 12.9409 52.2977 12.9232 52.5899 12.9037C52.8735 12.8845 53.187 12.8633 53.4719 12.9131C53.7445 12.8973 53.6907 12.8819 53.643 12.8682C53.5967 12.8546 53.559 12.8432 53.9027 12.8349C53.8697 12.8693 53.8146 12.9267 53.7462 12.9981C53.2363 13.4659 52.9928 13.6734 52.8439 13.7824C52.6963 13.8899 52.6446 13.8976 52.5519 13.9321C52.7735 13.6999 52.9546 13.5313 53.1273 13.379C53.3138 13.2189 53.4643 13.0899 53.6297 12.9479C53.4766 12.9314 53.2785 12.9203 52.9556 12.9273C53.1508 12.9464 53.3457 12.9656 53.587 12.9656L52.6789 13.729C52.8474 13.5322 52.9887 13.3881 53.1281 13.2566C52.888 13.4854 52.6591 13.6847 52.4559 13.8473C52.3456 13.9363 52.2439 14.0184 52.1499 14.0941C52.5065 13.737 52.8388 13.4035 53.0342 13.1949C52.8372 13.2004 52.6927 13.2087 52.6205 13.2218C52.6217 13.2218 52.6422 13.2617 52.6409 13.2617C52.3017 13.2984 51.9475 13.2697 51.7742 13.2404C51.4372 13.2383 51.105 13.2233 50.8242 13.2154C50.5491 13.2073 50.3157 13.2065 50.2357 13.2323L50.5176 13.2688C49.6046 13.2573 49.5028 13.2522 48.3545 13.2517ZM18.4306 13.3423C18.9838 13.1963 19.5936 13.067 22.1748 13.0927L21.9715 13.0827C23.2723 12.991 24.5079 13.2039 26.0905 13.1021C25.3225 13.0469 25.3638 13.052 24.516 12.926L25.34 12.9672C25.1117 12.8876 25.9336 12.9287 26.5381 12.925L26.0045 12.8303C25.6416 12.8576 24.7009 12.8673 24.7285 12.8459C24.9345 12.8563 23.4865 12.9652 22.6999 12.9377C22.781 12.8737 24.4419 12.8995 23.7003 12.7948C24.3538 12.8387 24.435 12.7748 25.1182 12.7973C24.463 12.7533 24.9561 12.7099 24.4682 12.6633L25.5886 12.6852C25.6178 12.6637 23.9569 12.6377 24.8749 12.5589C25.3239 12.5924 26.5224 12.5504 26.5439 12.6192L26.5715 12.598C27.4112 12.5832 26.9408 12.6958 27.972 12.6564C27.9841 12.6911 27.7875 12.715 27.4182 12.7079C27.1059 12.6926 27.0581 12.6451 26.415 12.6354C26.1267 12.6895 27.1907 12.6286 26.7444 12.72C26.5226 12.7654 25.0466 12.6807 25.5169 12.7832L26.3551 12.7684C26.3765 12.8376 26.9836 12.8336 26.9664 12.8893C27.479 12.9148 27.9627 12.837 28.4863 12.8972C28.7036 12.9418 28.324 13.0249 29.1901 12.9888C29.8668 12.8866 31.861 12.9065 32.6079 12.921L33.2616 12.9649C33.2061 13.0073 32.0128 12.9593 32.4324 13.0143L33.4518 13.0309L33.3731 13.0043C33.7108 12.9984 34.0563 13.0271 34.3645 13.0422C34.047 12.9924 33.3122 13.0124 33.4583 12.9405C33.9367 12.9265 34.0097 12.8995 34.45 12.9134C34.354 12.9083 34.2712 12.9014 34.2835 12.8911C35.2521 12.86 35.2188 12.9716 35.4617 12.9952C36.4356 13.0887 34.48 13.0821 34.6046 13.1561L37.4482 13.1958C37.2053 13.1722 36.9607 13.1491 37.0524 13.1196C37.7499 13.0864 37.0683 13.0636 38.0475 13.0673C37.9777 13.1657 39.2806 13.1287 39.9723 13.1853C40.2954 13.145 40.362 13.137 39.6552 13.1357C39.7364 13.0719 40.6851 13.0963 41.0224 13.0907C41.2179 13.1065 41.5513 13.1157 41.7625 13.1301C41.4794 13.1618 41.6003 13.2019 42.213 13.229L42.2486 13.2426C41.2443 13.26 39.6832 13.3298 39.0534 13.2644L39.2314 13.296C38.0688 13.3512 36.7016 13.1813 36.1656 13.3019C36.2151 13.3497 35.932 13.3129 35.9523 13.3819L35.0963 13.328L35.2743 13.3594L33.8182 13.3438L33.8567 13.3566C33.1647 13.2924 32.6226 13.2418 32.1894 13.2014C32.1879 13.1714 32.2329 13.162 32.002 13.1399C31.7706 13.125 31.5949 13.1226 31.4384 13.1267C31.4373 13.1264 31.4373 13.1264 31.4373 13.1262V13.1267C31.08 13.1353 30.842 13.1785 30.402 13.1962L31.7559 13.2036C31.8662 13.2548 31.7511 13.3079 31.0877 13.3437C31.359 13.3455 31.4726 13.3853 31.1368 13.3912C31.0999 13.3778 30.2497 13.3586 30.5736 13.3177C29.2874 13.299 27.2053 13.4333 25.2525 13.3362C26.6555 13.3947 24.1281 13.4046 25.6856 13.4257C24.5986 13.5075 24.7502 13.3452 23.6421 13.3579C23.5475 13.3874 24.2454 13.3541 24.5 13.4121C22.6576 13.4448 21.3913 13.2799 19.6089 13.3048L19.5326 13.3686C19.1948 13.3608 18.8203 13.3519 18.4306 13.3423ZM14.9046 13.2629C14.5616 13.2557 14.2137 13.2485 13.8601 13.2409C13.8946 13.2403 13.9267 13.2398 13.9627 13.2391L12.932 13.1877C13.5654 13.1628 13.9826 13.0925 13.0963 13.0599C13.1707 13.0864 12.9118 13.1186 13.2198 13.134C12.6258 13.1722 11.3226 13.2093 11.6624 13.1129C12.8039 13.204 11.9285 12.9902 12.8254 13.0579C12.3441 12.9952 11.8674 13.0233 11.4128 12.9953C11.886 13.0477 11.3025 13.1143 10.5918 13.1394C10.2824 13.1239 9.44503 13.1387 8.93089 13.1132C9.11422 13.0545 8.66655 13.0207 9.50432 13.0059C9.19693 12.9903 8.72138 12.978 8.18852 13.0085C8.39973 13.0185 8.76915 13.0259 8.7435 13.0471C8.39973 13.1013 7.99708 13.0989 7.77488 13.1221C7.59769 13.119 7.41894 13.1157 7.2449 13.1127C7.29685 13.1075 7.34187 13.1008 7.37379 13.0924L6.78506 13.0406C7.5693 13.0682 7.14767 13.0132 7.13746 12.9787C7.15853 13.0476 6.63261 12.9876 6.36422 12.9854L6.94732 12.9125C6.66545 12.876 5.95227 12.9651 6.09949 12.8931C7.3365 12.8642 7.81217 12.8765 8.93089 12.8982L8.47681 12.955C9.73907 12.995 9.25529 12.8579 10.6716 12.8605C11.2603 12.9123 12.8014 12.8641 12.8306 12.9677C12.6532 12.936 13.7125 12.8754 14.1978 12.9224C14.7344 13.017 16.3566 13.0297 15.8651 13.0729C15.4269 13.0742 14.837 13.022 14.4846 13.0836L15.3348 13.1034L14.7768 13.155C15.0652 13.1366 15.0372 13.187 14.9046 13.2629ZM6.64936 11.1561C6.65865 11.1557 6.67082 11.1552 6.6822 11.1548C6.66964 11.1549 6.65747 11.1549 6.64569 11.155L6.64936 11.1561Z" fill="white"/>
<path d="M47.9498 20.4232C48.1393 20.2669 48.5641 19.8367 48.5163 19.9563C48.4871 19.9064 47.7465 20.7139 47.9498 20.4232Z" fill="white"/>
<path d="M48.4225 19.8731C48.462 19.8525 48.4561 19.8884 48.6494 19.698L48.1112 20.2161L48.4225 19.8731Z" fill="white"/>
<path d="M48.6889 19.0679C48.9907 18.8249 49.1798 18.6688 49.6047 18.2386C49.6691 17.9819 48.8779 18.9118 48.5944 19.0157C49.3689 18.2231 49.6936 18.0665 50.3462 17.4302C50.0669 17.7898 48.7856 19.1175 48.6889 19.0679Z" fill="white"/>
<path d="M48.2193 19.2944L48.6768 18.8804L48.6395 18.9289L48.1817 19.3434L48.2193 19.2944Z" fill="white"/>
<path d="M47.6403 17.5972C47.6494 17.5279 47.9505 17.2859 48.1035 17.1475C47.9871 17.2679 47.8292 17.4415 47.6403 17.5972Z" fill="white"/>
<path d="M45.2754 5.10012C45.2754 5.10012 44.4516 4.26183 43.6279 3.42355L43.4736 3.26652L43.3969 3.18839L43.3587 3.14953C43.3418 3.13212 43.3073 3.09679 43.2845 3.06918C43.0794 2.83246 42.9623 2.52742 42.9465 2.23233C42.9282 1.93633 43.0076 1.647 43.1506 1.41446C43.2952 1.17865 43.4894 1.01142 43.7025 0.89927C43.9142 0.789479 44.1319 0.744854 44.3226 0.741714C44.5141 0.73805 44.6798 0.773775 44.8099 0.818791C44.9403 0.86433 45.0357 0.918375 45.0979 0.957633C45.1604 0.997414 45.1911 1.02188 45.1911 1.02188C44.9007 0.802303 44.5275 0.706513 44.1726 0.753099C43.8166 0.796021 43.4742 0.988908 43.2511 1.2734C43.0216 1.55959 42.9095 1.94405 42.9567 2.31962C42.9795 2.5074 43.0411 2.69427 43.1404 2.86308C43.19 2.94748 43.2488 3.02704 43.315 3.09954C43.3542 3.13997 43.3939 3.18067 43.4337 3.22163C43.9542 3.75279 44.5404 4.35042 45.2754 5.10012Z" fill="white"/>
<path d="M44.5568 13.6179C45.8191 13.658 46.3798 13.7311 47.666 13.7498C45.9748 13.8354 45.4322 13.6162 44.0123 13.7038L44.5568 13.6179Z" fill="white"/>
<path d="M45.0024 13.9569C45.2116 13.8768 44.0284 13.8631 44.2117 13.8044C45.0623 13.8238 44.6078 13.8806 45.3799 13.8737L45.0024 13.9569Z" fill="white"/>
<path d="M50.8101 12.6334C50.8101 12.6334 50.6704 12.6231 50.5308 12.6127C50.4351 12.6023 50.3395 12.5918 50.3395 12.5918C50.3395 12.5918 50.4166 12.5956 50.4935 12.5995C50.5977 12.6033 50.7018 12.6072 50.7018 12.6072L50.8101 12.6334Z" fill="white"/>
<path d="M39.2497 13.8857L39.3892 13.9038L38.7562 13.9292L39.2497 13.8857Z" fill="white"/>
<path d="M39.5283 13.9223L39.3888 13.9038L39.5283 13.9223Z" fill="white"/>
<path d="M50.2305 12.4616C50.2305 12.4616 50.3727 12.4573 50.515 12.4531C50.7424 12.4488 50.97 12.4446 50.97 12.4446L51.4189 12.4814L50.2305 12.4616Z" fill="white"/>
<path d="M45.2093 12.8911L45.7183 12.9166C45.6172 12.9118 44.9211 12.9448 45.2093 12.8911Z" fill="white"/>
<path d="M35.3841 13.9198L34.765 13.8891L34.8282 13.8811L35.4453 13.9119L35.3841 13.9198Z" fill="white"/>
<path d="M41.2261 12.6704C41.5777 12.6089 40.2109 12.6538 40.9343 12.5994C41.5776 12.609 41.3165 12.6411 41.2261 12.6704Z" fill="white"/>
<path d="M33.7554 13.0878C33.6719 13.0878 33.5838 13.0857 33.4991 13.0789C33.6 13.0824 33.6848 13.0853 33.7554 13.0878Z" fill="white"/>
<path d="M33.7553 13.0878C34.025 13.0878 34.2946 13.0642 34.4795 13.0822C34.1434 13.11 34.021 13.0996 33.7553 13.0878Z" fill="white"/>
<path d="M30.6656 13.0734L30.9102 13.0691C30.6604 13.0388 30.7788 13.0433 31.0018 13.0675C31.2609 13.0698 31.2463 13.0893 31.2771 13.1026C31.329 13.1103 31.3805 13.1181 31.4365 13.1264C31.3567 13.1182 31.2849 13.1106 31.224 13.1042C30.8227 13.1046 30.5777 13.1016 30.6656 13.0734Z" fill="white"/>
<path d="M19.1899 14.1105C20.0928 14.0876 20.3266 14.0764 20.2775 14.0287C21.1347 14.0136 21.0017 14.0958 21.5186 14.1148C20.5488 14.1056 20.3504 14.1276 19.1899 14.1105Z" fill="white"/>
<path d="M21.5183 14.115C21.627 14.1163 21.7308 14.1175 21.8569 14.1188C21.7157 14.1204 21.6112 14.1183 21.5183 14.115Z" fill="white"/>
<path d="M34.2769 12.551L33.7157 12.478L33.9217 12.4881L34.2769 12.551Z" fill="white"/>
<path d="M17.8496 14.1346C18.017 14.1317 18.2855 14.1338 18.4173 14.1174C18.4655 14.1652 17.6827 14.1376 17.8496 14.1346Z" fill="white"/>
<path d="M21.3322 13.1978C21.4238 13.1687 22.0015 13.1861 22.2368 13.1748C21.8995 13.181 21.6247 13.2692 21.3322 13.1978Z" fill="white"/>
<path d="M15.2591 13.9376C15.4266 13.9346 15.684 13.9024 15.5726 13.863C15.8159 13.8863 16.1451 13.9706 15.2591 13.9376Z" fill="white"/>
<path d="M19.6823 13.2065L19.8112 13.1902L20.4292 13.2209L19.6823 13.2065Z" fill="white"/>
<path d="M21.8864 12.501C22.5814 12.558 20.7839 12.6384 21.9809 12.6867C20.4369 12.7465 22.0993 12.6059 20.9603 12.6152C21.6273 12.596 21.9541 12.5239 21.8864 12.501Z" fill="white"/>
<path d="M20.96 12.6155C20.8631 12.6184 20.758 12.6202 20.6441 12.6205C20.7701 12.6184 20.872 12.6168 20.96 12.6155Z" fill="white"/>
<path d="M11.179 12.9761C11.2799 12.9822 11.349 12.9886 11.4126 12.9954C11.3332 12.9907 11.2574 12.9848 11.179 12.9761Z" fill="white"/>
<path d="M17.3226 12.5681L18.3643 12.6536C17.6686 12.5966 15.9181 12.6003 16.0272 12.5149C16.594 12.4977 17.276 12.5203 17.5563 12.5571L17.3226 12.5681Z" fill="white"/>
<path d="M5.36589 14.1138L5.81592 14.1476L5.25401 14.1575C5.41496 14.1447 5.1238 14.0822 5.36589 14.1138Z" fill="white"/>
<path d="M5.14565 14.1591L5.25439 14.1572C5.23032 14.1595 5.19603 14.1604 5.14565 14.1591Z" fill="white"/>
<path d="M13.1491 13.0176C13.4857 13.0114 13.755 13.0138 14.062 13.0291C13.9346 13.0452 13.0961 13.0601 13.1491 13.0176Z" fill="white"/>
<path d="M2.08216 13.9754C2.08216 13.9754 2.10833 13.9786 2.15426 13.9842C2.17716 13.9861 2.2053 13.9892 2.2371 13.9901C2.25973 13.9906 2.28525 13.9914 2.31313 13.992C2.38275 13.9935 2.47565 13.9952 2.56843 13.9971C2.75425 14.0007 2.93994 14.0045 2.93994 14.0045C2.93994 14.0045 2.73724 14.0029 2.53454 14.0013C2.4839 14.0009 2.43339 14.0005 2.38575 14.0001C2.36194 14 2.33904 13.9998 2.31731 13.9996C2.28107 13.9988 2.24665 13.998 2.21498 13.9973C2.04173 13.9876 1.92866 13.9543 1.92866 13.9543C1.92866 13.9543 1.96687 13.9618 2.00534 13.9669C2.04369 13.9723 2.08216 13.9754 2.08216 13.9754Z" fill="white"/>
<path d="M3.79024 10.8652L3.91822 10.8491L4.53418 10.8797L4.4041 10.8957L3.79024 10.8652Z" fill="white"/>
<path d="M3.26386 12.4575C3.76754 12.4485 4.16077 12.525 4.02899 12.5411L3.05265 12.5377C3.30076 12.4707 3.3234 12.5397 3.88963 12.5228L3.26386 12.4575Z" fill="white"/>
<path d="M29.5183 10.9904C29.3001 10.9457 28.2322 10.9716 28.1762 11.0141C28.3197 11.0326 28.8987 11.0502 28.535 11.0773L27.6899 10.9674C26.566 11.0358 28.5443 11.1119 29.0994 11.1506C27.9544 11.1647 27.615 11.0925 26.3969 11.093C26.7561 11.0832 26.9831 11.0557 27.173 11.0322C27.2144 10.9548 26.0795 10.9891 25.2681 10.983C25.7846 10.9493 25.4858 10.9211 25.1095 10.8907C25.0417 10.8882 24.9968 10.8839 24.9648 10.8787C24.921 10.875 24.8797 10.8715 24.837 10.8678L24.9343 10.8679C24.9275 10.8593 24.9489 10.8488 25.0191 10.8344C25.6998 10.857 26.2205 10.7923 26.6587 10.7913C26.2256 10.917 28.1512 10.8203 28.7022 10.859L29.3385 10.8715L29.5765 10.8717C29.6244 10.858 29.5566 10.8406 29.1937 10.8157C29.4965 10.8405 30.5066 10.8318 30.4133 10.8723L32.7184 10.8741C32.7901 10.869 32.862 10.8626 32.9151 10.8535C32.9949 10.8615 33.0083 10.8679 32.9978 10.8744L43.041 10.8825C42.5455 10.8924 42.1169 10.9211 41.606 10.9349C42.3727 11.0184 40.7683 10.95 40.9933 11.029C41.338 11.0577 41.8423 11.0487 42.1429 11.0294C42.2548 11.0693 41.8266 11.1047 41.8761 11.1523C40.6094 11.2024 40.4156 11.0116 39.1773 11.0405C39.2263 11.0883 39.6091 11.1302 38.7986 11.1236L39.0045 11.134C37.7067 11.0805 37.9932 11.2421 37.1763 11.1109L37.1978 11.1799C36.609 11.128 35.4636 11.1276 34.8179 11.118L34.8564 11.1314C33.0456 11.0523 33.8399 11.1146 31.8065 11.0815L32.7423 11.162C32.0408 11.1952 31.8826 11.1077 31.3791 11.1167C31.4151 11.1301 31.2984 11.1804 31.774 11.193L29.3068 11.0703C28.7183 11.0184 29.4267 11.0199 29.5183 10.9904Z" fill="white"/>
<path d="M26.397 11.093C26.2664 11.0967 26.118 11.0983 25.9428 11.0956C26.1121 11.0946 26.2576 11.0938 26.397 11.093Z" fill="white"/>
<path d="M43.7466 10.8831L43.0411 10.8825C43.2597 10.8783 43.4875 10.877 43.7466 10.8831Z" fill="white"/>
<path d="M22.8603 10.9424C23.2881 10.9068 22.54 10.8925 22.4654 10.866L23.9976 10.8673C23.9907 10.8938 24.1424 10.9237 24.1116 10.9479L22.8603 10.9424Z" fill="white"/>
<path d="M24.4412 10.8171C24.493 10.8357 24.6553 10.8522 24.8369 10.8679L23.9976 10.8673C24.0028 10.8472 24.0969 10.8292 24.4412 10.8171Z" fill="white"/>
<path d="M24.2793 12.2358L24.5506 12.2382L24.9609 12.2587L24.2793 12.2358Z" fill="white"/>
<path d="M28.5215 12.1189C28.1975 12.1592 27.5828 12.1285 27.3772 12.1183C28.0856 12.1196 27.7786 12.1043 28.5215 12.1189Z" fill="white"/>
<path d="M27.6463 12.5505L28.3291 12.5734L28.2655 12.5814L27.6463 12.5505Z" fill="white"/>
<path d="M48.9617 11.1545C49.0736 11.156 49.1823 11.1574 49.2954 11.159C49.1424 11.1593 49.0427 11.1573 48.9617 11.1545Z" fill="white"/>
<path d="M43.1027 11.0888C44.7315 11.0113 42.0356 11.0244 42.5472 10.9252L43.4335 10.9581L43.3582 10.9315L44.4392 10.9401C44.2174 10.9857 44.0507 10.9886 44.0989 11.0363C45.5421 11.0176 44.5539 10.9795 45.6126 10.9192L47.2256 10.9278L47.095 10.9136C47.2308 10.9146 47.2909 10.9206 47.3375 10.9284C47.3375 10.9284 48.6964 10.9358 50.0554 10.9433C50.2195 10.9442 50.3836 10.9451 50.5451 10.946C50.5726 10.9469 50.5996 10.9479 50.6258 10.9488C50.6804 10.9505 50.7313 10.952 50.775 10.9535C50.8667 10.9562 50.928 10.9582 50.928 10.9582C51.0549 10.9772 51.0938 10.9986 51.1096 11.0242C51.1317 11.0497 51.1207 11.0794 51.3115 11.1146C51.1319 11.1144 50.9186 11.1271 50.723 11.1279C50.675 11.1281 50.6292 11.1275 50.5879 11.1258C50.4984 11.1226 50.4179 11.1195 50.3492 11.1171C50.1579 11.1084 50.0332 11.0938 50.0088 11.07C50.0473 11.0832 50.1232 11.1095 49.8908 11.1207L49.2278 11.0422L49.86 11.0172C49.1934 10.939 47.0408 10.9564 46.6515 11.0049C47.8755 11.0316 47.2613 11.1258 48.9668 11.0747C48.8902 11.0989 48.5779 11.1414 48.9619 11.1546C46.9636 11.1269 45.1725 11.1703 43.1027 11.0888Z" fill="white"/>
<path d="M45.548 5.26763L45.5532 5.28542C45.5303 5.25577 45.5242 5.24472 45.548 5.26763Z" fill="white"/>
<path d="M46.0307 5.73301L46.6533 6.48781L45.5849 5.40874L45.5532 5.28442C45.6363 5.39107 45.9893 5.79111 46.1533 5.91883L46.0307 5.73301Z" fill="white"/>
<path d="M47.4132 7.32752C46.8784 6.7533 46.963 6.72883 47.2905 7.00639C46.8065 6.47183 46.9632 6.79649 46.67 6.38808C46.721 6.3602 47.3254 7.01084 47.4624 7.16237L47.4132 7.32752Z" fill="white"/>
<path d="M50.9269 10.7839C50.9282 10.7852 50.9317 10.7435 50.9304 10.7422L51.0508 10.8505C51.0483 10.8482 50.9245 10.7814 50.9269 10.7839Z" fill="white"/>
<path d="M50.9302 10.7421L50.8166 10.6407C50.8466 10.637 50.8769 10.6347 50.9146 10.6493C50.9146 10.6493 50.9221 10.6762 50.9259 10.6991C50.9298 10.7225 50.9302 10.7421 50.9302 10.7421Z" fill="white"/>
<path d="M49.9961 9.85143C49.8306 9.69413 49.6489 9.51852 49.4301 9.30273L49.9961 9.85143Z" fill="white"/>
<path d="M50.4463 10.2737L50.4263 10.268L49.9963 9.85156C50.1571 10.0024 50.3016 10.1379 50.4463 10.2737Z" fill="white"/>
<path d="M50.8169 10.6407C50.7829 10.6449 50.7488 10.6501 50.7144 10.6428C50.7059 10.6409 50.6973 10.6383 50.6887 10.6347C50.6863 10.6336 50.6849 10.6332 50.6817 10.6313C50.6726 10.623 50.663 10.6146 50.6532 10.6059C50.6338 10.5881 50.613 10.569 50.5908 10.5486C50.5026 10.4661 50.3942 10.3588 50.2589 10.2183L50.4261 10.2677C50.4261 10.2677 50.5727 10.4098 50.7194 10.552C50.7681 10.5963 50.8169 10.6407 50.8169 10.6407Z" fill="white"/>
<path d="M32.6123 12.4692L33.229 12.4999L33.1637 12.5082L32.5474 12.4775L32.6123 12.4692Z" fill="white"/>
<path d="M36.1709 12.4197C36.3233 12.4292 36.4389 12.4392 36.5439 12.4494C36.3832 12.4435 36.2555 12.4345 36.1709 12.4197Z" fill="white"/>
<path d="M38.8163 12.7892C39.5417 12.7347 37.8156 12.7171 39.1589 12.6931C39.2773 12.6425 38.6476 12.577 38.0151 12.6024C38.0653 12.6499 38.6313 12.6328 38.2425 12.6815C37.8224 12.6264 37.6627 12.6639 37.809 12.5921C37.1022 12.5472 37.0235 12.4962 36.5439 12.4495C37.3983 12.4811 39.1921 12.4073 40.2763 12.4996C40.8739 12.5861 40.5115 12.7039 40.514 12.8286C40.4239 12.8577 38.8747 12.8717 38.8163 12.7892Z" fill="white"/>
<path d="M37.6748 12.9137C37.339 12.9198 37.2364 12.9147 37.0305 12.9045C37.0861 12.8617 37.4034 12.9116 37.6748 12.9137Z" fill="white"/>
<path d="M45.39 11.9746C45.454 11.9924 46.0615 12.0144 45.9309 12.045L45.01 12.0226C45.2262 12.0196 45.3024 11.9979 45.39 11.9746Z" fill="white"/>
<path d="M44.6064 12.0129L45.0103 12.0225C44.9094 12.0241 44.7844 12.0216 44.6064 12.0129Z" fill="white"/>
<path d="M45.4341 11.9636C45.4194 11.9673 45.4062 11.9706 45.39 11.9747C45.3768 11.9709 45.3793 11.9671 45.4341 11.9636Z" fill="white"/>
<path d="M48.394 8.29312C48.379 8.32649 48.1033 8.02198 47.9648 7.86914C48.0853 7.98547 48.2595 8.14381 48.394 8.29312Z" fill="white"/>
<path d="M49.6912 5.55884L49.9668 5.79596C49.8646 5.71679 49.8125 5.67609 49.6912 5.55884Z" fill="white"/>
<path d="M52.9802 10.1704C52.9829 10.1827 52.998 10.2058 53.02 10.2352C52.9975 10.2064 52.9835 10.1844 52.9802 10.1704Z" fill="white"/>
<path d="M53.02 10.2346C53.1751 10.4299 53.7472 10.9393 53.9109 11.1642L53.8956 11.1302L54.2393 11.5102C53.9027 11.1684 53.1871 10.4604 53.02 10.2346Z" fill="white"/>
</svg>
