<svg width="754" height="700" viewBox="0 0 754 700" fill="none" xmlns="http://www.w3.org/2000/svg">
<path d="M250.59 345.85L366.929 286.857C369.953 285.32 371.84 282.375 371.84 279.179V89.5807C371.84 84.7448 367.62 80.8359 362.413 80.8359H102.722C97.5218 80.8359 93.2944 84.7448 93.2944 89.5807V279.179C93.2944 282.369 95.1813 285.314 98.2055 286.857L214.545 345.85C141.937 354.132 85.4902 411.582 85.4902 481.137C85.4902 556.359 151.463 617.553 232.558 617.553C313.653 617.553 379.626 556.359 379.626 481.137C379.639 411.571 323.192 354.113 250.585 345.838L250.59 345.85ZM177.214 98.334H289.608V306.151L232.575 335.068L177.14 306.961C177.146 306.845 177.212 306.742 177.212 306.632L177.214 98.334ZM352.989 274.007L308.454 296.589V98.3262H352.989V274.007ZM112.148 98.334H158.352V297.44L112.148 274.011V98.334ZM232.57 600.08C161.876 600.08 104.351 546.727 104.351 481.147C104.351 415.573 161.863 362.208 232.57 362.208C303.277 362.208 360.79 415.561 360.79 481.141C360.79 546.714 303.27 600.08 232.57 600.08V600.08Z" fill="white" fill-opacity="0.02"/>
<path d="M533.184 250.888H687.556C692.756 250.888 696.984 246.979 696.984 242.143C696.984 237.307 692.763 233.398 687.556 233.398L533.184 233.405C527.984 233.405 523.756 237.313 523.756 242.149C523.756 246.985 527.977 250.888 533.184 250.888V250.888Z" fill="white" fill-opacity="0.02"/>
<path d="M533.184 306.745H687.556C692.756 306.745 696.984 302.837 696.984 298.001C696.984 293.165 692.763 289.256 687.556 289.256L533.184 289.262C527.984 289.262 523.756 293.171 523.756 298.007C523.756 302.837 527.977 306.745 533.184 306.745V306.745Z" fill="white" fill-opacity="0.02"/>
<path d="M533.184 362.602H687.556C692.756 362.602 696.984 358.693 696.984 353.857C696.984 349.021 692.763 345.112 687.556 345.112L533.184 345.118C527.984 345.118 523.756 349.027 523.756 353.863C523.756 358.699 527.977 362.602 533.184 362.602V362.602Z" fill="white" fill-opacity="0.02"/>
<path d="M687.569 400.959H533.197C527.997 400.959 523.77 404.868 523.77 409.704C523.77 414.54 527.99 418.449 533.197 418.449H687.569C692.769 418.449 696.997 414.54 696.997 409.704C696.99 404.868 692.769 400.959 687.569 400.959Z" fill="white" fill-opacity="0.02"/>
<path d="M744.572 0H9.42763C4.22742 0 0 3.9089 0 8.7448V690.644C0 695.48 4.22069 699.389 9.42763 699.389H744.572C749.773 699.389 754 695.48 754 690.644L753.993 8.7448C753.993 3.9089 749.773 0 744.572 0V0ZM18.8525 17.483H455.934V681.898H18.8525V17.483ZM735.147 681.898H474.784V17.483H735.147V681.898Z" fill="white" fill-opacity="0.02"/>
<path d="M533.184 175.033H687.556C692.756 175.033 696.984 171.124 696.984 166.288V89.5915C696.984 84.7556 692.763 80.8467 687.556 80.8467L533.184 80.8528C527.984 80.8528 523.756 84.7617 523.756 89.5976V166.294C523.756 171.124 527.977 175.033 533.184 175.033V175.033ZM542.605 98.3363H678.127V157.55H542.605V98.3363Z" fill="white" fill-opacity="0.02"/>
<path d="M303.941 452.898L260.465 447.031L241.031 410.492C237.855 404.509 227.297 404.509 224.122 410.492L204.688 447.031L161.212 452.898C157.668 453.379 154.716 455.678 153.605 458.849C152.494 462.008 153.415 465.484 155.992 467.802L187.444 496.25L180.015 536.407C179.41 539.688 180.863 542.999 183.769 544.956C186.675 546.926 190.514 547.176 193.696 545.621L232.578 526.668L271.459 545.621C272.833 546.292 274.345 546.627 275.844 546.627C277.796 546.627 279.749 546.066 281.386 544.956C284.292 542.999 285.738 539.688 285.14 536.407L277.711 496.25L309.163 467.802C311.734 465.478 312.661 462.008 311.55 458.849C310.439 455.679 307.487 453.367 303.943 452.898L303.941 452.898ZM261.003 486.932C258.781 488.932 257.762 491.835 258.288 494.67L263.331 521.893L236.968 509.044C235.594 508.374 234.082 508.038 232.583 508.038C231.083 508.038 229.565 508.367 228.197 509.044L201.835 521.893L206.877 494.67C207.403 491.841 206.384 488.944 204.162 486.932L182.835 467.644L212.314 463.668C215.385 463.259 218.034 461.467 219.415 458.887L232.59 434.11L245.751 458.887C247.125 461.467 249.775 463.259 252.852 463.668L282.332 467.644L261.003 486.932Z" fill="white" fill-opacity="0.02"/>
</svg>
