<svg width="44" height="48" viewBox="0 0 44 48" fill="none" xmlns="http://www.w3.org/2000/svg">
<ellipse cx="21.5499" cy="9.80024" rx="1.64999" ry="1.79999" stroke="#FFA95A" stroke-width="2"/>
<path d="M11.4091 7.39998L21.6036 2L42.0998 13.5875V18.3124H1V13.5875L6.15089 10.6625M33.3004 18.3124V21.4624L34.5881 22.1374L33.837 38.2249H38.1294L37.3782 22.1374L38.6659 21.4624V18.3124M24.179 18.3124V21.4624L25.4667 22.1374L24.7156 38.2249H29.008L28.2568 22.1374L29.5445 21.4624V18.3124M13.5553 18.4249V21.5749L14.843 22.2499L14.0788 38.2249H18.9208L17.6331 22.2499L18.9208 21.5749V18.4249M4.43393 18.4249V21.5749L5.72165 22.2499C5.72165 22.2499 5.28563 31.9423 4.99228 38.2249H9.22239L8.51172 22.2499L9.79944 21.5749V18.4249M3.25352 40.9249V38.2249H40.0609V40.9249H42.0998V46.9998H1V40.9249H3.25352Z" stroke="#FFA95A" stroke-width="2"/>
</svg>
