<svg width="207" height="48" viewBox="0 0 207 48" fill="none" xmlns="http://www.w3.org/2000/svg">
<path d="M69.188 25V6.09473H73.3145L75.5029 19.5156L77.5332 6.09473H81.6597V25H78.8516V11.4473L76.7949 25H73.9868L71.772 11.6318V25H69.188ZM82.9517 6.09473H85.9048L87.5132 12.5547L88.436 16.9844L89.1348 12.5811L90.4927 6.09473H93.5908L90.4136 20.188C90.2642 20.9087 90.0972 21.5239 89.9126 22.0337C89.728 22.5347 89.4863 23.0005 89.1875 23.4312C88.8887 23.853 88.5283 24.1826 88.1064 24.4199C87.6846 24.6572 87.166 24.833 86.5508 24.9473C85.9443 25.0527 85.2324 25.0791 84.415 25.0264V22.3765C85.2236 22.4292 85.8345 22.3501 86.2476 22.1392C86.6606 21.9282 86.9243 21.4976 87.0386 20.8472L87.0649 20.6758L82.9517 6.09473ZM94.6851 20.4648V18.3818H97.4932V20.6494C97.4932 21.8975 98.0029 22.5215 99.0225 22.5215C99.5322 22.5215 99.9146 22.3633 100.169 22.0469C100.433 21.7305 100.565 21.1768 100.565 20.3857V18.896C100.565 18.0347 100.411 17.4194 100.104 17.0503C99.8047 16.6812 99.3125 16.4966 98.627 16.4966H97.8887V13.7939H98.7852C99.374 13.7939 99.8179 13.6445 100.117 13.3457C100.416 13.0381 100.565 12.5239 100.565 11.8032V10.7485C100.565 9.93994 100.433 9.37744 100.169 9.06104C99.9146 8.74463 99.5322 8.58643 99.0225 8.58643C97.9854 8.58643 97.4668 9.20605 97.4668 10.4453V11.9878H94.7378V10.5771C94.7378 9.05664 95.1069 7.89648 95.8452 7.09668C96.5835 6.28809 97.6733 5.88379 99.1147 5.88379C100.556 5.88379 101.65 6.29687 102.397 7.12305C103.153 7.94043 103.531 9.10938 103.531 10.6299V11.1177C103.531 13.1392 102.841 14.4355 101.461 15.0068C102.841 15.6045 103.531 16.9272 103.531 18.9751V20.4648C103.531 21.9854 103.153 23.1587 102.397 23.9849C101.65 24.8022 100.556 25.2109 99.1147 25.2109C97.6733 25.2109 96.5747 24.8022 95.8188 23.9849C95.063 23.1587 94.6851 21.9854 94.6851 20.4648ZM105.548 25V6.09473H113.643V8.79736H108.515V14.0708H112.588V16.7603H108.515V22.2974H113.643V25H105.548ZM115.489 25H118.534L121.026 16.3384L122.239 11.6846V25H124.915V6.09473H121.646L119.22 13.8994L118.139 18.0654V6.09473H115.489V25ZM117.137 1.88916H118.969C119.004 2.36377 119.119 2.68896 119.312 2.86475C119.514 3.04053 119.822 3.12842 120.235 3.12842C120.666 3.12842 120.991 3.04053 121.21 2.86475C121.43 2.68896 121.558 2.36377 121.593 1.88916H123.399C123.399 2.82959 123.131 3.56348 122.595 4.09082C122.059 4.61816 121.272 4.88184 120.235 4.88184C119.224 4.88184 118.459 4.62256 117.941 4.104C117.431 3.57666 117.163 2.83838 117.137 1.88916ZM130.584 25L133.906 15.2837L130.795 6.09473H133.88L136.121 13.0688L138.415 6.09473H141.17L138.059 15.2837L141.381 25H138.244L135.818 17.5249L133.366 25H130.584ZM142.186 25L145.508 15.2837L142.396 6.09473H145.481L147.723 13.0688L150.017 6.09473H152.772L149.661 15.2837L152.983 25H149.845L147.419 17.5249L144.967 25H142.186ZM154.459 25V6.09473H157.426V25H154.459ZM163.793 25V6.09473H168.276C169.796 6.09473 170.908 6.45068 171.611 7.1626C172.323 7.87451 172.679 8.96875 172.679 10.4453V11.1177C172.679 13.0513 172.038 14.3213 170.754 14.9277C172.231 15.499 172.969 16.8481 172.969 18.9751V20.5176C172.969 21.9766 172.587 23.0884 171.822 23.853C171.058 24.6177 169.937 25 168.46 25H163.793ZM166.76 22.2974H168.46C168.979 22.2974 169.366 22.1567 169.621 21.8755C169.875 21.5942 170.003 21.1152 170.003 20.4385V18.7905C170.003 17.9292 169.854 17.3315 169.555 16.9976C169.265 16.6636 168.777 16.4966 168.091 16.4966H166.76V22.2974ZM166.76 13.7939H167.92C168.509 13.7939 168.953 13.6445 169.251 13.3457C169.55 13.0381 169.7 12.5239 169.7 11.8032V10.7485C169.7 10.0718 169.581 9.57959 169.344 9.27197C169.106 8.95557 168.724 8.79736 168.197 8.79736H166.76V13.7939ZM174.762 25V6.09473H182.857V8.79736H177.729V14.0708H181.802V16.7603H177.729V22.2974H182.857V25H174.762ZM184.703 25V6.09473H187.669V14.3345L191.558 6.09473H194.524L190.398 14.519L194.524 25H191.479L188.592 17.4722L187.669 19.1992V25H184.703ZM195.104 25L198.124 6.09473H202.474L205.493 25H202.5L201.986 21.5723H198.334L197.82 25H195.104ZM198.717 19.0015H201.578L200.154 9.44336L198.717 19.0015Z" fill="white"/>
<path d="M72.9352 40.8617C71.5912 40.8617 70.4493 40.3673 69.5094 39.3784C68.5696 38.3802 68.0996 37.1628 68.0996 35.7261C68.0996 34.2894 68.5696 33.0766 69.5094 32.0878C70.4493 31.0896 71.5912 30.5905 72.9352 30.5905C73.8224 30.5905 74.6261 30.805 75.3464 31.2342C76.0667 31.6633 76.642 32.251 77.0724 32.9974L76.0447 33.655C75.7109 33.086 75.2761 32.6382 74.7403 32.3117C74.2045 31.9852 73.6028 31.8219 72.9352 31.8219C71.9162 31.8219 71.0598 32.1997 70.3659 32.9554C69.6807 33.711 69.3382 34.6346 69.3382 35.7261C69.3382 36.8176 69.6807 37.7412 70.3659 38.4968C71.0598 39.2525 71.9162 39.6303 72.9352 39.6303C73.6028 39.6303 74.2045 39.467 74.7403 39.1405C75.2761 38.814 75.7109 38.3662 76.0447 37.7971L77.0724 38.4548C76.642 39.2012 76.0667 39.7889 75.3464 40.218C74.6261 40.6472 73.8224 40.8617 72.9352 40.8617Z" fill="white"/>
<path d="M81.3136 40.8337C80.3561 40.8337 79.5656 40.4839 78.9419 39.7842C78.3182 39.0752 78.0064 38.2123 78.0064 37.1954C78.0064 36.1786 78.3182 35.3203 78.9419 34.6206C79.5656 33.9116 80.3561 33.5571 81.3136 33.5571C82.2183 33.5571 82.9342 33.8603 83.4612 34.4667V33.697H84.5944V40.6938H83.4612V39.9242C82.9342 40.5305 82.2183 40.8337 81.3136 40.8337ZM81.4058 39.7282C82.3281 39.7282 83.0133 39.3411 83.4612 38.5668V35.8101C83.0133 35.0451 82.3281 34.6626 81.4058 34.6626C80.7558 34.6626 80.22 34.9098 79.7983 35.4042C79.3767 35.8894 79.1659 36.4864 79.1659 37.1954C79.1659 37.9044 79.3767 38.5061 79.7983 39.0006C80.22 39.4857 80.7558 39.7282 81.4058 39.7282Z" fill="white"/>
<path d="M86.7424 43.4085V33.697H87.8755V34.4667C88.4201 33.8603 89.136 33.5571 90.0232 33.5571C90.9894 33.5571 91.7844 33.9116 92.408 34.6206C93.0317 35.3203 93.3435 36.1786 93.3435 37.1954C93.3435 38.2123 93.0317 39.0752 92.408 39.7842C91.7844 40.4839 90.9894 40.8337 90.0232 40.8337C89.136 40.8337 88.4201 40.5305 87.8755 39.9242V43.4085H86.7424ZM89.931 39.7282C90.581 39.7282 91.1168 39.4857 91.5384 39.0006C91.9601 38.5061 92.1709 37.9044 92.1709 37.1954C92.1709 36.4864 91.9601 35.8894 91.5384 35.4042C91.1168 34.9098 90.581 34.6626 89.931 34.6626C89.0086 34.6626 88.3235 35.0451 87.8755 35.8101V38.5668C88.3235 39.3411 89.0086 39.7282 89.931 39.7282Z" fill="white"/>
<path d="M97.7578 40.8337C96.8003 40.8337 96.0098 40.4839 95.3861 39.7842C94.7625 39.0752 94.4506 38.2123 94.4506 37.1954C94.4506 36.1786 94.7625 35.3203 95.3861 34.6206C96.0098 33.9116 96.8003 33.5571 97.7578 33.5571C98.6625 33.5571 99.3784 33.8603 99.9055 34.4667V33.697H101.039V40.6938H99.9055V39.9242C99.3784 40.5305 98.6625 40.8337 97.7578 40.8337ZM97.85 39.7282C98.7723 39.7282 99.4575 39.3411 99.9055 38.5668V35.8101C99.4575 35.0451 98.7723 34.6626 97.85 34.6626C97.2 34.6626 96.6642 34.9098 96.2426 35.4042C95.8209 35.8894 95.6101 36.4864 95.6101 37.1954C95.6101 37.9044 95.8209 38.5061 96.2426 39.0006C96.6642 39.4857 97.2 39.7282 97.85 39.7282Z" fill="white"/>
<path d="M103.187 40.6938V33.697H108.905V40.6938H107.772V34.8025H104.32V40.6938H103.187Z" fill="white"/>
<path d="M117.11 33.697L113.658 41.6594C113.385 42.3031 113.087 42.7648 112.762 43.0447C112.437 43.3339 112.024 43.4785 111.523 43.4785C111.189 43.4785 110.891 43.4412 110.627 43.3666L110.825 42.3171C111.044 42.3637 111.251 42.387 111.444 42.387C111.672 42.387 111.874 42.3077 112.05 42.1491C112.226 41.9999 112.397 41.7247 112.564 41.3235L112.986 40.3719L110.074 33.697H111.325L113.605 38.9726L115.845 33.697H117.11Z" fill="white"/>
<path d="M117.85 40.7918C117.595 40.7918 117.367 40.7638 117.165 40.7078L117.323 39.6723C117.42 39.7003 117.543 39.7143 117.692 39.7143C117.956 39.7143 118.153 39.6116 118.285 39.4064C118.417 39.1918 118.483 38.8327 118.483 38.3289V33.697H123.569V40.6938H122.435V34.8025H119.616V38.5808C119.616 39.2991 119.453 39.8495 119.128 40.232C118.803 40.6052 118.377 40.7918 117.85 40.7918Z" fill="white"/>
<path d="M125.717 40.6938V33.697H126.85V36.2159H128.379C129.169 36.2159 129.766 36.4351 130.17 36.8736C130.583 37.312 130.79 37.8345 130.79 38.4408C130.79 39.0566 130.583 39.5883 130.17 40.0361C129.758 40.4746 129.156 40.6938 128.365 40.6938H125.717ZM126.85 37.3074V39.6023H128.326C128.747 39.6023 129.072 39.4997 129.301 39.2944C129.538 39.0892 129.657 38.8047 129.657 38.4408C129.657 38.077 129.542 37.7971 129.314 37.6012C129.086 37.4053 128.761 37.3074 128.339 37.3074H126.85Z" fill="white"/>
<path d="M135.192 40.8337C134.199 40.8337 133.373 40.4839 132.715 39.7842C132.065 39.0845 131.74 38.2216 131.74 37.1954C131.74 36.1692 132.065 35.3063 132.715 34.6066C133.373 33.9069 134.199 33.5571 135.192 33.5571C135.859 33.5571 136.457 33.725 136.984 34.0609C137.52 34.3967 137.937 34.8538 138.235 35.4322L137.247 36.02C137.054 35.6095 136.777 35.283 136.417 35.0404C136.066 34.7979 135.657 34.6766 135.192 34.6766C134.515 34.6766 133.962 34.9191 133.532 35.4042C133.101 35.8894 132.886 36.4864 132.886 37.1954C132.886 37.9044 133.101 38.5015 133.532 38.9866C133.962 39.4717 134.515 39.7143 135.192 39.7143C135.657 39.7143 136.066 39.593 136.417 39.3504C136.777 39.1079 137.054 38.7814 137.247 38.3709L138.235 38.9586C137.937 39.537 137.52 39.9941 136.984 40.33C136.457 40.6658 135.859 40.8337 135.192 40.8337Z" fill="white"/>
<path d="M144.118 40.6938L140.837 37.5732V40.6938H139.704V33.697H140.837V36.8036L143.762 33.697H145.198L141.97 37.1254L145.685 40.6938H144.118Z" fill="white"/>
<path d="M147.628 40.6938H146.613V33.697H147.746V38.8327L151.462 33.697H152.463V40.6938H151.343V35.5582L147.628 40.6938Z" fill="white"/>
<path d="M155.631 40.6938H154.617V33.697H155.75V38.8327L159.465 33.697H160.467V40.6938H159.347V35.5582L155.631 40.6938ZM159.136 32.2417C158.741 32.6428 158.244 32.8434 157.647 32.8434C157.05 32.8434 156.549 32.6428 156.145 32.2417C155.75 31.8312 155.552 31.2901 155.552 30.6185V30.4785H156.422V30.6185C156.422 31.0383 156.532 31.3788 156.751 31.64C156.98 31.8919 157.278 32.0178 157.647 32.0178C158.016 32.0178 158.31 31.8919 158.53 31.64C158.758 31.3788 158.872 31.0383 158.872 30.6185V30.4785H159.742V30.6185C159.742 31.2901 159.54 31.8312 159.136 32.2417Z" fill="white"/>
<path d="M165.798 43.4085V33.697H166.931V34.4667C167.476 33.8603 168.192 33.5571 169.079 33.5571C170.045 33.5571 170.84 33.9116 171.464 34.6206C172.088 35.3203 172.399 36.1786 172.399 37.1954C172.399 38.2123 172.088 39.0752 171.464 39.7842C170.84 40.4839 170.045 40.8337 169.079 40.8337C168.192 40.8337 167.476 40.5305 166.931 39.9242V43.4085H165.798ZM168.987 39.7282C169.637 39.7282 170.173 39.4857 170.594 39.0006C171.016 38.5061 171.227 37.9044 171.227 37.1954C171.227 36.4864 171.016 35.8894 170.594 35.4042C170.173 34.9098 169.637 34.6626 168.987 34.6626C168.064 34.6626 167.379 35.0451 166.931 35.8101V38.5668C167.379 39.3411 168.064 39.7282 168.987 39.7282Z" fill="white"/>
<path d="M176.814 40.8337C175.856 40.8337 175.066 40.4839 174.442 39.7842C173.818 39.0752 173.506 38.2123 173.506 37.1954C173.506 36.1786 173.818 35.3203 174.442 34.6206C175.066 33.9116 175.856 33.5571 176.814 33.5571C177.718 33.5571 178.434 33.8603 178.961 34.4667V33.697H180.094V40.6938H178.961V39.9242C178.434 40.5305 177.718 40.8337 176.814 40.8337ZM176.906 39.7282C177.828 39.7282 178.513 39.3411 178.961 38.5668V35.8101C178.513 35.0451 177.828 34.6626 176.906 34.6626C176.256 34.6626 175.72 34.9098 175.298 35.4042C174.877 35.8894 174.666 36.4864 174.666 37.1954C174.666 37.9044 174.877 38.5061 175.298 39.0006C175.72 39.4857 176.256 39.7282 176.906 39.7282Z" fill="white"/>
<path d="M183.257 40.6938H182.242V33.697H183.376V38.8327L187.091 33.697H188.093V40.6938H186.973V35.5582L183.257 40.6938ZM186.762 32.2417C186.367 32.6428 185.87 32.8434 185.273 32.8434C184.676 32.8434 184.175 32.6428 183.771 32.2417C183.376 31.8312 183.178 31.2901 183.178 30.6185V30.4785H184.048V30.6185C184.048 31.0383 184.157 31.3788 184.377 31.64C184.605 31.8919 184.904 32.0178 185.273 32.0178C185.642 32.0178 185.936 31.8919 186.156 31.64C186.384 31.3788 186.498 31.0383 186.498 30.6185V30.4785H187.368V30.6185C187.368 31.2901 187.166 31.8312 186.762 32.2417Z" fill="white"/>
<path d="M193.171 40.8337C192.178 40.8337 191.353 40.4839 190.694 39.7842C190.044 39.0752 189.719 38.2123 189.719 37.1954C189.719 36.1786 190.044 35.3203 190.694 34.6206C191.353 33.9116 192.178 33.5571 193.171 33.5571C194.155 33.5571 194.972 33.9116 195.622 34.6206C196.28 35.3203 196.61 36.1786 196.61 37.1954C196.61 38.2123 196.28 39.0752 195.622 39.7842C194.972 40.4839 194.155 40.8337 193.171 40.8337ZM191.511 38.9866C191.941 39.4717 192.495 39.7143 193.171 39.7143C193.847 39.7143 194.396 39.4717 194.818 38.9866C195.24 38.5015 195.45 37.9044 195.45 37.1954C195.45 36.4864 195.24 35.8894 194.818 35.4042C194.396 34.9191 193.847 34.6766 193.171 34.6766C192.495 34.6766 191.941 34.9191 191.511 35.4042C191.089 35.8894 190.878 36.4864 190.878 37.1954C190.878 37.9044 191.089 38.5015 191.511 38.9866Z" fill="white"/>
<path d="M198.236 40.6938V33.697H199.369V36.5797H202.966V33.697H204.1V40.6938H202.966V37.6712H199.369V40.6938H198.236Z" fill="white"/>
<ellipse cx="21.5499" cy="9.80024" rx="1.64999" ry="1.79999" stroke="#FFA95A" stroke-width="2"/>
<path d="M11.4091 7.39998L21.6036 2L42.0998 13.5875V18.3124H1V13.5875L6.15089 10.6625M33.3004 18.3124V21.4624L34.5881 22.1374L33.837 38.2249H38.1294L37.3782 22.1374L38.6659 21.4624V18.3124M24.179 18.3124V21.4624L25.4667 22.1374L24.7156 38.2249H29.008L28.2568 22.1374L29.5445 21.4624V18.3124M13.5553 18.4249V21.5749L14.843 22.2499L14.0788 38.2249H18.9208L17.6331 22.2499L18.9208 21.5749V18.4249M4.43393 18.4249V21.5749L5.72165 22.2499C5.72165 22.2499 5.28563 31.9423 4.99228 38.2249H9.22239L8.51172 22.2499L9.79944 21.5749V18.4249M3.25352 40.9249V38.2249H40.0609V40.9249H42.0998V46.9998H1V40.9249H3.25352Z" stroke="#FFA95A" stroke-width="2"/>
</svg>
