<svg width="99" height="8" viewBox="0 0 99 8" fill="none" xmlns="http://www.w3.org/2000/svg">
<path d="M94.6166 5.39975C95.0648 5.38104 95.4556 5.48492 95.2873 5.53167C96.1997 5.40576 96.2194 5.54904 96.3376 5.30523C96.4839 5.27551 96.6332 5.26348 96.7635 5.26348C96.7962 5.26415 96.8276 5.26515 96.8576 5.26582L96.8687 5.26649L96.8744 5.26682H96.875H96.8754C96.9629 5.26248 96.7571 5.27284 96.7782 5.27183H96.7798H96.7825L96.8042 5.27116L96.8456 5.27083C96.8994 5.27083 96.9465 5.27417 96.9836 5.28018C97.1329 5.30423 97.1295 5.37069 96.8029 5.45352C96.8029 5.45352 96.9071 5.43348 97.0627 5.40376C97.0824 5.40008 97.1028 5.39641 97.1238 5.39207C97.1382 5.38672 97.1359 5.37938 97.1429 5.37336C97.1519 5.36134 97.1612 5.35065 97.1709 5.34264C97.1826 5.33095 97.1873 5.33596 97.2073 5.31725C97.2274 5.29888 97.2471 5.28185 97.2675 5.26582C97.4268 5.12889 97.5089 4.95188 97.4979 4.94854C97.5032 4.95054 97.4288 5.03905 97.3403 5.10117C97.3172 5.11586 97.2958 5.13223 97.2768 5.14893C97.2548 5.16128 97.23 5.16529 97.2127 5.17431C97.1763 5.18967 97.1536 5.2037 97.1536 5.2037C97.1582 5.07712 97.2968 5.04005 97.394 4.91013C97.4996 4.7919 97.4996 4.61221 97.3987 4.56445C97.3987 4.56445 97.3853 4.59919 97.3897 4.65429C97.379 4.7064 97.3633 4.7752 97.3266 4.83832C97.2584 4.97225 97.1198 5.04105 97.1198 5.04105L97.1121 4.96958C97.1025 4.9836 97.0911 4.99863 97.0797 5.01533C97.0607 5.04005 97.0801 5.01867 97.0817 5.03003C97.0848 5.03236 97.0881 5.03671 97.0908 5.04238C97.0944 5.04773 97.1078 5.05675 97.0557 5.05975L96.8386 5.08246L96.7848 5.08747L96.7715 5.08881L96.7648 5.08914L96.7611 5.08948H96.7605C96.7351 5.09081 96.9795 5.07846 96.876 5.08347H96.8757H96.874L96.8473 5.08313C96.8119 5.08246 96.7768 5.08179 96.7428 5.08079C96.6743 5.07812 96.6088 5.07578 96.5477 5.07378C96.4258 5.0681 96.3223 5.06076 96.2518 5.05374C96.2962 5.02034 96.2682 4.96624 96.5905 4.96022C94.3832 4.94486 95.996 5.31458 94.1641 5.38171C94.278 5.3767 94.4202 5.37971 94.6166 5.39975Z" fill="#FFA95A"/>
<path d="M92.7419 4.90351L91.9718 5.15767L90.6802 5.09221C90.6655 5.18005 89.7247 5.25085 90.3616 5.328C90.4862 5.31397 90.7323 5.28792 90.9314 5.29594C90.7871 5.48531 89.2134 5.39046 89.5931 5.58216C90.6148 5.53207 90.7714 5.57381 91.4003 5.41985C92.3368 5.43755 93.0188 5.48097 93.456 5.55043C93.7342 5.52171 93.7729 5.40515 94.1263 5.3821C94.0485 5.38444 93.9763 5.38678 93.8865 5.38945L93.8484 5.10457C93.5538 5.16468 93.2753 5.13629 92.9487 5.14197L94.4606 4.80899C93.973 4.54214 92.4874 4.69877 91.8936 4.58789C92.63 4.82836 91.3075 4.70746 92.7419 4.90351Z" fill="#FFA95A"/>
<path d="M94.126 5.38348C94.1357 5.38348 94.152 5.38315 94.163 5.38281C94.152 5.38315 94.136 5.38348 94.126 5.38348Z" fill="#FFA95A"/>
<path d="M19.8613 2.08845C20.1825 2.08344 20.2774 2.01598 20.3238 1.98224L16.7041 1.98759C16.8173 2.0624 17.86 2.15491 17.1633 2.19967C17.4739 2.2825 18.4204 2.21169 18.5577 2.1105L18.2952 2.22472C19.1292 2.07843 19.6989 2.36566 19.1552 2.45216L19.2253 2.45083L21.5355 1.88806C20.6875 1.855 20.8826 2.08144 19.8613 2.08845Z" fill="#FFA95A"/>
<path d="M94.2056 2.375C93.7367 2.40105 93.6789 2.4281 93.732 2.45583C93.9003 2.43512 94.0597 2.41107 94.2056 2.375Z" fill="#FFA95A"/>
<path d="M22.0752 1.75609L22.7989 1.58008C22.509 1.6275 22.2545 1.69063 22.0752 1.75609Z" fill="#FFA95A"/>
<path d="M17.0624 4.43512C17.061 4.44447 17.053 4.45282 17.0721 4.46518L17.397 4.375C17.392 4.375 17.3907 4.375 17.3887 4.375C17.2695 4.39704 17.1619 4.41708 17.0624 4.43512Z" fill="#FFA95A"/>
<path d="M38.5 1.09439C38.5775 1.09038 38.6446 1.08704 38.7375 1.08203C38.6506 1.08337 38.5725 1.08838 38.5 1.09439Z" fill="#FFA95A"/>
<path d="M7.25586 5.44169L8.86533 5.27236C8.65091 5.35252 9.42743 5.32847 9.0881 5.42199C9.21067 5.4093 9.78579 5.37757 9.62915 5.33615L9.30085 5.3415C10.1495 5.10804 9.6355 5.0182 11.0426 4.84019C10.1689 4.70158 9.78613 4.8285 9.32322 4.9347C9.16658 4.95107 9.03499 4.95808 8.90207 4.9671L7.56379 5.29374L7.25586 5.44169Z" fill="#FFA95A"/>
<path d="M71.78 3.70117L71.7617 3.71921C71.7782 3.71286 71.7813 3.70685 71.78 3.70117Z" fill="#FFA95A"/>
<path d="M71.6907 3.79356L71.7612 3.71875C71.6744 3.75616 71.343 3.79189 71.6907 3.79356Z" fill="#FFA95A"/>
<path d="M21.8094 1.90715C21.8314 1.86373 21.9242 1.81063 22.0752 1.75586L21.5352 1.88812C21.612 1.89045 21.7132 1.89947 21.8094 1.90715Z" fill="#FFA95A"/>
<path d="M20.5815 2.41797L19.2256 2.45137L18.7256 2.57261C19.2446 2.52652 19.8514 2.49512 20.5815 2.41797Z" fill="#FFA95A"/>
<path d="M36.3586 0.957325C39.1671 0.921589 35.6689 1.2322 36.9591 1.29832C37.7389 1.26593 38.0142 1.13567 38.5001 1.09459C36.2728 1.20614 38.802 0.664755 36.5556 0.73389C36.8753 0.497763 38.1758 0.47639 38.938 0.540515C39.8006 0.767958 38.1841 0.707173 37.9888 0.930274C38.8902 0.893202 38.7315 0.851786 39.114 0.724872C40.5294 0.777642 42.0423 0.445328 42.8876 0.760609C43.912 0.710512 43.8449 0.601633 44.434 0.481733C44.5512 0.238258 42.91 0.353816 42.5303 0.162109C42.6091 0.182816 42.7624 0.223897 42.718 0.257964L41.8323 0.206864C42.6732 0.291696 41.7154 0.450337 41.2662 0.469374C40.9392 0.474384 40.2896 0.485072 40.3788 0.417941L40.8737 0.365506C40.2365 0.28869 39.4683 0.543186 38.7953 0.411262C38.7603 0.356489 39.0148 0.330771 39.0532 0.297039C38.2994 0.463363 37.5723 0.453677 36.4564 0.57124L37.1034 0.329769C36.2106 0.596957 34.1894 0.521143 32.7886 0.379867C32.9439 0.420947 33.2241 0.449336 33.0558 0.496094C32.2332 0.553873 31.6117 0.388216 31.9927 0.260968C31.1892 0.461359 28.9304 0.0923065 27.835 0.35248L22.7988 1.57987C22.9872 1.54915 23.1889 1.5241 23.3973 1.51341C23.8552 1.72549 24.1017 1.69977 23.2995 1.8995C24.087 1.78728 23.7861 1.61695 24.9694 1.60826C24.5052 1.7148 24.3879 1.95828 25.5215 1.98333C28.3553 1.77158 30.2333 1.16874 32.8801 0.860806C32.9777 1.02412 35.0557 0.978367 36.0657 1.01677C35.6803 1.19212 34.9308 1.24222 34.1526 1.27762C34.6409 1.28363 35.4812 1.29365 36.1044 1.301L36.3586 0.957325Z" fill="#FFA95A"/>
<path d="M29.7783 1.50586C29.8491 1.52055 29.9226 1.52857 29.9977 1.53625C29.9577 1.52256 29.8922 1.51221 29.7783 1.50586Z" fill="#FFA95A"/>
<path d="M33.9159 1.27344C33.9063 1.27978 33.9096 1.28446 33.9062 1.29114C33.9881 1.28713 34.0696 1.28279 34.1531 1.27845C34.0692 1.27711 33.9751 1.27477 33.9159 1.27344Z" fill="#FFA95A"/>
<path d="M22.4733 2.27539C22.3053 2.32215 22.1807 2.33517 22.0127 2.38193C22.1162 2.3659 22.2461 2.35354 22.3714 2.33918C22.4906 2.31747 22.5471 2.29543 22.4733 2.27539Z" fill="#FFA95A"/>
<path d="M21.9065 1.9897L21.9963 1.92256C21.9238 1.91689 21.8731 1.91321 21.8093 1.9082C21.7899 1.94427 21.811 1.97467 21.9065 1.9897Z" fill="#FFA95A"/>
<path d="M47.0908 2.43384L47.36 2.39844C47.1977 2.40111 47.1279 2.41547 47.0908 2.43384Z" fill="#FFA95A"/>
<path d="M39.4869 1.23438C38.5103 1.25007 39.37 1.47818 37.9886 1.47919L38.3941 1.49388C37.4028 1.59842 35.6604 1.55032 34.4828 1.55867C34.6154 1.46148 33.7684 1.44044 33.906 1.28982C33.1008 1.32522 32.3036 1.35895 31.8887 1.51426C31.3898 1.46349 30.632 1.60042 29.9977 1.53596C30.2656 1.62714 29.095 1.84457 30.6383 1.73301C30.5137 1.74537 30.5919 1.76641 30.469 1.7791C31.4632 1.90635 31.8617 1.6906 32.7184 1.68759C33.2304 1.77743 31.8811 1.83288 32.364 1.86895C33.4334 1.78512 35.7199 1.97749 35.6491 1.6385C36.4276 1.61478 36.5348 1.68926 36.7669 1.75138C37.9983 1.39035 41.3362 1.90635 41.3248 1.44479C40.8753 1.46316 40.1428 1.45314 39.4832 1.552L39.4869 1.23438Z" fill="#FFA95A"/>
<path d="M24.1133 2.25195C24.1734 2.25329 24.2532 2.25529 24.3033 2.25663C24.2472 2.25529 24.1774 2.25329 24.1133 2.25195Z" fill="#FFA95A"/>
<path d="M11.7891 0.914975L12.1975 0.613387C14.5231 0.541247 15.364 0.626081 17.3973 0.614057C17.5526 0.655471 17.3061 0.681521 17.1809 0.69488C18.6104 0.660146 20.7495 0.723269 21.7902 0.584665C22.2451 0.587003 23.4391 0.682856 22.9872 0.771695C23.2087 0.744977 23.4615 0.71926 23.7163 0.728946C23.7838 0.837157 23.1465 0.760007 23.1318 0.848513C23.3336 0.855861 23.4124 0.876902 23.4588 0.842502C23.1191 0.935684 23.8112 1.21055 22.2274 1.20354C21.6142 0.950045 23.3259 1.17415 22.9638 0.894603C22.4388 0.892599 22.4996 1.00081 22.4549 1.03488C21.7855 1.02853 21.8033 0.958394 21.839 0.894603C21.5825 0.981439 20.7405 0.860537 20.3862 0.992126C19.0846 1.01384 20.457 0.782383 19.607 0.785389L19.117 1.06861L17.7036 1.01517C15.6573 1.1147 17.9962 1.50446 15.6573 1.66444C15.9645 1.51682 15.0267 1.26833 13.9379 1.20955C14.5892 1.1992 15.7932 1.0145 16.6338 1.09867C15.4485 0.876902 18.2654 1.07195 17.6502 0.818122C17.0643 0.938022 16.0878 0.954386 15.326 0.889593L15.5758 0.863542C14.7659 0.833483 14.1527 1.12973 13.0348 1.01651C12.4791 1.02552 12.5833 0.945703 12.6811 0.879574C12.2105 0.922324 11.7904 0.977764 11.7891 0.914975ZM12.9991 0.855862L13.7422 0.883916C13.5659 0.837158 13.289 0.838828 12.9991 0.855862Z" fill="#FFA95A"/>
<path d="M82.3486 4.94141C82.4228 4.94875 82.5076 4.95744 82.5744 4.96445C82.525 4.95109 82.4395 4.94541 82.3486 4.94141Z" fill="#FFA95A"/>
<path d="M16.3896 4.83264L16.8202 4.84199C16.6522 4.83231 16.5142 4.83097 16.3896 4.83264Z" fill="#FFA95A"/>
<path d="M26.0508 3.89816L26.6797 3.83203C26.4315 3.83637 26.2371 3.86242 26.0508 3.89816Z" fill="#FFA95A"/>
<path d="M77.2163 4.92192L77.1952 4.91992C77.1602 4.92527 77.1328 4.92927 77.0957 4.93495L77.2163 4.92192Z" fill="#FFA95A"/>
<path d="M45.4268 4.56055C45.5226 4.58426 45.6302 4.60597 45.7771 4.623C45.7594 4.59495 45.6288 4.57491 45.4268 4.56055Z" fill="#FFA95A"/>
<path d="M25.9346 3.90884C25.9509 3.91118 25.96 3.91218 25.9726 3.91419C25.997 3.90851 26.0241 3.9025 26.0501 3.89648L25.9346 3.90884Z" fill="#FFA95A"/>
<path d="M12.1339 4.00586C12.0418 4.01521 11.9579 4.02389 11.8584 4.03391C11.9883 4.02857 12.0678 4.01822 12.1339 4.00586Z" fill="#FFA95A"/>
<path d="M12.7415 4.80859C12.6423 4.81561 12.5474 4.82462 12.4736 4.83665L12.7415 4.80859Z" fill="#FFA95A"/>
<path d="M3.15137 4.87082L3.73083 4.83008C3.44594 4.83442 3.27594 4.85045 3.15137 4.87082Z" fill="#FFA95A"/>
<path d="M11.208 4.625C11.1743 4.63803 11.1405 4.65072 11.1182 4.66341C11.1983 4.65439 11.2364 4.63803 11.208 4.625Z" fill="#FFA95A"/>
<path d="M86.0317 5.78516C86.0182 5.78549 86.0041 5.78582 85.9963 5.78616L85.9814 5.81922L86.0317 5.78516Z" fill="#FFA95A"/>
<path d="M87.4395 5.37319C87.6054 5.36551 87.7788 5.35749 87.9485 5.34981C87.7594 5.34814 87.5751 5.35683 87.4395 5.37319Z" fill="#FFA95A"/>
<path d="M53.8447 5.01496C53.9984 5.05604 54.3584 5.10514 54.1904 5.15157C54.484 5.09245 54.4643 4.94917 53.8447 5.01496Z" fill="#FFA95A"/>
<path d="M83.2053 7.55713C83.2975 7.51905 83.4123 7.48966 83.5279 7.46094C83.3132 7.50202 83.1255 7.53608 83.2053 7.55713Z" fill="#FFA95A"/>
<path d="M83.5283 7.4604C83.6339 7.43902 83.7471 7.41598 83.8423 7.39661C83.732 7.41464 83.6262 7.43635 83.5283 7.4604Z" fill="#FFA95A"/>
<path d="M49.941 7.36463C49.9029 7.34526 49.8438 7.32956 49.7637 7.32422C49.7874 7.36263 49.8512 7.37098 49.941 7.36463Z" fill="#FFA95A"/>
<path d="M88.3603 5.39392C88.4515 5.32645 90.6655 5.17983 88.8035 5.14543C88.8754 4.93535 89.9979 5.04824 90.4945 4.99614C90.1341 4.94704 90.6739 4.86121 90.5646 4.7864C90.3185 4.81178 90.0256 4.87223 89.6185 4.8572C89.4314 4.76135 90.049 4.69622 90.5312 4.73196C89.9371 4.62108 91.285 4.5653 90.4441 4.48047C88.6466 4.55461 87.3761 4.63076 86.1123 4.93769C87.1366 4.88726 88.2829 4.82447 89.1235 4.90897L88.7701 5.09066C87.8203 4.93068 87.2338 5.05025 86.3 5.03321L88.3984 5.12973C89.3813 5.28103 88.7241 5.31576 87.9489 5.34849C88.1396 5.35083 88.3119 5.36185 88.3603 5.39392Z" fill="#FFA95A"/>
<path d="M86.9463 6.98959L86.9814 6.99493C87.0121 6.98825 87.0502 6.98424 87.0699 6.97656L86.9463 6.98959Z" fill="#FFA95A"/>
<path d="M2.87412 1.21017C2.87412 1.21017 2.88481 1.20449 2.90117 1.19647C2.90919 1.19246 2.91887 1.18779 2.92889 1.18244L2.94426 1.17476L2.94827 1.17276L2.94927 1.17243L3.12394 1.16341H3.12428L3.12628 1.16274L3.13463 1.1594C3.17972 1.14203 3.2248 1.125 3.2248 1.125C3.1874 1.13368 3.156 1.1407 3.13062 1.14637L3.12595 1.14771L3.12361 1.14805L2.94726 1.15706H2.94659L2.94559 1.1574L2.93724 1.16073L2.92221 1.16708C2.91286 1.17142 2.90485 1.1751 2.89783 1.17844C2.87145 1.1928 2.86477 1.20282 2.87412 1.21017Z" fill="#FFA95A"/>
<path d="M85.6958 6.10938H85.6977C85.6812 6.11167 85.6774 6.11167 85.6958 6.10938Z" fill="#FFA95A"/>
<path d="M1.7905 7.67498C1.77667 7.67365 1.76284 7.67298 1.74023 7.66797C1.77195 7.67732 1.77397 7.67231 1.7905 7.67498Z" fill="#FFA95A"/>
<path d="M3.64842 4.03253C3.63999 4.02418 3.63763 4.01616 3.61772 4.00781C3.5209 4.01817 3.56779 4.02651 3.64842 4.03253Z" fill="#FFA95A"/>
<path d="M1.80346 7.66211C1.80105 7.66745 1.80449 7.67514 1.79004 7.6748C1.79899 7.67213 1.81585 7.6738 1.80346 7.66211Z" fill="#FFA95A"/>
<path d="M24.2598 7.26653C24.2598 7.26653 24.191 7.23514 24.0824 7.20508C24.0404 7.22211 24.0824 7.24182 24.2598 7.26653Z" fill="#FFA95A"/>
<path d="M19.9566 6.9966C19.9289 6.98959 19.9124 6.98558 19.877 6.97656L19.9566 6.9966Z" fill="#FFA95A"/>
<path d="M52.8263 4.19607C52.6133 4.1934 52.4536 4.19807 52.3184 4.20575C52.474 4.21043 52.642 4.20976 52.8263 4.19607Z" fill="#FFA95A"/>
<path d="M1.7398 7.66954C1.64995 7.64616 1.52337 7.60608 1.32031 7.51758C1.54375 7.61544 1.66599 7.65184 1.7398 7.66954Z" fill="#FFA95A"/>
<path d="M30.8237 6.34766C30.7776 6.35467 30.7348 6.36101 30.6914 6.36769L30.7702 6.37671L30.8237 6.34766Z" fill="#FFA95A"/>
<path d="M33.0701 6.48254C32.9933 6.50325 32.9582 6.52462 32.9152 6.54333C33.7167 6.46785 35.1899 6.55001 35.3643 6.35663C35.0921 6.3613 33.6816 6.24775 33.9221 6.13453C33.363 6.18296 32.5371 6.04736 32.2362 6.07909C33.1536 6.18463 32.3354 6.24207 31.7158 6.30753C31.1524 6.25109 31.8217 6.1519 31.3367 6.11616L30.0332 6.13754L31.1684 6.16292L30.8234 6.34895C30.8655 6.3426 30.8942 6.33826 30.9393 6.33125C32.8604 6.24474 31.1026 6.60311 33.0701 6.48254Z" fill="#FFA95A"/>
<path d="M32.915 6.54297C32.7948 6.55466 32.6892 6.56902 32.6074 6.58872C32.7884 6.58572 32.8589 6.56668 32.915 6.54297Z" fill="#FFA95A"/>
<path d="M40.7637 6.8497C40.8622 6.84336 40.9694 6.83467 41.1037 6.82031C41.0395 6.82566 40.8913 6.83868 40.7637 6.8497Z" fill="#FFA95A"/>
<path d="M17.7624 2.54154C17.7286 2.48677 16.6095 2.37388 16.6292 2.51683C16.9615 2.53152 17.2961 2.54655 17.6321 2.56158L17.7624 2.54154Z" fill="#FFA95A"/>
<path d="M62.1438 6.0184C62.0193 6.01406 61.894 6.01239 61.7691 6.01473C61.7424 6.02174 61.7163 6.02976 61.6963 6.03677C61.7721 6.05815 62.0193 6.03176 62.1438 6.0184Z" fill="#FFA95A"/>
<path d="M34.2679 6.06641C34.0628 6.08812 33.9713 6.11082 33.9219 6.13354C34.0548 6.12218 34.1774 6.10381 34.2679 6.06641Z" fill="#FFA95A"/>
<path d="M62.2139 6.35742C62.3725 6.39817 62.6066 6.46062 62.6397 6.51506C62.9647 6.5164 63.1928 6.44125 63.5234 6.41453C63.1504 6.43524 62.7185 6.42088 62.2139 6.35742Z" fill="#FFA95A"/>
<path d="M63.5532 6.41211C63.5431 6.41325 63.533 6.41402 63.5244 6.41516L63.5532 6.41211Z" fill="#FFA95A"/>
<path d="M18.428 2.60255C18.5245 2.59287 18.6234 2.58285 18.7256 2.5725L18.5706 2.61057C18.8281 2.62493 19.0843 2.63929 19.3408 2.65399C19.4336 2.64497 19.5341 2.63629 19.6577 2.63128C19.608 2.63629 19.5692 2.65165 19.5455 2.66701C19.629 2.67269 19.7108 2.67804 19.7923 2.68371C20.4055 2.53576 21.9315 2.42755 22.3717 2.34071C22.9541 2.27759 23.6669 2.24152 24.1141 2.25287C23.6996 2.24987 23.1495 2.27959 23.3145 2.36142C24.1558 2.44658 24.565 2.69206 26.0168 2.48098L25.1651 2.48433L27.0799 2.1667C27.7508 2.29829 26.1243 2.32501 25.8585 2.43957C27.3477 2.28293 28.5861 2.70108 29.2765 2.42621C29.374 2.5892 29.537 2.86139 30.5142 2.84503C29.8098 2.659 31.1 2.72546 30.5219 2.52641C30.8596 2.43323 31.612 2.58519 31.6681 2.46328L31.5766 2.53075C33.2452 2.78892 33.7913 2.38446 34.5053 2.2512C36.5032 2.18474 37.4207 2.29028 39.0502 2.26289C39.1143 2.37211 39.5578 2.67269 40.2118 2.661C40.5157 2.51338 41.9902 2.44491 42.1405 2.25521C40.9716 2.17639 41.1843 2.41419 40.4846 2.45827C39.9022 2.25955 40.4319 2.26189 39.6363 2.14333C40.2782 2.22048 42.537 2.03979 43.2403 2.22615L42.9922 2.25221C44.1144 2.36543 44.3288 2.83367 46.1988 2.55045L47.0909 2.43423C47.0478 2.45326 47.0428 2.47531 47.0201 2.49234C48.4806 2.51204 48.0818 2.72746 49.6939 2.55747C49.5694 2.57049 49.6475 2.59153 49.5209 2.60422C50.4397 2.71043 51.3669 2.49702 52.0616 2.45226C52.4857 2.61024 51.9607 2.60756 51.6985 2.72212C53.3153 2.78324 55.0597 2.51238 56.064 2.31967L57.1061 2.41218C56.4878 2.47731 55.7327 2.64397 55.9211 2.73916C56.4942 2.70743 56.3833 2.63295 57.1939 2.66301C57.0559 2.7642 56.7156 2.85805 56.3345 2.9853C58.0111 3.1543 56.7093 2.62727 57.8826 2.93687C58.4093 2.93888 58.7152 2.79125 58.7726 2.66935L59.7268 2.829C59.8327 2.67369 61.011 2.66467 61.7828 2.6413C61.877 2.5745 61.1613 2.47564 60.8687 2.53576C60.9265 2.41385 61.7478 2.35641 62.2758 2.35874C62.4692 2.68438 65.7339 2.31165 65.1093 2.6954C67.4819 2.58953 70.8151 2.55647 72.3808 2.42053C72.8972 2.51071 73.9495 2.51505 73.319 2.66802C75.229 2.66935 76.214 2.33503 78.1097 2.42421C78.2666 2.46495 77.253 2.42721 77.3201 2.53576C78.5592 2.40517 79.5745 2.67369 81.4973 2.58652C81.1736 2.59254 81.0794 2.65967 81.0344 2.6934C81.0006 2.63929 81.8219 2.58151 82.3195 2.52908C82.5991 2.55713 81.9471 2.56816 82.1038 2.60957C85.8173 2.76788 88.6469 2.32468 92.3404 2.33937C91.2857 2.33503 90.8866 2.55079 90.8755 2.63929L91.9089 2.6433C92.307 2.53542 93.0832 2.53576 93.7318 2.45527C93.8113 2.49568 94.1272 2.53943 93.8053 2.5902C94.8259 2.69941 95.6228 2.60089 96.4778 2.48933C96.5843 2.47531 96.6925 2.46128 96.8014 2.44725C96.8505 2.43824 96.917 2.43523 96.9911 2.43623C97.0626 2.43656 97.1347 2.43723 97.2072 2.4379C97.4991 2.45293 97.8007 2.54277 98.0906 2.69908C98.2285 2.78458 98.3668 2.88644 98.4954 3.00267C98.608 3.13492 98.7466 3.25783 98.8287 3.42683C98.8755 3.50799 98.9206 3.59148 98.9647 3.67698C99.0014 3.77818 99.0345 3.88606 99.0635 3.99527L99.1039 4.16059L99.1136 4.27515C99.1186 4.35063 99.1233 4.42744 99.1283 4.50526C99.1283 4.50526 99.1169 4.45884 99.0966 4.37768C99.0712 4.29018 99.0658 4.20535 98.9767 3.98391C98.9363 3.88873 98.8978 3.77384 98.8397 3.68433C98.7796 3.5985 98.7165 3.50765 98.651 3.4138C98.4997 3.24514 98.3294 3.07815 98.1253 2.96292C97.7259 2.72079 97.2687 2.64464 96.9474 2.68238C96.7897 2.68972 96.6829 2.71611 96.5964 2.72513C96.5135 2.73715 96.4661 2.74383 96.4661 2.74383C96.4661 2.74383 96.6535 2.78157 96.8408 2.81964C97.0346 2.86974 97.2136 2.92986 97.2136 2.92986C97.2136 2.92986 97.1297 2.93387 97.0042 2.93955C96.8836 2.93888 96.7159 2.97161 96.5496 2.99465C96.2166 3.04408 95.8836 3.09351 95.8836 3.09351C96.2784 3.15597 96.6605 3.10787 96.9307 3.0865C97.1862 3.06178 97.3709 3.11054 97.3822 3.19671C97.2323 3.17434 96.8896 3.13392 96.8803 3.22109C97.0319 3.25917 97.1488 3.25717 97.2393 3.29624C97.3321 3.32196 97.412 3.32964 97.4794 3.3607C97.6224 3.40245 97.7603 3.44319 97.9403 3.61286C97.6641 3.42583 97.2931 3.29023 96.9056 3.3273C96.411 3.36704 95.8335 3.40579 95.2728 3.42917C94.1426 3.46991 93.003 3.51099 92.2041 3.53971C91.953 3.56577 92.4192 3.45956 92.4633 3.42549C91.8124 3.43651 91.4213 3.33298 90.6017 3.39076C90.0927 3.53137 90.9901 3.49429 91.3939 3.50899C91.3385 3.63123 91.1351 3.62388 90.6852 3.64225C90.5873 3.47926 88.215 3.58447 87.6349 3.38541C85.2305 3.43685 88.0193 3.80757 85.6721 3.73677L84.971 3.55007C83.6084 3.69435 81.8463 3.82193 80.3039 3.78219L80.6289 3.77618C80.8453 3.69635 80.4876 3.64726 80.3296 3.60651C79.1644 3.52669 78.1173 3.75313 77.4113 3.56643C76.0824 3.76482 73.8667 3.91144 72.3474 4.01397C71.9373 3.76816 74.3296 3.80523 74.9615 3.6516L73.5785 3.6526C74.4335 3.64926 74.7708 3.55575 75.2835 3.41581C74.0711 3.37005 73.6727 3.58547 72.5231 3.64759C72.6129 3.58079 72.4593 3.53972 71.9293 3.53771L71.779 3.70103C71.7693 3.68767 71.7105 3.67531 71.5469 3.66496L69.5022 3.76482C69.9361 3.83462 69.9571 3.9769 70.4851 3.9789C70.2968 3.88372 70.7443 3.86468 71.273 3.86735C70.8098 3.9739 71.7883 3.95753 71.7773 4.04537C70.7176 4.04103 69.4157 4.06307 68.721 4.10782L68.4952 3.95753C67.4853 3.91945 66.4185 4.00329 65.7335 3.95953L65.9493 3.87971C64.7376 3.83362 63.5446 3.93048 62.4685 3.78386C61.3881 3.95586 60.0271 4.0988 59.1437 4.27849C58.6714 4.47287 55.9725 4.03501 54.7538 4.30821C54.6716 4.28717 55.5908 4.16193 56.0066 4.08878C55.196 4.05873 54.5517 4.3002 54.2976 4.0958C56.1164 4.1646 54.1997 3.93281 55.019 3.8747C54.1673 3.87837 53.2696 3.91545 52.8518 3.98826C54.2301 3.98659 52.3621 4.27081 53.7579 4.18163C52.6764 4.35363 51.2012 4.4221 49.9127 4.35564C49.9254 4.26747 49.7664 4.22639 49.2865 4.18998L48.899 4.3179C48.2962 4.29485 50.0647 4.1666 48.851 4.12118C47.6022 4.33994 45.0903 3.99694 44.5439 4.40139C43.592 4.24175 46.3551 4.23975 44.9206 4.04403C45.7553 3.89775 46.9062 4.06507 47.1814 3.86335C46.3634 3.92079 46.8828 3.69268 46.3551 3.69068L45.443 3.81525L45.6447 3.82293C44.1141 4.01364 41.6887 3.92213 39.7339 3.95452C38.078 4.15792 36.9381 4.45183 34.9522 4.42978C35.5383 4.31055 33.3027 4.31489 34.5531 4.09613C33.6343 3.99093 32.7269 4.1155 32.7088 4.20368C33.5174 4.23407 32.9934 4.23207 33.6744 4.27548C33.2148 4.38236 32.1551 4.37768 31.7196 4.30788C31.9213 4.31556 31.8448 4.29519 31.8892 4.26146C30.9237 4.18965 31.4267 4.36766 30.7286 4.41242C30.5072 4.26279 29.1883 4.37234 28.5511 4.29485L27.6273 4.50827C28.1349 4.368 26.7419 4.45717 26.5962 4.32792C25.934 4.42678 25.3782 4.60045 24.3696 4.56271C24.7864 4.48957 23.4491 4.45717 23.4314 4.31489C21.704 4.17863 20.5705 4.70298 18.934 4.49925C18.9847 4.46585 19.315 4.37234 18.8368 4.3366C18.46 4.37635 17.8004 4.35965 17.3973 4.37501L17.41 4.371C17.4023 4.37234 17.3973 4.37334 17.389 4.37501C17.1916 4.38269 17.0677 4.40039 17.0627 4.43479C16.3726 4.57406 16.017 4.71668 14.6593 4.83457C14.7588 4.99756 15.9051 4.93443 16.4014 4.882L16.8305 4.72135C17.2403 4.96716 18.0549 4.6786 18.3672 4.76143C17.5529 5.04966 15.207 4.97885 13.8 5.1562C14.658 5.38331 16.5243 5.41871 18.1528 5.39132L17.4357 5.2938L18.2877 5.2908L17.4631 5.11746C18.2703 5.14785 18.9677 5.10343 19.6971 5.11311C18.8431 5.11645 18.5105 4.89168 18.9938 4.92709C19.9456 5.08706 19.9857 4.82255 20.7131 4.83257C20.308 4.81787 19.7813 4.81487 20.121 4.72169C21.5554 4.9174 21.9428 4.78982 23.2474 4.99889C23.0857 4.72736 24.8772 4.97184 25.0726 4.74907L24.4671 4.72636L25.7509 4.56204C26.9359 4.78347 24.7019 4.78748 26.5047 4.94412C28.1683 4.97151 28.1256 4.68628 29.4334 4.66491C29.0026 4.82589 27.9652 4.96416 26.9099 4.95948L27.5491 5.03697C27.2108 5.13015 25.7509 5.11078 25.0225 5.10109C26.2262 4.9164 24.4591 5.04431 23.9117 4.8997C23.8108 5.05567 24.584 5.03129 23.6712 5.1562C24.5262 5.15319 24.6515 5.14017 25.7389 5.19895C23.388 5.12815 23.6248 5.73934 21.5728 5.60875C22.5186 5.53828 21.2428 5.38398 21.1289 5.3085C20.6837 5.3272 19.781 5.36427 19.4096 5.40335L19.7459 5.62845C18.5502 5.72564 18.1351 5.24905 16.7551 5.48117C16.5757 5.61576 17.9688 5.52692 17.7206 5.55297C15.8329 5.69425 15.1526 5.33188 13.4763 5.16255C13.3815 5.23001 13.4012 5.37262 12.815 5.49152C12.9991 5.35659 12.5652 5.28746 13.2248 5.1886C12.6644 5.13149 12.0005 5.23068 11.5062 5.28311C12.6731 5.36227 11.0289 5.47716 10.8138 5.55798C10.2093 5.53527 10.9982 5.42339 11.3699 5.38398C10.8846 5.34791 10.3082 5.14885 10.0326 5.35091C10.0136 5.20864 11.3889 4.97685 12.2884 4.94011L11.6822 4.9174C12.1 4.84459 12.1781 4.8653 12.78 4.88734C12.1908 4.77713 12.2489 4.65556 12.3862 4.55403C12.4634 4.57473 12.3435 4.58776 12.4169 4.60813C12.9015 4.6442 13.2733 4.60546 13.1611 4.52998C13.5969 4.33894 12.4887 4.41075 12.1604 4.31523C11.9123 4.32825 11.6641 4.34094 11.4207 4.3533L8.90242 4.96683C7.82666 5.0383 7.34305 4.89135 6.5348 4.79884L6.31304 4.96282C5.37688 4.94579 4.49349 4.89402 5.09366 4.68628C5.12739 4.74106 5.25097 4.72803 5.45436 4.73571C5.48142 4.71367 5.52818 4.69764 5.58729 4.68495C5.607 4.67526 5.61768 4.66558 5.63371 4.65623C4.63143 4.712 4.00554 4.74673 3.94776 4.74974C5.65008 4.51161 4.03259 4.45183 4.31748 4.16093C4.31748 4.16093 3.88764 4.18464 3.45781 4.20835C3.35026 4.21436 3.24272 4.22038 3.14219 4.22572L3.13284 4.22605L3.12816 4.22639H3.12582H3.12449C3.00459 4.2324 3.28747 4.21804 3.25808 4.21971H3.25741L3.23904 4.22271L3.20264 4.22839C3.1786 4.23207 3.15521 4.23574 3.1325 4.23941C3.08675 4.24643 3.04367 4.25344 3.00392 4.25978C2.88669 4.27081 2.94781 4.28817 2.95449 4.29118C2.96752 4.29552 2.97453 4.29519 2.97453 4.29519C2.95983 4.3032 2.94447 4.3042 2.93111 4.3022C2.9408 4.30053 3.0126 4.30287 3.03932 4.30421C3.11113 4.30721 3.15588 4.31255 3.17893 4.31923C3.22535 4.33293 3.18561 4.3533 3.10178 4.37601C3.05936 4.38603 3.00626 4.39839 2.94815 4.41208C2.94414 4.42744 2.99156 4.4388 3.01227 4.4398C3.02563 4.44014 3.03866 4.4388 3.05068 4.43546L3.06771 4.42912V4.4378C3.06738 4.44849 3.06638 4.4555 3.06537 4.46018C3.04266 4.4231 3.01895 4.40641 3.00559 4.41843C2.98088 4.41609 2.97653 4.44715 2.96618 4.46652C2.97319 4.48322 2.9595 4.4889 2.96484 4.50259C2.97653 4.51762 2.96785 4.52397 2.97186 4.53499C2.98321 4.54735 2.98488 4.5557 2.97787 4.56438L2.9772 4.56505C2.98422 4.70198 2.96785 4.37835 2.96952 4.41208V4.41275V4.41375V4.41576L2.97019 4.4201L2.97219 4.43713L2.9762 4.47086L2.98321 4.53599C2.98655 4.57841 2.99023 4.61882 2.9929 4.65623L2.95516 4.61548C2.95549 4.65055 2.95583 4.68729 2.9565 4.72536L2.95716 4.75308L2.9595 4.74239C2.9605 4.73538 2.96117 4.72837 2.96084 4.72102C2.96384 4.69497 2.9408 4.65589 2.93178 4.64921C2.9408 4.65756 2.94447 4.66792 2.94347 4.68328C2.95215 4.69296 2.96585 4.69831 2.96885 4.71334C3.0106 4.75241 3.06704 4.75508 3.10545 4.73505C3.10612 4.72169 3.11514 4.6933 3.12182 4.66391C3.12916 4.65589 3.1118 4.65055 3.13918 4.64086C3.1649 4.63117 3.19262 4.62082 3.22168 4.61014C3.28013 4.58943 3.34492 4.56672 3.41272 4.543C3.68558 4.44915 4.01623 4.34195 4.23064 4.26146C3.03598 4.2 3.74503 4.13454 3.64918 4.03301C3.77275 4.04203 3.99519 4.04403 4.0209 4.02332C4.1919 3.9769 3.78878 3.9612 3.75505 3.9071L3.27879 3.93382L3.16056 3.94016L3.13117 3.9415H3.12749H3.12582V4.52797V4.52831V4.52898L3.12649 4.53298C3.12716 4.53966 3.12683 4.55202 3.12282 4.56872C3.12649 4.56405 3.12282 4.57039 3.13518 4.55436C3.12816 4.56171 3.14353 4.54868 3.13017 4.56004C3.12749 4.56171 3.13217 4.56137 3.11647 4.56805C3.13918 4.60312 3.15622 4.66457 3.14687 4.70933C3.14019 4.76043 3.14319 4.69196 3.14453 4.65623C3.14586 4.61815 3.14687 4.58241 3.1482 4.54935C3.14386 4.63752 3.14019 4.79249 3.14887 4.68495C3.15421 4.64153 3.12616 4.58609 3.11747 4.56739C3.12749 4.56304 3.13083 4.56004 3.12783 4.56104C3.1285 4.5607 3.14019 4.55135 3.13451 4.55536C3.13718 4.55336 3.13585 4.55536 3.1285 4.56037C3.12716 4.56137 3.13184 4.5597 3.12315 4.56438C3.0981 4.55102 3.15254 4.61849 3.1482 4.66458C3.1492 4.6776 3.14887 4.69062 3.14753 4.70398L3.14419 4.72369L3.14185 4.73371L3.14219 4.71567C3.14386 4.66524 3.14586 4.61381 3.14753 4.56171C3.1492 4.5096 3.15121 4.45684 3.15321 4.40273L3.15355 4.39271L3.16323 4.56471L3.16223 4.56505L3.15956 4.56538L3.15087 4.56571C3.14386 4.56571 3.13384 4.56438 3.12115 4.56137C3.11514 4.56004 3.12649 4.56304 3.12382 4.56271C3.12416 4.56304 3.11948 4.56204 3.11581 4.56037C3.12315 4.56338 3.1275 4.56605 3.12883 4.56705C3.12315 4.56405 3.13985 4.57573 3.13518 4.5734C3.1315 4.56972 3.13785 4.57874 3.13083 4.56939C3.12916 4.56672 3.12816 4.56538 3.12917 4.56805C3.1285 4.56772 3.12649 4.56471 3.12349 4.55803C3.12148 4.55169 3.07406 4.58609 3.04433 4.58575C3.02696 4.58876 3.00926 4.58943 2.99156 4.58776C2.98054 4.58709 2.93378 4.57907 2.98722 4.58275C3.05001 4.58475 3.10846 4.58709 3.15889 4.58876C3.20932 4.59043 3.25073 4.5921 3.28012 4.5931L3.29048 4.59343H3.29516H3.29749C3.3349 4.53298 2.97186 5.1208 3.12582 4.87198H3.12649H3.12749C3.13317 4.87164 3.13785 4.87131 3.14185 4.87098C3.14954 4.87064 3.15388 4.87031 3.15388 4.87031L3.13351 4.87365L3.1285 4.87465L3.12616 4.87498H3.12582C2.97219 5.12647 3.3349 4.53232 3.29749 4.59343H3.29682H3.29582L3.28614 4.5931C3.27345 4.59277 3.26142 4.59243 3.25007 4.59177C3.22736 4.5911 3.20665 4.59043 3.18761 4.58943C3.15087 4.58809 3.12015 4.58709 3.09176 4.58609C3.06437 4.58509 3.03966 4.58442 3.01361 4.58342C2.99791 4.58342 2.93312 4.57874 2.97052 4.58475C3.00359 4.59043 3.05469 4.59511 3.11581 4.55803C3.13351 4.56672 3.12883 4.57206 3.13384 4.57306C3.13484 4.57406 3.13651 4.57774 3.1295 4.56805C3.12649 4.56304 3.13083 4.57139 3.12749 4.56638C3.12449 4.56271 3.13284 4.54634 3.0784 4.5764C3.05736 4.58409 3.03431 4.58843 3.01027 4.58843C2.99824 4.58843 2.98588 4.58743 2.97386 4.58542L2.9565 4.58141L2.99123 4.58275C3.08408 4.58609 3.17926 4.58943 3.27445 4.59277L3.29215 4.59343H3.29649C3.45046 4.11951 3.08775 5.23936 3.12516 5.1238H3.12549H3.12649H3.12883L3.13752 5.12347L3.17258 5.12247L3.24305 5.1208L3.38232 5.11946C3.47417 5.11946 3.56368 5.1218 3.64918 5.12714L3.99786 4.94545C3.8636 5.04665 5.32344 5.06636 4.28609 5.20463C4.28609 5.20463 3.86426 5.2417 3.44244 5.27911C3.3369 5.28846 3.23136 5.29781 3.1325 5.30649L3.12783 5.30683H3.12549H3.12516C3.20164 4.98887 2.95316 6.01888 3.29649 4.59377H3.29549L3.28614 4.59343L3.26777 4.59277L3.23136 4.59143C3.20732 4.59076 3.18394 4.58976 3.16123 4.58909C3.11547 4.58742 3.07239 4.58575 3.03231 4.58442C2.90606 4.57707 3.00492 4.59243 3.01728 4.58843C3.042 4.58742 3.05535 4.58342 3.05535 4.58342C3.05535 4.58342 3.04066 4.58776 3.01695 4.58876C3.00526 4.58909 2.99123 4.58876 2.97653 4.58609C2.97119 4.58509 2.95683 4.58275 2.95883 4.58175L3.00292 4.58308C3.12115 4.58742 3.23938 4.59143 3.23938 4.59143C3.23938 4.59143 3.14954 4.58809 3.01461 4.58342C2.99791 4.58275 2.98021 4.58208 2.96217 4.58141C2.95249 4.58175 2.9762 4.58575 2.98221 4.58642C3.00292 4.58909 3.02463 4.58876 3.04634 4.58508C3.06805 4.58108 3.08942 4.5734 3.10879 4.56204C3.13317 4.54434 3.11948 4.56638 3.12582 4.56405C3.13184 4.57239 3.13751 4.57573 3.13484 4.57306C3.13484 4.57306 3.13685 4.5754 3.13217 4.57106C3.13584 4.57507 3.13451 4.5744 3.13417 4.57406C3.13618 4.5734 3.13017 4.56872 3.12549 4.56505C3.11347 4.55903 3.11714 4.56137 3.12282 4.56271C3.12482 4.56304 3.12282 4.56204 3.11915 4.5607C3.12783 4.56338 3.15054 4.56638 3.15355 4.56538L3.16056 4.56471L3.16256 4.56438L3.16323 4.56405L3.15355 4.39204V4.39304V4.39705L3.15154 4.40674C3.14987 4.45116 3.14853 4.49491 3.14653 4.55169C3.14553 4.58141 3.14453 4.61448 3.14286 4.65355C3.14219 4.67326 3.14152 4.6943 3.14085 4.71668L3.14019 4.73404L3.14252 4.72536L3.14586 4.70499C3.1492 4.67693 3.14753 4.6442 3.13484 4.61014C3.1325 4.59644 3.11113 4.56906 3.11547 4.56772L3.12549 4.56271C3.12816 4.56071 3.12382 4.56304 3.13317 4.55603C3.13484 4.55436 3.13384 4.55469 3.1305 4.5577C3.13317 4.55503 3.13417 4.55269 3.13184 4.5557C3.12582 4.56371 3.12683 4.56171 3.12616 4.56204C3.12282 4.56672 3.11814 4.57941 3.12215 4.56772C3.12349 4.55803 3.11681 4.58843 3.12349 4.55403C3.12482 4.54467 3.12482 4.53733 3.12416 4.53265L3.12382 4.52964L3.12349 4.52864V4.52831C3.12349 4.71567 3.12349 2.89613 3.12382 3.66629H3.12449H3.12582L3.21132 3.66062C3.67222 3.6339 4.21996 3.64125 4.927 3.6683C3.90401 3.7174 4.82213 3.8236 4.43705 3.95118C5.48075 4.04303 5.8331 3.86134 6.37416 3.77584C6.64001 3.89207 6.82904 3.98725 5.89689 3.97022C5.78 4.2137 7.12328 3.92814 7.20812 4.17896C10.2965 4.17161 9.68294 3.36872 13.293 3.68233L13.1577 3.78352C15.4502 3.65761 16.7728 3.77818 18.8956 3.69869L20.5672 3.95619C20.1934 3.9956 19.1885 4.18798 19.6574 4.31189C18.8445 4.05171 17.9814 4.14256 17.1054 4.00295C17.0159 4.07042 17.3726 4.11951 17.5282 4.16126C16.9995 4.15892 16.7344 4.04236 16.036 4.08745C16.0697 4.14122 16.8312 4.20568 16.2574 4.23741L15.3076 4.07743C14.0368 4.15391 14.6817 4.46084 13.1891 4.38737C13.4666 4.24442 14.0334 4.03769 14.6112 4.00362C13.9292 3.97256 15.5207 3.91712 14.8981 3.83162C13.9155 4.04336 13.4413 3.8757 12.1347 4.00829C12.288 3.9789 12.3288 3.93749 12.6501 3.92446L10.7544 3.83496C11.2233 3.95887 9.18864 3.97089 9.36499 4.15491C11.3853 4.2314 10.7914 4.12018 13.0939 4.22438C12.442 4.26613 11.6017 4.4535 11.2079 4.6255C11.1879 4.61848 11.1548 4.61247 11.084 4.60913C10.732 4.79116 11.0907 4.83992 11.084 5.15854C12.1347 4.9321 12.8374 5.11846 14.0768 4.9882C14.31 4.81386 13.3578 4.76577 12.7416 4.81086L13.8337 4.6953L13.6186 4.77546L16.3903 4.8339C15.865 4.84326 15.687 4.94445 15.4128 5.0206C15.7705 5.02761 16.1245 5.07337 16.5012 5.12414C16.4221 4.95781 16.4718 4.84025 16.8209 4.84359C18.6043 4.88333 19.5956 5.03263 20.2535 5.22266C20.322 5.21865 20.3992 5.21465 20.4613 5.21097C20.1624 5.04064 21.7278 4.90471 22.2802 4.73037C22.2528 4.90638 23.1993 4.83591 23.7133 4.92608C23.9868 4.72402 23.6218 4.44481 22.9962 4.27915C21.7902 4.46418 22.3206 4.46585 21.7508 4.72803L19.8164 4.90304L20.2485 4.74172C19.283 4.67059 18.3558 4.88367 18.4267 4.67359C18.9366 4.53365 19.779 4.61848 20.2853 4.47821L19.6467 4.40139C20.7736 4.19499 20.2242 4.60012 21.5881 4.45617C21.0865 4.27782 21.7117 4.44348 22.2962 4.32391C21.8273 4.19967 19.8945 4.37468 20.3043 4.07142C21.0137 3.93916 22.691 4.42678 23.6295 4.12552L23.5837 4.15992C24.9684 4.199 25.455 4.026 25.9734 3.91678C26.5625 4.01497 27.3761 3.8767 28.0147 3.86568L27.999 3.95385L28.9001 3.91712C28.4712 4.07776 27.8443 3.91278 27.0702 3.93616L27.1664 4.10014C26.2743 3.90543 25.6791 4.20134 24.9874 4.34261C25.9944 4.20067 27.831 4.38269 28.0674 4.0624L28.6903 4.22772L28.9882 4.16794C29.4525 4.29218 28.9786 4.48689 28.0785 4.52397C27.9222 4.48255 27.844 4.46185 27.8911 4.42778C27.4736 4.50092 27.0899 4.62817 26.0789 4.59043L26.6183 4.50359C25.3595 4.4919 24.2156 4.55503 23.7844 4.71634C25.6013 4.78481 27.3881 4.79917 29.0941 4.79182C29.5974 4.42143 30.1943 4.21369 30.4511 3.86936C31.596 3.8059 33.15 3.75847 34.1443 3.88439L34.0531 3.95219C34.5384 3.98725 34.9853 3.96888 35.358 3.92981C35.8707 4.02032 35.0073 4.11183 35.3643 4.16059L37.0039 4.04503C36.9027 4.201 35.523 4.20167 34.8677 4.21269C34.9913 4.19933 35.2411 4.17362 35.1609 4.15258C34.3988 4.08845 32.9787 4.35397 32.6457 4.12853C32.2743 4.16761 33.4002 3.96221 32.1431 3.95052C31.3011 3.86568 31.0272 4.06808 30.9394 4.13554C30.9257 4.22405 32.2606 4.25645 31.7974 4.36299C32.4527 4.35197 32.7135 4.23808 33.5515 4.32324C32.9022 4.33393 32.0201 4.51294 31.6741 4.37601C30.3903 4.54067 30.5743 4.95481 31.1798 4.97752C31.0356 4.8476 33.5221 4.81754 31.8385 4.64854C32.5949 4.48155 33.9763 4.48021 34.9659 4.37601L34.9211 4.40941L36.1492 4.36766C35.9762 4.41409 35.6051 4.4535 35.5928 4.54133L37.2941 4.30487C36.3366 4.46385 37.8876 4.41509 38.3238 4.48522C38.5058 4.3503 39.1704 4.25144 38.5328 4.17395C37.8161 4.07609 38.1154 4.24709 37.4638 4.25745L38.3866 4.04437L38.4657 4.06541L39.0215 3.89107C40.2786 3.90342 38.4721 4.29619 40.0832 4.12586L39.8738 3.88839C41.7388 3.92346 44.1338 4.19065 45.4513 4.0811C45.088 4.21603 44.9276 4.43346 45.4273 4.56204C44.8592 4.52096 43.7173 4.52964 42.9024 4.55202C42.7454 4.51027 43.9207 4.27114 44.8057 4.32224C44.3769 3.93348 42.5791 4.55703 42.4749 4.16293C40.2191 4.02533 40.7923 4.54267 38.8775 4.31122C38.8511 4.48723 38.3335 4.39705 38.2326 4.55235C38.7994 4.83958 40.7922 4.54267 42.0347 4.64287C41.9131 4.65556 41.6683 4.68194 41.6202 4.71534C42.5086 4.76677 42.8753 4.7277 43.4958 4.66257L43.4177 4.64153C44.5018 4.46953 44.0883 4.77312 44.7266 4.85027C44.9737 4.82422 45.8611 4.87498 45.7185 4.74573L46.8738 4.91272L46.818 4.71634C47.4696 4.70499 47.6122 4.83457 48.203 4.715L48.2304 4.53933L46.6116 4.47821C47.4322 4.42076 46.8404 4.30988 47.7418 4.27281C46.7348 4.46519 48.4542 4.37033 48.5534 4.53365L49.2163 4.43479L49.0467 4.48155C49.567 4.57206 49.6662 4.41609 50.2737 4.43913C49.5573 4.34128 49.0884 4.21737 48.1756 4.34228C48.8399 4.24342 50.1578 4.13387 50.4811 4.12786C51.1788 4.05405 51.6661 4.18831 52.3187 4.20802C51.0659 4.27849 52.7572 4.74139 50.2473 4.61481C50.2938 4.58108 50.4968 4.58876 50.5753 4.60947C50.2407 4.3847 49.0707 4.62349 48.5263 4.70933C48.6666 4.83891 48.0972 4.87098 49.062 4.94245C48.7454 4.85962 49.8753 4.65389 50.7934 4.76009L50.6318 5.03697L51.9684 5.0697L51.8435 5.08272C52.3461 5.26107 53.2696 5.04832 54.19 5.15319C54.8543 5.05433 57.4036 5.13282 56.3068 4.84326C57.1331 5.01659 57.8582 4.79583 58.7596 4.75876L57.6361 4.64587C58.9647 4.44782 58.5819 4.57573 59.6453 4.26045C59.7525 4.33627 59.9897 4.39839 59.7739 4.47821C61.5587 4.49257 64.1077 4.57106 65.1544 4.34428C66.4125 4.35631 66.6099 4.68261 68.3753 4.55436C68.7471 4.51528 68.0855 4.29552 69.2544 4.37501C69.3329 4.39572 68.1292 4.58008 69.4304 4.55837C70.3572 4.34529 71.608 4.67626 72.8137 4.49124C73.4499 4.56805 74.5547 4.539 74.3246 4.70766C73.316 4.66925 71.8889 4.70432 71.6718 4.78514C71.811 4.68328 70.9547 4.68662 71.6975 4.60846C70.1732 4.48088 70.7082 4.713 69.3406 4.62583C69.2464 4.6933 70.0433 4.81253 70.3365 4.75208C70.3432 4.98219 67.6403 4.86329 68.8556 5.1395C70.3168 5.15954 70.751 4.6796 72.0171 4.92174C71.5095 5.06168 70.7159 4.94312 70.0707 5.18492L71.1113 5.27744L71.8668 5.11111L71.8217 5.14518C73.66 5.35592 73.522 4.90805 75.1666 4.79249C74.2137 4.63251 75.387 4.39338 74.6703 4.29552C75.7701 4.26613 76.578 4.29686 76.585 4.52697C74.5277 4.71501 76.4681 4.77045 74.5661 5.00023C74.8787 5.08272 74.1135 5.33722 75.2467 5.3626C76.5239 5.19828 74.8647 5.17089 76.1385 5.09475C76.214 5.11545 76.2918 5.13616 76.2474 5.16989C76.8332 5.05033 76.931 5.21298 77.6397 5.08072L77.4718 5.12681C78.3458 5.26641 78.4276 4.9685 79.1801 5.1208C78.8795 4.9498 79.6854 4.98052 80.152 4.87398C79.3895 4.80952 78.9763 4.56405 77.4718 4.57774C77.2901 4.713 77.3999 4.78781 76.7821 4.85327L77.7603 4.83691C77.5492 4.85895 77.3886 4.89402 77.1952 4.92107L76.2557 4.85094C77.4467 4.75442 76.9006 4.6098 77.4066 4.46919C78.4967 4.52831 78.306 4.43212 78.9917 4.47621C78.9226 4.67459 81.0935 4.8152 82.3486 4.94245C82.1535 4.93978 81.902 4.93644 81.7664 4.93477C80.8547 5.06001 82.3937 5.10009 82.4274 5.15453L83.0917 5.05534C82.9665 5.06903 82.7935 5.11545 83.077 5.14351C83.9764 5.10677 83.924 4.91005 84.8224 4.87265C84.8895 4.98186 84.1307 5.14752 84.6891 5.20496C84.8815 5.30015 85.4947 5.55364 86.6877 5.45712C86.7722 5.41537 87.0815 5.39199 87.4402 5.37396C87.3904 5.37997 87.3276 5.38398 87.3053 5.39199L88.0978 5.51089C87.4228 5.69725 86.7321 5.42305 86.0538 5.61008L85.996 5.7871C85.468 5.78776 84.7506 5.86425 84.4206 5.95609C85.2259 5.98615 85.3955 5.93973 86.296 5.90299C86.4219 6.01487 85.788 6.09803 85.6964 6.11006L85.8307 6.00919C84.7566 5.86258 84.2249 6.17886 82.8883 6.14613C82.6866 6.13912 82.8095 6.12575 82.8542 6.09236C81.7721 6.26402 80.7104 6.0289 79.6587 6.25501L80.0013 6.16183C79.2849 6.23731 77.8849 6.41131 76.4858 6.57998L76.4745 6.64911C76.6301 6.69052 76.1047 6.68819 75.8229 6.66013L75.8245 6.65913C75.1222 6.73929 74.4482 6.8161 73.8971 6.87889C74.0735 6.92131 74.2992 6.95704 74.5581 6.96706C74.7772 6.88624 76.0633 6.95237 75.887 6.76868C76.4811 6.87956 77.4387 6.72025 77.8745 6.79005C77.0797 6.67182 78.4279 6.61638 78.5672 6.51518C78.8347 6.63141 79.7452 6.5065 79.6413 6.66247C79.7983 6.70321 79.2509 6.55893 78.9126 6.65245C78.0803 6.79807 80.4369 6.78037 79.3998 6.91864C80.7191 6.80909 82.4571 6.85651 83.8181 6.7129L83.0566 6.64911C83.6615 6.67182 85.0933 6.63709 85.2001 6.71257C84.7503 6.73094 84.2252 6.72893 83.6501 6.76033C83.6224 6.93633 85.0318 6.75933 85.0959 6.86787L86.7659 6.5763L86.0344 6.56662C86.4953 6.45974 88.0247 6.58866 89.1582 6.61371C88.5079 6.85484 87.4482 6.62005 86.2555 6.71657C85.3892 6.80809 86.7909 6.94936 85.9707 7.00714C86.1834 7.06325 86.7181 7.05657 86.982 6.99612L87.3053 7.03987C86.5742 7.25897 84.9343 7.2102 83.8428 7.39857C83.9387 7.37519 84.0222 7.35014 84.0526 7.32476C83.2119 7.23993 82.3586 7.24327 81.5393 7.30138C81.9729 7.37052 82.1445 7.32342 82.392 7.29804C82.4231 7.35215 81.6492 7.37553 81.3567 7.43564C82.1188 7.49943 81.4989 7.5649 81.9809 7.60097C81.4846 7.65307 81.0828 7.63804 80.4776 7.61499C80.164 7.53217 80.7368 7.50077 80.673 7.39256C80.0501 7.45769 79.7652 7.19818 78.8538 7.32342C80.0665 7.36918 78.5342 7.55955 78.1163 7.63236L78.3194 7.64004C77.935 7.76729 77.6087 7.7723 77.3428 7.65607C77.8391 7.60397 78.3194 7.64004 78.1781 7.51045C77.8505 7.51613 77.5235 7.52148 77.1525 7.56055L77.4901 7.46704L75.8606 7.49409C75.6028 7.60831 75.1716 7.76929 74.9462 7.93762C74.5551 7.83409 74.011 7.92025 73.6403 7.96L73.8126 7.91224C73.0942 7.81472 71.4951 7.89621 71.3598 7.9974C70.8465 7.90723 74.9896 7.35449 71.3598 7.448C69.9801 7.449 70.5008 7.77029 69.713 7.88185C69.713 7.88185 69.7574 7.84878 69.6789 7.82774C69.075 7.80436 69.0146 7.92693 68.518 7.9787C68.88 8.02746 69.4047 8.0298 69.5737 7.98338C69.392 8.11797 68.3162 7.97135 67.8537 8.07756C68.4542 7.86982 66.6864 7.99841 67.1523 7.89153C65.9513 7.75794 64.6675 7.92226 64.0369 8.07556C63.222 7.81472 62.6078 8.11029 61.2852 7.98939C61.4883 7.99707 61.8573 7.958 62.1415 7.98605C62.8953 7.82073 60.7709 7.89921 61.9315 7.74825C61.6833 7.7743 61.9138 7.83609 62.1682 7.81004C62.6134 7.79134 63.0326 7.71886 62.9207 7.64338L61.8429 7.4971L62.219 7.45702L60.5835 7.25462C60.5387 7.28802 60.6924 7.32943 60.7712 7.34981C58.8738 7.26063 56.7046 7.37352 55.0427 7.34647C54.7304 7.81305 50.9507 7.54653 49.6078 7.83308C49.9678 7.69916 50.1645 7.46303 49.9417 7.36584C50.241 7.34613 50.8542 7.15777 51.5338 7.19684C51.6421 7.27199 52.481 7.35682 51.9413 7.44232C53.8183 7.38922 51.6872 7.23759 52.2412 7.06392C50.1612 7.10934 48.9411 7.38254 47.6282 7.49242L47.5948 7.43731L46.6036 7.54185C47.4135 7.57291 47.3734 7.83743 46.3294 7.74458L46.4563 7.73155C45.8608 7.62034 44.6217 7.75126 43.6912 7.73389L43.0607 7.88685C42.1289 7.86949 42.0888 7.5846 41.7859 7.41393C40.3253 7.39389 39.4824 7.62735 38.445 7.76629C37.9758 7.64204 35.7885 7.61266 36.9474 7.46203C35.6302 7.57158 35.896 8.23687 33.6366 7.86815L34.2228 7.74825C32.0629 7.7733 28.9822 8.01177 27.9873 7.88552C28.7842 7.45501 25.2894 7.44733 24.9053 7.02551C25.0122 7.12203 24.2009 7.15409 24.0827 7.20553C23.9047 7.1561 23.6088 7.108 23.2945 7.19517C24.1368 7.28001 22.7023 7.63336 24.3128 7.46303C23.4979 7.75226 22.4478 7.97837 20.6627 7.96401L20.6897 7.788L22.1021 7.84143C21.9595 7.71151 22.6866 7.72153 22.9845 7.66142C20.3567 7.56256 23.3285 7.24928 20.6423 7.27232C20.3828 7.38655 20.5511 7.33946 19.8528 7.38454C20.1811 7.37853 20.2402 7.25729 19.7112 7.25496L19.2032 7.39556C18.265 7.10199 20.7559 7.20453 19.9556 6.99812C20.9927 6.85985 22.7892 6.78604 22.4545 6.56127C20.7605 6.47978 20.9305 6.98209 19.1594 6.88023L18.971 6.78437C18.3482 6.8495 18.2473 7.00447 17.9063 7.09798C17.8756 7.04354 17.7173 7.0028 17.3172 6.9871C16.2654 7.21354 15.5671 7.25796 14.5968 7.50478C17.1792 7.31942 16.8045 7.67678 19.4704 7.51179C19.0525 7.58493 17.1759 7.63837 17.0607 7.88151L17.0857 7.70517C16.219 7.79668 15.3527 7.88752 14.2642 7.82941L14.9288 7.73022C13.486 7.85279 12.5305 7.4627 11.3919 7.75593C11.7941 7.77163 12.1204 7.76629 12.3685 7.73957C11.6257 7.81805 10.6942 7.80035 9.88701 7.77063L8.21708 8.06153C8.23178 7.97403 7.17338 7.96902 7.68404 7.82941C6.4817 7.69548 5.91493 7.95799 5.22024 8.00175C3.98884 7.81438 6.28665 7.91825 6.40755 7.67478C5.55923 7.63403 4.68587 7.63202 3.90468 7.66008C3.70963 7.6691 3.51993 7.67811 3.33791 7.6868L3.20298 7.69481L3.13651 7.69916C3.11714 7.70116 3.0607 7.69849 3.02496 7.69782C2.86231 7.69281 2.70233 7.68279 2.54736 7.66776C1.9325 7.5659 1.39746 7.33578 1.02774 7.05189C1.26954 7.29036 1.48964 7.41861 1.62757 7.51179C1.76617 7.60364 1.82796 7.65173 1.80358 7.66409C1.78588 7.64004 1.6947 7.58627 1.56111 7.50711C1.42785 7.42696 1.24816 7.32977 1.08017 7.18115C0.904161 7.04121 0.722474 6.87989 0.577859 6.69186C0.502378 6.60135 0.430571 6.51051 0.365444 6.42234C0.308333 6.32849 0.256566 6.23764 0.211144 6.15381C0.211144 6.15381 0.124974 6.04961 0.038472 5.94507C-0.047028 5.8412 -0.128184 5.65918 -0.127516 5.6672C-0.181288 5.4658 -0.212684 5.29046 -0.231721 5.14518C-0.245414 5.05467 -0.236397 5.055 -0.235729 5.02528C-0.232723 5.0019 -0.23005 4.98086 -0.228046 4.96215C-0.216691 4.88834 -0.201661 4.85494 -0.182624 4.85828C-0.163587 4.86162 -0.140542 4.90137 -0.113489 4.97351C-0.107143 4.99154 -0.100131 5.01158 -0.0924493 5.03329C-0.0804259 5.07471 -0.0673992 5.11913 -0.0530379 5.16722C-0.0166336 5.2908 0.0294549 5.43174 0.0885701 5.58337C0.0371365 5.41203 -0.0122935 5.21732 -0.0453579 5.05033C-0.0590513 4.97251 -0.0727448 4.89302 -0.0867722 4.81253L-0.0987941 4.75208L-0.101801 4.73705L-0.103136 4.72937L-0.103804 4.72569L-0.104137 4.72402L-0.112154 4.56338V4.50393L-0.106143 4.26346C-0.0947873 4.10214 -0.0981256 3.93716 -0.0533717 3.77751C0.0581791 3.1219 0.449943 2.51806 0.948581 2.16971C0.76656 2.34171 0.624616 2.56381 0.471985 2.77255C0.352085 3.00434 0.210809 3.23345 0.138668 3.48928C0.0985902 3.6162 0.0621849 3.74445 0.0291204 3.87203C-0.0019401 3.99995 -0.00895263 4.13154 -0.0239819 4.26112L-0.0396782 4.45516L-0.0453579 4.55135L-0.0460255 4.56338L-0.0380092 4.72169L-0.036674 4.73438L-0.034001 4.75976C-0.0273214 4.82689 -0.0206423 4.89335 -0.0142966 4.95915L-0.00394368 5.06101C0.0100837 5.13549 0.0257829 5.20964 0.0434841 5.28311C0.0785524 5.42973 0.120966 5.57335 0.168392 5.70894C0.192105 5.78242 0.217154 5.83652 0.242536 5.88395C0.268587 5.93405 0.294305 5.98348 0.319354 6.03257C0.371122 6.12943 0.424225 6.22228 0.477328 6.30978C0.594557 6.47677 0.721806 6.61905 0.836697 6.74329C0.953591 6.86553 1.08151 6.94936 1.18437 7.02317C1.08351 6.94602 0.987658 6.86787 0.897482 6.78938C0.81599 6.70255 0.738839 6.61538 0.666364 6.52854C0.514401 6.36021 0.4112 6.17352 0.318019 5.99417C0.271595 5.89664 0.227842 5.83485 0.189768 5.71228C0.151694 5.6004 0.118963 5.48918 0.0919107 5.37997C0.064858 5.27076 0.0428158 5.16355 0.0254486 5.06001C0.0204389 5.00357 0.0211052 4.96683 0.0191013 4.92074C0.0184334 4.87732 0.0174329 4.83424 0.0164309 4.79216L0.0157633 4.7297V4.71434L0.0087484 4.56405L0.009416 4.55703L0.0107512 4.543L0.0174323 4.48656C0.0354675 4.3366 0.0591804 4.19165 0.0869011 4.05205C0.107274 3.91144 0.170731 3.78085 0.217489 3.64926C0.27126 3.51968 0.317017 3.38842 0.396505 3.27119C0.469648 3.15129 0.547132 3.03206 0.629292 2.91349C0.719134 2.80094 0.822668 2.6934 0.928207 2.58218C1.0294 2.46662 1.16099 2.37511 1.29359 2.27391C1.36105 2.22515 1.42818 2.17272 1.50199 2.12663C1.57948 2.08588 1.6593 2.04413 1.74079 2.00105C1.82429 1.9593 1.90678 1.91789 1.99829 1.87748C2.10951 1.83873 2.22741 1.80266 2.34931 1.77027C2.41043 1.75557 2.47255 1.74054 2.53567 1.72518C2.59512 1.71182 2.67728 1.69445 2.69398 1.69612C2.75644 1.68978 2.8209 1.68343 2.88736 1.67675L2.98856 1.66573L3.13918 1.65805L3.16524 1.65771L3.21834 1.65671C3.28948 1.65504 3.36262 1.65304 3.43843 1.65137C3.58973 1.64502 3.75071 1.63801 3.92238 1.631C3.95611 1.68577 3.4912 1.79231 4.0199 1.79365C5.24462 1.75156 4.33986 1.55785 4.7226 1.4306C4.25102 1.466 3.90568 1.46634 3.60977 1.43995C3.46181 1.42659 3.32622 1.40656 3.19329 1.38084L3.14353 1.37082L3.13117 1.36848L3.12482 1.36715H3.12416L2.96952 1.37483H2.96818L2.96518 1.37449L2.9398 1.37182L2.83893 1.35946C2.77147 1.34945 2.70367 1.33943 2.63353 1.32941L2.87467 1.21184C2.88001 1.21719 2.89404 1.2212 2.91441 1.22387C2.92476 1.22487 2.93679 1.22587 2.94981 1.22721L2.95516 1.22754L3.12516 1.21919H3.12649L3.12917 1.21953L3.13985 1.22119L3.16256 1.2242C3.22635 1.22988 3.30918 1.23689 3.39668 1.24457C3.57102 1.25693 3.76307 1.26929 3.8499 1.29267L4.00253 1.1033C3.9324 1.31271 4.87958 1.47235 5.62403 1.3942C4.87156 1.24224 5.07462 1.25025 4.87022 1.01145C5.91727 0.785346 6.05153 1.23355 7.22515 0.994085C7.13698 1.06155 6.11265 1.11165 6.99804 1.16308C7.7308 1.1721 7.63294 1.00911 8.12457 0.957013C7.57116 1.13135 7.71344 1.26127 7.11327 1.46834C5.81106 1.49039 6.58791 1.466 5.31509 1.54215L6.39253 1.68977C5.28938 1.71816 5.5903 1.8895 5.49945 1.9563C7.38346 2.13398 6.91922 1.69111 8.13125 1.73687C8.71572 1.6173 6.99604 1.71148 7.90982 1.58624C9.04336 1.61162 8.16832 1.47235 9.44047 1.39654L9.22738 1.47669C9.61648 1.58056 10.0009 1.45265 10.4508 1.43494C10.9457 1.38217 9.89034 0.82843 11.9253 0.816406C11.8258 0.865168 11.789 0.895896 11.789 0.916269L9.80384 2.38279C11.8659 2.37912 14.2418 2.41987 16.6295 2.51806C17.1919 2.80462 14.9252 2.75452 15.0714 2.88377L13.9823 2.82499C14.0434 2.70342 16.2641 2.78758 15.2805 2.57283C13.3574 2.66 12.4847 2.52039 10.6605 2.77088C11.2273 3.05811 13.0635 2.71978 14.2502 2.94188C13.7519 2.92318 13.331 2.95491 12.9226 2.99599C14.0368 3.03373 15.2298 3.07381 16.4976 3.11656L16.7824 3.04709C15.9278 3.01469 15.3366 2.99031 15.2605 2.97996C16.3934 3.005 17.3489 2.84603 17.4244 2.63595L17.223 2.62861L17.6324 2.56315C17.898 2.5755 18.1635 2.5892 18.428 2.60255ZM91.8775 2.65199C91.8087 2.67236 91.7546 2.69574 91.7145 2.72513C91.7559 2.6944 91.7095 2.6747 91.8775 2.65199ZM4.76936 5.82283L3.63515 5.79578C3.4528 5.78843 3.24205 5.79077 3.08374 5.77474C3.01561 5.76338 2.94814 5.75437 2.88035 5.74735C2.81655 5.7223 2.75343 5.69926 2.68964 5.67888C2.44416 5.568 2.24244 5.37663 2.11953 5.14952C2.09849 5.09308 2.04672 5.02995 2.04472 4.98319C2.0347 4.93176 2.01633 4.89536 1.99829 4.83758L1.97658 4.56371L1.97391 4.52931L1.97258 4.51228C1.97792 4.61682 1.97391 4.54067 1.97525 4.56405V4.56338L1.97558 4.56171L1.97592 4.5587L1.97692 4.55302L1.98427 4.50626L1.99662 4.41342L1.9689 4.49591L1.95387 4.53766L1.94619 4.5587L1.94419 4.56405C1.94619 4.60847 1.94085 4.50493 1.94152 4.51629V4.51829V4.52196L1.94051 4.53699C1.93584 4.61815 1.93116 4.69831 1.92649 4.77746C1.91647 4.87098 1.9305 4.89803 1.93283 4.94913C1.94118 4.99722 1.92682 5.04565 1.94886 5.10076C1.9836 5.20864 2.00631 5.32686 2.06776 5.41938C2.09515 5.46781 2.11652 5.52124 2.14692 5.56566C2.18098 5.60808 2.21371 5.64916 2.24578 5.68924C2.30489 5.77941 2.38538 5.83319 2.45385 5.89664C2.52031 5.96511 2.59446 6.00352 2.65958 6.04326C2.7875 6.13377 2.89604 6.17418 2.95249 6.21159C3.00893 6.25 3.01528 6.27972 2.95048 6.29876C2.88569 6.31913 2.74876 6.3345 2.53668 6.27505C2.32426 6.22929 2.03703 6.09269 1.75448 5.80613C1.61354 5.65951 1.4883 5.47282 1.38911 5.23468C1.35504 5.11311 1.29125 4.96282 1.28557 4.84326C1.27922 4.78113 1.27255 4.71768 1.26587 4.65288L1.26086 4.60379L1.25952 4.59143L1.25885 4.58508C1.25718 4.54334 1.25885 4.56972 1.25852 4.55837L1.26086 4.53065L1.27188 4.41809C1.27188 4.41809 1.27255 4.33727 1.27355 4.25645C1.26854 4.17395 1.29292 4.0958 1.29292 4.0958C1.25685 4.17061 1.24616 4.25878 1.23113 4.3533C1.22412 4.40106 1.2171 4.45016 1.21009 4.50025L1.20508 4.53866L1.20274 4.55803L1.20207 4.56304V4.56438L1.20308 4.5911V4.5931L1.20341 4.60145L1.20742 4.67092C1.21677 4.76778 1.2121 4.85561 1.23614 4.97151C1.26887 5.09174 1.3006 5.22433 1.3497 5.3449C1.54374 5.81214 1.98594 6.22361 2.50027 6.37691C2.71102 6.423 3.06871 6.40129 3.38299 6.3178C3.71464 6.24365 4.08703 6.16082 4.43538 6.083C5.13107 5.92336 5.7299 5.77607 5.71688 5.75203C5.45103 5.6358 5.0636 5.76272 4.58033 5.72731L4.76936 5.82283ZM5.84412 6.51852C6.70046 6.56494 6.50541 6.47277 6.63834 6.38994C6.33675 6.40029 6.03583 6.41098 5.73825 6.42133C5.85247 6.44237 5.90858 6.47176 5.84412 6.51852ZM6.5869 6.30744C6.49072 6.30544 6.40856 6.30143 6.36547 6.29041L6.5869 6.30744ZM11.0793 2.92819C11.0413 2.93019 11.0276 2.93119 10.9915 2.9332C11.1935 2.93954 11.3963 2.94589 11.608 2.95257C11.5255 2.93921 11.3696 2.92886 11.0793 2.92819ZM9.34061 2.72513L9.13754 2.87676C9.32591 2.88243 9.51862 2.88845 9.71534 2.89412C9.65054 2.82566 9.58275 2.76587 9.34061 2.72513ZM3.75338 2.22615C3.66521 2.27158 3.5256 2.30631 3.36429 2.33604C3.32388 2.34305 3.28213 2.35006 3.23971 2.35741L3.17526 2.36743L3.14286 2.37244L3.12649 2.37478L3.12449 2.37511L3.07105 2.37778L3.07005 2.37812L3.06604 2.37912L3.05802 2.38112C2.97219 2.4025 2.88469 2.42454 2.79952 2.44592L2.73473 2.46295L2.64856 2.49501C2.59312 2.51772 2.53935 2.5401 2.48691 2.56181C2.38404 2.6069 2.29287 2.65165 2.23642 2.70676C2.11218 2.81029 2.04338 2.89546 2.0544 2.94923C2.03136 2.99298 2.0858 2.98363 2.17898 2.94856C2.27383 2.91483 2.39908 2.84369 2.5634 2.81363C2.74442 2.74951 2.90105 2.74416 3.06537 2.73147C3.26476 2.72446 3.41138 2.73481 3.59474 2.73615C3.60676 2.70542 3.6769 2.67703 3.79346 2.64965C3.44612 2.62326 3.214 2.57116 3.3546 2.44191C4.24768 2.72346 4.15483 2.24152 5.12038 2.31366C5.42765 2.1657 4.04595 2.16704 3.75338 2.22615ZM71.4667 6.35654C71.4941 6.37491 71.5883 6.422 71.7209 6.48078L71.0405 6.58465C69.8272 6.5389 68.8556 6.23697 67.7635 6.49648C67.2525 6.43135 66.9786 6.29342 66.7174 6.17986C66.9676 6.18821 67.2014 6.19923 67.3964 6.2166C70.4581 5.83652 68.9929 6.61771 71.4667 6.35654ZM57.5185 5.98649C57.6438 5.97346 57.6889 5.93906 57.6889 5.93906C54.9782 6.32448 52.7462 6.43636 51.285 6.42133C51.5683 6.5743 52.8788 6.69286 53.5017 6.75598L52.9503 6.92999L52.6059 6.79306L51.6484 6.95137C51.9159 7.06859 52.6894 7.04421 53.2064 7.13405C53.2512 7.10066 54.9068 6.89759 55.3693 6.79039L54.0468 6.67015C54.4038 6.71891 56.1585 6.6785 56.8542 6.63408C56.8679 6.54658 55.6686 6.41198 55.518 6.60168C55.375 6.4721 56.7574 6.47076 55.8833 6.33182C56.9194 6.19355 58.5672 6.30911 59.3317 6.37324L59.4613 6.591C60.3003 6.67549 60.0281 6.32848 61.025 6.4544C59.7996 6.49681 61.2321 6.69319 60.2572 6.70956C60.5685 6.79172 60.2639 6.93968 61.2401 6.92365C62.0534 6.63542 62.2694 7.10433 63.0383 6.84983C63.5516 6.94001 62.4855 7.0235 63.4958 7.06191C64.6551 6.91062 64.588 6.80207 64.6598 6.592C63.576 6.53322 63.4421 6.86486 62.5557 6.81376L64.3184 6.4544C63.9935 6.40363 63.7533 6.39829 63.5513 6.41265C63.9056 6.39161 64.2066 6.3385 64.4637 6.26536C64.6103 6.22395 64.7459 6.18888 64.8709 6.15882C63.8719 6.15682 62.9845 6.15181 62.8279 6.0623L62.9655 5.96043C62.6114 5.86692 62.0353 5.94006 61.7695 6.01487C60.8747 6.0259 59.9813 6.16784 59.7859 6.03591L60.1256 5.94273C59.0251 5.97246 58.9022 5.98515 57.5185 5.98649ZM21.4612 5.7547C22.1279 6.12776 22.8626 6.4574 25.9727 6.39194L25.7279 6.41766C27.2953 6.65178 28.7838 6.10806 30.6909 6.36823C29.7654 6.50884 29.8155 6.49615 28.7939 6.81777L29.7868 6.71223C29.5116 6.91529 30.5022 6.81009 31.2306 6.81977L30.5877 7.06125C30.1505 6.99178 29.017 6.96673 29.05 7.02184C29.2982 6.99512 27.5534 6.71691 26.6056 6.78704C26.7031 6.9507 28.7047 6.88457 27.8109 7.15176C28.5985 7.03987 28.6963 7.20285 29.5196 7.14541C28.7301 7.25763 29.3242 7.36851 28.7364 7.48774L30.0864 7.43197C30.1214 7.48641 28.1202 7.55287 29.2264 7.75426C29.7674 7.66843 31.2116 7.77597 31.2373 7.59996L31.2707 7.65407C32.2823 7.69214 31.7159 7.40458 32.9583 7.50511C32.973 7.41661 32.7359 7.35515 32.2907 7.37352C31.9146 7.41293 31.8568 7.53383 31.082 7.55855C30.7346 7.42061 32.0165 7.57558 31.4788 7.3428C31.2116 7.2269 29.4331 7.44299 29.9999 7.18115L31.0098 7.21889C31.0356 7.04254 31.767 7.05256 31.7466 6.91029C32.3642 6.84549 32.947 7.04388 33.5779 6.89058C33.8397 6.77669 33.3825 6.56461 34.4262 6.65679C35.2414 6.91763 37.6444 6.86687 38.5445 6.82979L39.3321 6.71724C39.2653 6.60903 37.8275 6.73194 38.3331 6.59133L39.5612 6.54891L39.4663 6.61671C39.8735 6.63174 40.2896 6.55893 40.661 6.52019C40.2786 6.64711 39.3932 6.59634 39.5689 6.7797C40.1457 6.81577 40.2335 6.88423 40.7642 6.84883C40.6483 6.86186 40.5484 6.87989 40.5631 6.90561C41.7304 6.9851 41.6903 6.70021 41.9829 6.64043C43.1565 6.40129 40.7999 6.41866 40.9502 6.22963L44.3766 6.12843C44.084 6.18821 43.7894 6.24733 43.8996 6.32281C44.7399 6.40764 43.9187 6.46542 45.0986 6.4564C45.0148 6.20524 46.5845 6.29976 47.4178 6.15481C47.8073 6.25768 47.8874 6.27839 47.0358 6.28139C47.1333 6.44438 48.2768 6.38192 48.6833 6.39662C48.9188 6.35621 49.3205 6.33249 49.575 6.29609C49.234 6.21493 49.3797 6.11273 50.1178 6.04326L50.1605 6.00886C48.9501 5.96411 47.0695 5.78609 46.3107 5.95309L46.5251 5.87226C45.1244 5.73132 43.4768 6.16517 42.8309 5.85723C42.8903 5.73533 42.5493 5.82918 42.5737 5.65317L41.5424 5.79077L41.7568 5.71095L40.0024 5.75069L40.0488 5.71763C39.2158 5.88195 38.5622 6.01053 38.0399 6.11373C38.0379 6.19055 38.092 6.21426 37.8141 6.27071C37.5352 6.30878 37.3235 6.31446 37.1348 6.30444C37.1335 6.30477 37.1335 6.30477 37.1335 6.30544V6.30444C36.7029 6.28206 36.4164 6.17185 35.8864 6.12676L37.5175 6.10772C37.6505 5.97713 37.5115 5.84187 36.7123 5.75069C37.0393 5.74568 37.1759 5.64415 36.7714 5.62912C36.727 5.66319 35.7023 5.71262 36.0928 5.81649C34.5431 5.86425 32.0342 5.52158 29.6813 5.7694C31.3719 5.62044 28.3263 5.59472 30.2029 5.54095C28.8931 5.33221 29.0757 5.74635 27.7405 5.71395C27.6266 5.63881 28.4676 5.72364 28.7742 5.57568C26.5542 5.49219 25.0282 5.91267 22.8807 5.84955L22.7888 5.6869C22.3824 5.70794 21.9308 5.73099 21.4612 5.7547ZM17.2126 5.95776C16.7995 5.97613 16.38 5.99483 15.9538 6.01387C15.9956 6.01554 16.034 6.01688 16.0774 6.01888L14.8357 6.15014C15.5988 6.21359 16.1015 6.39261 15.0334 6.47577C15.1232 6.40831 14.8109 6.32581 15.1823 6.28674C14.4666 6.18921 12.8962 6.09436 13.3057 6.34051C14.681 6.10805 13.6263 6.65378 14.7071 6.48111C14.1269 6.64143 13.5525 6.56929 13.0047 6.64076C13.5749 6.50683 12.8718 6.33683 12.0155 6.27304C11.6428 6.31279 10.6338 6.27471 10.0143 6.33984C10.235 6.49013 9.69563 6.5763 10.7053 6.61404C10.3349 6.65345 9.76176 6.68484 9.11984 6.60736C9.37434 6.58164 9.81954 6.56294 9.78848 6.5085C9.37434 6.37023 8.88906 6.37624 8.6212 6.31713C8.40745 6.32514 8.19204 6.33316 7.98263 6.34118C8.04508 6.35454 8.09952 6.37123 8.13793 6.39294L7.42854 6.52554C8.37339 6.45473 7.8654 6.595 7.85304 6.68318C7.87842 6.50717 7.24485 6.66046 6.92122 6.66614L7.62393 6.85217C7.28427 6.94535 6.42492 6.71791 6.60227 6.90194C8.09284 6.97575 8.66596 6.94402 10.0139 6.88858L9.46685 6.74396C10.9878 6.64176 10.405 6.99178 12.1113 6.98476C12.8207 6.85284 14.678 6.97575 14.7131 6.71123C14.499 6.79172 15.7758 6.94636 16.3606 6.82679C17.0072 6.58499 18.962 6.55259 18.3699 6.44237C17.8415 6.43937 17.1308 6.57229 16.7063 6.41499L17.731 6.36455L17.0586 6.23297C17.4063 6.28039 17.3726 6.15147 17.2126 5.95776ZM6.72952 4.65522C6.74087 4.65623 6.75523 4.65756 6.76893 4.65856L6.72517 4.65789L6.72952 4.65522Z" fill="#FFA95A"/>
<path d="M86.6328 5.80859C86.9277 5.74847 87.6558 5.75849 87.5135 5.62891C87.5309 5.77118 86.2117 5.65062 86.6328 5.80859Z" fill="#FFA95A"/>
<path d="M87.5037 5.94703C87.5548 5.91296 87.5194 5.85853 87.846 5.85352L86.9463 5.88959L87.5037 5.94703Z" fill="#FFA95A"/>
<path d="M88.4173 6.91957C88.8815 6.81336 89.1757 6.75358 89.9038 6.76327C90.1774 7.11061 88.7115 6.86046 88.3809 7.18409C89.7161 7.21682 90.1263 6.91322 91.2244 6.88417C90.6803 6.73922 88.4573 6.65572 88.4173 6.91957Z" fill="#FFA95A"/>
<path d="M87.8235 7.35829L88.5663 7.28014L88.4931 7.25977L87.75 7.33792L87.8235 7.35829Z" fill="#FFA95A"/>
<path d="M71.7398 4.34266C71.673 4.23412 71.2101 4.34099 70.9619 4.36704C71.1636 4.37406 71.4462 4.40278 71.7398 4.34266Z" fill="#FFA95A"/>
<path d="M75.1807 4.89946L80.8454 4.79492C79.2152 4.82197 77.7106 4.83567 75.1807 4.89946Z" fill="#FFA95A"/>
<path d="M52.9434 5.0507C54.4644 4.9485 55.14 4.76147 56.6897 4.71371C54.6517 4.49529 53.9981 5.05505 52.2871 4.83128L52.9434 5.0507Z" fill="#FFA95A"/>
<path d="M53.4794 4.18555C53.7313 4.38995 52.3055 4.42501 52.5262 4.57497C53.5512 4.52521 53.0038 4.38026 53.934 4.39796L53.4794 4.18555Z" fill="#FFA95A"/>
<path d="M60.3724 7.56445L59.9111 7.67099L60.2822 7.63192L60.3724 7.56445Z" fill="#FFA95A"/>
<path d="M46.5476 4.36674L46.7159 4.32032L45.9531 4.25586L46.5476 4.36674Z" fill="#FFA95A"/>
<path d="M46.8838 4.27539L46.7158 4.32248L46.8838 4.27539Z" fill="#FFA95A"/>
<path d="M59.7793 8.0016L60.4646 8.04536L60.804 7.95117L59.7793 8.0016Z" fill="#FFA95A"/>
<path d="M53.7292 6.90574L54.3423 6.84028C54.2208 6.85297 53.3818 6.76881 53.7292 6.90574Z" fill="#FFA95A"/>
<path d="M41.8897 4.28125L41.1436 4.35974L41.2197 4.37977L41.9635 4.30162L41.8897 4.28125Z" fill="#FFA95A"/>
<path d="M48.9296 7.46875C49.3534 7.62572 47.7062 7.51117 48.5779 7.6501C49.3531 7.62572 49.0385 7.5439 48.9296 7.46875Z" fill="#FFA95A"/>
<path d="M39.9268 6.4043C39.8262 6.4043 39.72 6.40997 39.6182 6.42734C39.7394 6.41799 39.8416 6.41064 39.9268 6.4043Z" fill="#FFA95A"/>
<path d="M39.9268 6.40366C40.2517 6.40366 40.5767 6.46377 40.7995 6.41835C40.3943 6.34721 40.247 6.37393 39.9268 6.40366Z" fill="#FFA95A"/>
<path d="M36.2052 6.43995L36.4998 6.45131C36.1989 6.52879 36.3415 6.51744 36.6103 6.45498C36.9226 6.44964 36.9049 6.39988 36.942 6.36581C37.0044 6.3461 37.0665 6.32606 37.134 6.30469C37.0382 6.32606 36.9517 6.3451 36.8778 6.36147C36.3939 6.36046 36.099 6.36815 36.2052 6.43995Z" fill="#FFA95A"/>
<path d="M22.377 3.79265C23.4651 3.85109 23.7463 3.87948 23.6872 4.00139C24.7199 4.04013 24.5599 3.83039 25.1828 3.78163C24.0141 3.80501 23.775 3.7489 22.377 3.79265Z" fill="#FFA95A"/>
<path d="M25.1826 3.78239C25.3135 3.77939 25.4384 3.77605 25.5904 3.77271C25.4204 3.76903 25.2945 3.77404 25.1826 3.78239Z" fill="#FFA95A"/>
<path d="M40.5559 7.77344L39.8799 7.9598L40.128 7.93408L40.5559 7.77344Z" fill="#FFA95A"/>
<path d="M20.7616 3.73236C20.9634 3.74005 21.287 3.7347 21.4456 3.77645C21.5038 3.65388 20.5603 3.72468 20.7616 3.73236Z" fill="#FFA95A"/>
<path d="M24.958 6.12343C25.0686 6.19824 25.7649 6.15349 26.0481 6.18221C25.6417 6.16651 25.3104 5.94141 24.958 6.12343Z" fill="#FFA95A"/>
<path d="M17.6406 4.23608C17.8424 4.24376 18.1526 4.32592 18.0184 4.42678C18.3113 4.367 18.708 4.15191 17.6406 4.23608Z" fill="#FFA95A"/>
<path d="M22.9697 6.10119L23.1247 6.14261L23.8695 6.06445L22.9697 6.10119Z" fill="#FFA95A"/>
<path d="M25.6256 7.90271C26.4629 7.75709 24.297 7.55169 25.7395 7.42845C23.8789 7.27615 25.8821 7.63452 24.5098 7.61081C25.3133 7.66024 25.7071 7.84426 25.6256 7.90271Z" fill="#FFA95A"/>
<path d="M24.5096 7.61035C24.3928 7.60267 24.2662 7.59832 24.1289 7.59766C24.2812 7.60267 24.4038 7.60667 24.5096 7.61035Z" fill="#FFA95A"/>
<path d="M12.7236 6.68972C12.8452 6.67436 12.9284 6.65766 13.0052 6.64062C12.9097 6.65265 12.8182 6.66768 12.7236 6.68972Z" fill="#FFA95A"/>
<path d="M20.1265 7.73015L21.3816 7.51172C20.5433 7.65734 18.4339 7.64832 18.5655 7.86574C19.2485 7.90983 20.0704 7.85205 20.408 7.7582L20.1265 7.73015Z" fill="#FFA95A"/>
<path d="M5.71956 3.78538L6.26195 3.69921L5.58496 3.67383C5.77834 3.70656 5.42765 3.8662 5.71956 3.78538Z" fill="#FFA95A"/>
<path d="M5.4541 3.66929L5.58502 3.67397C5.55597 3.66863 5.51455 3.66629 5.4541 3.66929Z" fill="#FFA95A"/>
<path d="M15.0976 6.58465C15.5031 6.60002 15.8277 6.594 16.1974 6.55526C16.0441 6.51418 15.0338 6.47577 15.0976 6.58465Z" fill="#FFA95A"/>
<path d="M3.13454 4.55371C3.1381 4.54937 3.12742 4.56072 3.12528 4.56373C3.11674 4.58177 3.12564 4.56139 3.12243 4.56574C3.12172 4.56574 3.11923 4.57676 3.12065 4.57008C3.11887 4.57709 3.12208 4.56473 3.12243 4.5654C3.12279 4.5674 3.11852 4.57642 3.12635 4.56139C3.12848 4.55839 3.12777 4.56073 3.12706 4.56173L3.13454 4.55371C3.13596 4.55238 3.13204 4.55672 3.13204 4.55638L3.13454 4.55371Z" fill="#FFA95A"/>
<path d="M3.28418 5.39813L3.43848 5.43921L4.18059 5.36106L4.02396 5.32031L3.28418 5.39813Z" fill="#FFA95A"/>
<path d="M3.18642 8.01342C3.79327 8.03646 4.26719 7.84108 4.10855 7.8C4.10855 7.8 3.81431 7.80201 3.5204 7.80434C3.37077 7.80501 3.22115 7.80602 3.10893 7.80668C2.89618 7.79566 2.75391 7.7793 2.75391 7.7793C2.89351 7.83708 3.00773 7.86647 3.11661 7.88049C3.17873 7.88951 3.22649 7.88417 3.29296 7.87582C3.42221 7.85845 3.59956 7.82539 3.94055 7.8471L3.18642 8.01342Z" fill="#FFA95A"/>
<path d="M34.2852 5.07756C34.0223 5.19178 32.7355 5.12565 32.668 5.0171C32.841 4.97001 33.5384 4.92492 33.1002 4.85579L32.0819 5.13634C30.7276 4.96166 33.1116 4.76762 33.7802 4.66876C32.4005 4.63269 31.9917 4.81705 30.5239 4.81571C30.9567 4.84076 31.2302 4.9109 31.459 4.97101C31.5088 5.1684 30.1414 5.0809 29.1635 5.09659C29.7861 5.18243 29.4261 5.25457 28.9725 5.33205C28.891 5.3384 28.8366 5.34942 28.7982 5.36278C28.7454 5.37213 28.6956 5.38115 28.6445 5.3905L28.7618 5.39016C28.7534 5.41221 28.7791 5.43893 28.864 5.47567C29.6842 5.41822 30.3114 5.58321 30.8398 5.58588C30.3178 5.26492 32.6383 5.51174 33.3023 5.41288L34.0688 5.38115L34.3557 5.38048C34.4131 5.41555 34.3316 5.45997 33.8944 5.52342C34.2595 5.4603 35.4765 5.48235 35.364 5.37914L38.1417 5.37447C38.2282 5.38749 38.3147 5.40386 38.3785 5.4269C38.4747 5.40653 38.4907 5.39017 38.478 5.3738L50.5796 5.35309C49.9825 5.32771 49.4661 5.25457 48.8502 5.21916C49.7744 5.00608 47.841 5.18076 48.1121 4.97903C48.5273 4.90589 49.1351 4.92893 49.4972 4.97803C49.6321 4.87616 49.1161 4.78599 49.1759 4.66442C47.6496 4.5365 47.4158 5.02345 45.9239 4.94964C45.983 4.82773 46.4442 4.72086 45.4673 4.73756L45.7155 4.71118C44.1514 4.84777 44.4971 4.4353 43.5125 4.76995L43.5386 4.59394C42.8292 4.72654 41.4488 4.72754 40.6713 4.75192L40.7177 4.71785C38.5358 4.91958 39.493 4.76061 37.0429 4.8451L38.1704 4.6397C37.3251 4.55487 37.1347 4.7783 36.5279 4.75526C36.5713 4.72119 36.4307 4.59261 37.0038 4.56055L34.0307 4.87383C33.3213 5.00608 34.175 5.00241 34.2852 5.07756Z" fill="#FFA95A"/>
<path d="M30.5246 4.81664C30.3673 4.80728 30.1886 4.80328 29.9775 4.80996C30.1813 4.81263 30.3566 4.81463 30.5246 4.81664Z" fill="#FFA95A"/>
<path d="M51.4301 5.35156L50.5801 5.35323C50.8436 5.36392 51.1181 5.36726 51.4301 5.35156Z" fill="#FFA95A"/>
<path d="M26.263 5.19957C26.7784 5.29042 25.877 5.32682 25.7871 5.39462L27.6334 5.39128C27.625 5.32348 27.8077 5.24733 27.7706 5.18555L26.263 5.19957Z" fill="#FFA95A"/>
<path d="M28.1682 5.52021C28.2306 5.47279 28.426 5.4307 28.6451 5.39062L27.6338 5.39229C27.6398 5.44339 27.7534 5.48948 28.1682 5.52021Z" fill="#FFA95A"/>
<path d="M27.9727 1.89991L28.2993 1.8939L28.7939 1.8418L27.9727 1.89991Z" fill="#FFA95A"/>
<path d="M33.0847 2.19814C32.6943 2.09527 31.9535 2.17342 31.7061 2.19947C32.5594 2.19613 32.1897 2.23521 33.0847 2.19814Z" fill="#FFA95A"/>
<path d="M32.0303 1.09606L32.8529 1.03762L32.7761 1.01758L32.0303 1.09606Z" fill="#FFA95A"/>
<path d="M57.7139 4.6579C57.8485 4.65422 57.9797 4.65055 58.116 4.64654C57.9316 4.64588 57.8114 4.65088 57.7139 4.6579Z" fill="#FFA95A"/>
<path d="M50.6538 4.82587C52.6163 5.02358 49.3677 4.99019 49.9845 5.24335L51.0526 5.15952L50.9621 5.22731L52.2643 5.20527C51.9971 5.08904 51.7964 5.0817 51.8542 4.95979C53.5932 5.00755 52.4026 5.10474 53.6781 5.25871L55.6215 5.23666L55.4642 5.27307C55.6279 5.2704 55.7003 5.25503 55.7564 5.23533L62.3062 5.15918C63.4979 5.06232 61.6469 4.93975 62.526 4.76007C61.1446 4.76074 59.0923 4.63082 58.975 4.87429C59.0215 4.84056 59.1127 4.77343 58.8328 4.74471L58.0339 4.9451L58.7954 5.00889C57.9921 5.20861 55.3981 5.16419 54.9292 5.04028C56.4044 4.97215 55.6639 4.73168 57.7193 4.86227C57.6271 4.80048 57.2507 4.69194 57.7132 4.6582C55.3062 4.72867 53.148 4.61779 50.6538 4.82587Z" fill="#FFA95A"/>
<path d="M74.8061 4.70898L74.7871 4.73103C74.8305 4.71934 74.8446 4.71032 74.8061 4.70898Z" fill="#FFA95A"/>
<path d="M73.9978 4.67969L72.8242 4.91815L74.6541 4.89911L74.787 4.73179C74.6254 4.7742 73.9838 4.85904 73.735 4.79357L73.9978 4.67969Z" fill="#FFA95A"/>
<path d="M71.4619 5.06213C72.4068 4.99099 72.3557 4.79394 71.8403 4.7041C72.708 4.61259 72.2979 4.91585 72.8954 4.70777C72.8757 4.5655 71.8063 4.64899 71.5608 4.67504L71.4619 5.06213Z" fill="#FFA95A"/>
<path d="M64.4893 4.959L64.7552 4.87718L64.1006 4.85547L64.4893 4.959Z" fill="#FFA95A"/>
<path d="M64.7559 4.87755L65.4055 4.8996C65.3604 4.83881 65.3159 4.7797 65.2101 4.73828L64.7559 4.87755Z" fill="#FFA95A"/>
<path d="M67.1104 4.95508C67.3856 4.96977 67.6898 4.9808 68.0602 4.98614L67.1104 4.95508Z" fill="#FFA95A"/>
<path d="M66.3672 4.9043L66.3889 4.93001L67.11 4.9544C66.8448 4.93669 66.6063 4.92066 66.3672 4.9043Z" fill="#FFA95A"/>
<path d="M65.4053 4.89844C65.5108 5.03637 65.6347 5.18132 66.5739 5.14291L66.3892 4.9305L65.4053 4.89844Z" fill="#FFA95A"/>
<path d="M38.0137 1.30265L38.7568 1.2245L38.678 1.20312L37.9355 1.28161L38.0137 1.30265Z" fill="#FFA95A"/>
<path d="M42.3018 1.42933C42.4854 1.40495 42.6247 1.37957 42.7513 1.35352C42.5579 1.36854 42.404 1.39159 42.3018 1.42933Z" fill="#FFA95A"/>
<path d="M45.489 0.486966C46.363 0.625903 44.2833 0.670658 45.9018 0.732111C46.0444 0.861363 45.2856 1.02802 44.5234 0.963562C44.5842 0.841992 45.2662 0.885743 44.7976 0.7615C44.2913 0.902108 44.0989 0.806254 44.2753 0.989611C43.4236 1.10383 43.3291 1.23409 42.751 1.35366C43.7803 1.27283 45.9419 1.4612 47.2484 1.22574C47.9685 1.00531 47.5316 0.704389 47.5346 0.386102C47.4261 0.311623 45.5595 0.276222 45.489 0.486966Z" fill="#FFA95A"/>
<path d="M44.1141 0.168969C43.7096 0.153272 43.586 0.165963 43.3379 0.192348C43.4047 0.301226 43.7871 0.173645 44.1141 0.168969Z" fill="#FFA95A"/>
<path d="M53.4107 2.5664C53.4878 2.52098 54.2199 2.46487 54.0626 2.38672L52.9531 2.44383C53.2133 2.45118 53.3055 2.50662 53.4107 2.5664Z" fill="#FFA95A"/>
<path d="M52.4668 2.4689L52.9534 2.44452C52.8318 2.44051 52.6812 2.44652 52.4668 2.4689Z" fill="#FFA95A"/>
<path d="M53.4634 2.59446C53.4455 2.58511 53.4293 2.57643 53.4101 2.56641C53.3946 2.57609 53.3976 2.58578 53.4634 2.59446Z" fill="#FFA95A"/>
<path d="M69.8031 5.03459C69.7874 5.1221 70.282 5.06966 70.5302 5.04394C70.3281 5.0366 70.0449 5.00787 69.8031 5.03459Z" fill="#FFA95A"/>
<path d="M88.417 4.69141L88.8538 4.76088C88.6989 4.71946 88.6201 4.69875 88.417 4.69141Z" fill="#FFA95A"/>
<path d="M95.1484 2.30452C95.1613 2.28749 95.194 2.27312 95.2378 2.25977C95.194 2.27079 95.1633 2.28548 95.1484 2.30452Z" fill="#FFA95A"/>
<path d="M95.2363 2.2593C95.5349 2.18682 96.4564 2.29971 96.7877 2.18916L96.7456 2.22289C96.7456 2.22289 96.7844 2.21889 96.8421 2.21254C96.8959 2.20519 97.0238 2.2102 97.1277 2.21187C97.3494 2.20486 97.5655 2.26631 97.5655 2.26598C97.465 2.23692 97.3525 2.19885 97.2239 2.19184C97.1046 2.17981 96.94 2.16211 96.8334 2.16211C96.6331 2.16512 96.417 2.16879 96.2082 2.17179C95.7907 2.18348 95.4037 2.20653 95.2363 2.2593Z" fill="#FFA95A"/>
</svg>
