<svg width="27" height="12" viewBox="0 0 27 12" fill="none" xmlns="http://www.w3.org/2000/svg">
<path d="M13.1877 11.9428H14.7212C14.7212 11.9428 15.1833 11.9015 15.4192 11.6935C15.6433 11.4995 15.6433 11.1405 15.6433 11.1405C15.6433 11.1405 15.6102 9.44908 16.5707 9.20067C17.5172 8.95402 18.7178 10.8333 19.9973 11.5557C20.9749 12.1078 21.7101 11.9893 21.7101 11.9893L25.1368 11.9507C25.1368 11.9507 26.9318 11.8585 26.0834 10.699C26.0183 10.6068 25.6021 9.84319 23.5531 8.27639C21.406 6.64288 21.6941 6.90621 24.2746 4.07456C25.8422 2.34977 26.4836 1.29558 26.2755 0.847922C26.0983 0.426598 24.9309 0.531051 24.9309 0.531051L21.0869 0.558262C21.0869 0.558262 20.7988 0.531051 20.5907 0.63726C20.3826 0.741713 20.2556 0.980463 20.2556 0.980463C20.2556 0.980463 19.6452 2.32256 18.8299 3.45574C17.0978 5.85114 16.4095 5.98281 16.1374 5.82481C15.4928 5.48161 15.6582 4.43795 15.6582 3.6901C15.6582 1.37194 16.0894 0.39851 14.8248 0.148348C14.4086 0.0684724 14.098 0.0166848 13.0266 0.00264064C11.6499 -0.00964797 10.4889 0.0114181 9.83041 0.275623C9.39821 0.453808 9.06205 0.847922 9.25521 0.86811C9.51133 0.894443 10.0865 0.996263 10.3907 1.33947C10.7909 1.78361 10.7738 2.77548 10.7738 2.77548C10.7738 2.77548 10.999 5.51057 10.2466 5.85027C9.71836 6.08024 9.01402 5.60449 7.4773 3.43116C6.69293 2.32519 6.09958 1.08755 6.09958 1.08755C6.09958 1.08755 5.98753 0.862844 5.7805 0.73118C5.53825 0.58635 5.18609 0.533684 5.18609 0.533684L1.52036 0.560017C1.52036 0.560017 0.976101 0.574061 0.785078 0.770679C0.607928 0.941842 0.768003 1.3105 0.768003 1.3105C0.768003 1.3105 3.63442 6.82897 6.88502 9.60795C9.86243 12.1552 13.2411 11.9911 13.2411 11.9911L13.1877 11.9428Z" fill="#FFA95A"/>
</svg>
